<svg width="24" height="24" viewBox="0 0 24 24" fill="none" xmlns="http://www.w3.org/2000/svg">
<path d="M14 19.9V4.1C14 3.40657 14.1499 3.05057 14.3614 2.85167C14.5804 2.64556 14.9785 2.5 15.73 2.5H19.77C20.5215 2.5 20.9196 2.64556 21.1386 2.85167C21.3501 3.05057 21.5 3.40657 21.5 4.1V19.9C21.5 20.5934 21.3501 20.9494 21.1386 21.1483C20.9196 21.3544 20.5215 21.5 19.77 21.5H15.73C14.9785 21.5 14.5804 21.3544 14.3614 21.1483C14.1499 20.9494 14 20.5934 14 19.9Z" stroke="#333333"/>
<path d="M2.5 19.9V4.1C2.5 3.40657 2.64993 3.05057 2.86135 2.85167C3.08044 2.64556 3.47854 2.5 4.23 2.5H8.27C9.02146 2.5 9.41956 2.64556 9.63865 2.85167C9.85007 3.05057 10 3.40657 10 4.1V19.9C10 20.5934 9.85007 20.9494 9.63865 21.1483C9.41956 21.3544 9.02146 21.5 8.27 21.5H4.23C3.47854 21.5 3.08044 21.3544 2.86135 21.1483C2.64993 20.9494 2.5 20.5934 2.5 19.9Z" fill="#333333" stroke="#333333"/>
</svg>
