<svg width="20" height="20" viewBox="0 0 20 20" fill="none" xmlns="http://www.w3.org/2000/svg">
<path d="M11.7368 1.44567L13.4993 4.99454C13.7368 5.48534 14.3743 5.95097 14.9118 6.05165L18.0993 6.58021C20.1368 6.91999 20.6118 8.40498 19.1493 9.88997L16.6618 12.3943C16.2493 12.8096 16.0118 13.6276 16.1493 14.2191L16.8618 17.3149C17.4243 19.7563 16.1243 20.7128 13.9868 19.4291L10.9993 17.6421C10.4618 17.3149 9.56182 17.3149 9.02432 17.6421L6.03682 19.4291C3.89932 20.7002 2.59932 19.7563 3.16182 17.3149L3.87432 14.2191C3.98682 13.615 3.74932 12.797 3.33682 12.3817L0.849317 9.87739C-0.613183 8.40498 -0.138183 6.91999 1.89932 6.56762L5.08682 6.03906C5.62432 5.95097 6.26182 5.47276 6.49932 4.98196L8.26182 1.43308C9.22432 -0.479786 10.7743 -0.479786 11.7368 1.44567Z" fill="#FFB628"/>
</svg>
