<svg width="19" height="18" viewBox="0 0 19 18" fill="none" xmlns="http://www.w3.org/2000/svg">
<path d="M13.8388 3.10665C13.6247 3.10665 13.4154 3.16984 13.2374 3.28824C13.0593 3.40663 12.9206 3.5749 12.8386 3.77178C12.7567 3.96866 12.7353 4.1853 12.777 4.3943C12.8188 4.60331 12.9219 4.79529 13.0733 4.94598C13.2247 5.09666 13.4176 5.19928 13.6276 5.24085C13.8376 5.28243 14.0553 5.26109 14.2531 5.17954C14.4509 5.09799 14.62 4.95989 14.7389 4.7827C14.8579 4.60552 14.9214 4.3972 14.9214 4.1841C14.9214 3.89835 14.8073 3.62429 14.6043 3.42223C14.4013 3.22017 14.1259 3.10665 13.8388 3.10665ZM17.9886 5.27951C17.9711 4.53454 17.8309 3.79748 17.5737 3.09767C17.3443 2.49891 16.9873 1.95672 16.5272 1.50843C16.0805 1.0482 15.5344 0.695115 14.9304 0.475874C14.2291 0.212043 13.4877 0.069325 12.7382 0.0538725C11.7819 -5.01728e-08 11.4752 0 9.02138 0C6.56757 0 6.26084 -5.01728e-08 5.30457 0.0538725C4.55503 0.069325 3.81365 0.212043 3.11238 0.475874C2.50946 0.697334 1.9639 1.05012 1.51559 1.50843C1.05318 1.95304 0.698414 2.49649 0.478133 3.09767C0.21305 3.79563 0.0696541 4.53351 0.0541283 5.27951C-5.04109e-08 6.23126 0 6.53654 0 8.97876C0 11.421 -5.04109e-08 11.7263 0.0541283 12.678C0.0696541 13.424 0.21305 14.1619 0.478133 14.8599C0.698414 15.461 1.05318 16.0045 1.51559 16.4491C1.9639 16.9074 2.50946 17.2602 3.11238 17.4817C3.81365 17.7455 4.55503 17.8882 5.30457 17.9037C6.26084 17.9575 6.56757 17.9575 9.02138 17.9575C11.4752 17.9575 11.7819 17.9575 12.7382 17.9037C13.4877 17.8882 14.2291 17.7455 14.9304 17.4817C15.5344 17.2624 16.0805 16.9093 16.5272 16.4491C16.9893 16.0025 17.3466 15.4598 17.5737 14.8599C17.8309 14.16 17.9711 13.423 17.9886 12.678C17.9886 11.7263 18.0428 11.421 18.0428 8.97876C18.0428 6.53654 18.0428 6.23126 17.9886 5.27951ZM16.3648 12.5703C16.3582 13.1402 16.2545 13.7049 16.0581 14.2403C15.914 14.6311 15.6827 14.9841 15.3815 15.2729C15.0888 15.5696 14.7348 15.7994 14.344 15.9463C13.8061 16.1418 13.2387 16.245 12.666 16.2516C11.7639 16.2965 11.4301 16.3054 9.05747 16.3054C6.68485 16.3054 6.35105 16.3054 5.44892 16.2516C4.85431 16.2626 4.26224 16.1715 3.69877 15.9822C3.32509 15.8278 2.9873 15.5986 2.70642 15.3088C2.40699 15.0203 2.17852 14.667 2.03883 14.2762C1.81858 13.7332 1.69642 13.1556 1.67798 12.5703C1.67798 11.6724 1.62385 11.3402 1.62385 8.97876C1.62385 6.61735 1.62385 6.28513 1.67798 5.38726C1.68202 4.80459 1.7889 4.22715 1.99373 3.68129C2.15254 3.30231 2.39632 2.96448 2.70642 2.69363C2.9805 2.38491 3.31923 2.13973 3.69877 1.97533C4.24867 1.77783 4.82824 1.67461 5.41283 1.67005C6.31497 1.67005 6.64876 1.61618 9.02138 1.61618C11.394 1.61618 11.7278 1.61618 12.6299 1.67005C13.2026 1.67659 13.77 1.77981 14.3079 1.97533C14.7179 2.12676 15.0858 2.37295 15.3815 2.69363C15.6771 2.96944 15.9081 3.30664 16.0581 3.68129C16.2586 4.22804 16.3623 4.80524 16.3648 5.38726C16.4099 6.28513 16.4189 6.61735 16.4189 8.97876C16.4189 11.3402 16.4099 11.6724 16.3648 12.5703ZM9.02138 4.37266C8.10644 4.37443 7.21256 4.64608 6.45268 5.15329C5.69281 5.66049 5.10103 6.38049 4.75213 7.2223C4.40324 8.06411 4.31287 8.98996 4.49246 9.88286C4.67205 10.7758 5.11353 11.5957 5.76112 12.2389C6.40872 12.8822 7.23336 13.32 8.13085 13.497C9.02834 13.674 9.9584 13.5823 10.8035 13.2334C11.6487 12.8845 12.3709 12.2941 12.879 11.5368C13.3872 10.7796 13.6584 9.88938 13.6584 8.97876C13.6596 8.37279 13.5404 7.77256 13.3077 7.2126C13.0749 6.65264 12.7333 6.144 12.3023 5.71593C11.8714 5.28786 11.3597 4.94881 10.7966 4.71828C10.2335 4.48775 9.63023 4.37029 9.02138 4.37266ZM9.02138 11.9687C8.42723 11.9687 7.84641 11.7933 7.35238 11.4648C6.85836 11.1363 6.47331 10.6693 6.24594 10.123C6.01856 9.57662 5.95907 8.97545 6.07499 8.39546C6.1909 7.81547 6.47702 7.28271 6.89715 6.86456C7.31728 6.44642 7.85257 6.16165 8.43531 6.04629C9.01805 5.93092 9.62208 5.99013 10.171 6.21643C10.7199 6.44273 11.1891 6.82596 11.5192 7.31765C11.8493 7.80934 12.0255 8.38741 12.0255 8.97876C12.0255 9.37141 11.9478 9.76021 11.7968 10.123C11.6459 10.4857 11.4246 10.8153 11.1456 11.093C10.8667 11.3706 10.5355 11.5908 10.171 11.7411C9.80653 11.8914 9.41589 11.9687 9.02138 11.9687Z" fill="#B2B2B2"/>
</svg>
