<svg width="17" height="14" viewBox="0 0 17 14" fill="none" xmlns="http://www.w3.org/2000/svg">
<path d="M11.8328 4.24936C12.3308 3.75374 12.8251 2.59727 10.7502 4.00155C7.80202 6.02626 4.89623 7.92707 4.89623 7.92707C4.59712 8.06168 4.27375 8.13473 3.94555 8.14183C3.61736 8.14893 3.29111 8.08992 2.9864 7.96837C1.74145 7.59665 0.288106 7.10102 0.288106 7.10102C0.288106 7.10102 -0.704246 6.48059 0.994481 5.81975C0.994481 5.81975 8.1764 2.88639 10.6672 1.85293C11.6217 1.43991 14.8594 0.118234 14.8594 0.118234C14.8594 0.118234 16.3543 -0.460896 16.2298 0.944281C16.1883 1.52251 15.8563 3.54812 15.5243 5.73714C15.0254 8.83572 14.486 12.2243 14.486 12.2243C14.486 12.2243 14.403 13.1743 13.6975 13.3395C12.9423 13.3267 12.2126 13.0653 11.6226 12.596C11.4566 12.4721 8.50929 10.6126 7.42943 9.70396C7.31959 9.6299 7.23035 9.52939 7.17001 9.41179C7.10968 9.29418 7.08021 9.16329 7.08435 9.03131C7.08849 8.89932 7.12611 8.77052 7.1937 8.65689C7.26129 8.54326 7.35666 8.44849 7.47093 8.38139C8.96848 7.01841 10.7538 5.32412 11.8328 4.24936Z" fill="#B2B2B2"/>
</svg>
