<svg width="18" height="18" viewBox="0 0 18 18" fill="none" xmlns="http://www.w3.org/2000/svg">
<path d="M13.1712 10.797C12.9908 10.7072 11.818 10.1684 11.6376 10.0787C11.4572 9.98887 11.2767 9.98887 11.0963 10.1684C10.9159 10.348 10.555 10.8868 10.3746 11.0663C10.2844 11.2459 10.104 11.2459 9.92352 11.1561C9.29203 10.8868 8.66053 10.5276 8.11925 10.0787C7.66818 9.62972 7.21711 9.091 6.85625 8.55227C6.76604 8.3727 6.85625 8.19312 6.94647 8.10333C7.03668 8.01355 7.12689 7.83397 7.30732 7.74418C7.39754 7.6544 7.48775 7.47482 7.48775 7.38503C7.57796 7.29525 7.57796 7.11567 7.48775 7.02588C7.39754 6.9361 6.94647 5.85864 6.76604 5.40971C6.67582 4.78119 6.4954 4.78119 6.31497 4.78119C6.22475 4.78119 6.04433 4.78119 5.8639 4.78119C5.68347 4.78119 5.41283 4.96077 5.32262 5.05055C4.78133 5.58928 4.51069 6.21779 4.51069 6.93609C4.60091 7.74418 4.87155 8.55227 5.41283 9.27057C6.40518 10.7072 7.66818 11.8744 9.20181 12.5927C9.65288 12.7723 10.0137 12.9519 10.4648 13.0417C10.9159 13.2212 11.3669 13.2212 11.9082 13.1314C12.5397 13.0417 13.081 12.5927 13.4419 12.054C13.6223 11.6948 13.6223 11.3357 13.5321 10.9765C13.5321 10.9765 13.3516 10.8868 13.1712 10.797ZM15.4266 2.62629C11.9082 -0.875429 6.22476 -0.875429 2.70642 2.62629C-0.180428 5.49949 -0.721711 9.89909 1.26299 13.4008L0 17.98L4.78133 16.7229C6.13454 17.4412 7.57796 17.8004 9.02138 17.8004C13.9831 17.8004 17.9526 13.8497 17.9526 8.91142C18.0428 6.57694 17.0504 4.33225 15.4266 2.62629ZM12.9908 15.1966C11.818 15.9149 10.4648 16.3638 9.02138 16.3638C7.66818 16.3638 6.40518 16.0046 5.2324 15.3761L4.96176 15.1966L2.16513 15.9149L2.88684 13.2212L2.70642 12.9519C0.541283 9.36036 1.62385 4.87098 5.14219 2.62629C8.66053 0.381598 13.1712 1.54884 15.3364 4.96077C17.5015 8.46249 16.5091 13.0417 12.9908 15.1966Z" fill="#B2B2B2"/>
</svg>
