<svg width="17" height="16" viewBox="0 0 17 16" fill="none" xmlns="http://www.w3.org/2000/svg">
<path d="M0 1.77308C0 1.25913 0.182871 0.835134 0.548598 0.501087C0.914324 0.167024 1.38979 0 1.97495 0C2.54968 0 3.01467 0.164449 3.36996 0.493378C3.73568 0.832575 3.91855 1.27455 3.91855 1.81933C3.91855 2.31271 3.74092 2.72385 3.38563 3.05277C3.0199 3.39197 2.53922 3.56157 1.9436 3.56157H1.92793C1.3532 3.56157 0.888211 3.39197 0.532923 3.05277C0.177636 2.71358 0 2.28701 0 1.77308ZM0.203765 15.2639V4.96461H3.68344V15.2639H0.203765ZM5.61137 15.2639H9.09105V9.51294C9.09105 9.15317 9.13285 8.87565 9.21644 8.68036C9.36273 8.33088 9.58478 8.03537 9.8826 7.79383C10.1804 7.55227 10.554 7.4315 11.0033 7.4315C12.1736 7.4315 12.7588 8.20754 12.7588 9.75963V15.2639H16.2385V9.35876C16.2385 7.83751 15.8728 6.68373 15.1413 5.89741C14.4098 5.11108 13.4433 4.71792 12.2416 4.71792C10.8936 4.71792 9.84341 5.28839 9.09105 6.42933V6.46017H9.07537L9.09105 6.42933V4.96461H5.61137C5.63226 5.29353 5.64272 6.31625 5.64272 8.03281C5.64272 9.74934 5.63226 12.1597 5.61137 15.2639Z" fill="#B2B2B2"/>
</svg>
