<svg width="36" height="43" viewBox="0 0 36 43" fill="none" xmlns="http://www.w3.org/2000/svg">
<path d="M34.6583 14.3184C34.4793 14.435 34.3139 14.5407 34.1512 14.6492C33.2427 15.2594 32.4238 15.9698 31.7458 16.8349C30.8157 18.02 30.2435 19.3569 30.0292 20.8484C29.7987 22.4457 29.9099 24.0158 30.4306 25.548C30.8916 26.8985 31.6645 28.0483 32.6787 29.0435C33.5627 29.9086 34.5553 30.6055 35.6915 31.0991C35.7213 31.1126 35.7512 31.1289 35.8027 31.1533C35.7783 31.2238 35.7566 31.2916 35.7322 31.3594C34.859 33.9438 33.5573 36.2976 31.8814 38.4481C31.4204 39.0393 30.9458 39.6223 30.4442 40.1782C29.8259 40.8643 29.1208 41.4501 28.291 41.8758C27.6076 42.2257 26.8835 42.4263 26.1161 42.4507C25.4897 42.4697 24.8795 42.3585 24.2748 42.204C23.6592 42.0467 23.0626 41.827 22.4741 41.5911C21.6579 41.263 20.8199 41.008 19.9467 40.8779C18.8837 40.7179 17.8315 40.7884 16.7875 41.0243C15.9875 41.206 15.2254 41.5016 14.4634 41.7945C13.7258 42.0792 12.9719 42.3097 12.1882 42.4372C11.1984 42.5999 10.2683 42.4399 9.37878 41.987C8.91234 41.7484 8.48659 41.4528 8.08525 41.1192C7.30153 40.4684 6.62086 39.7199 5.98901 38.9227C4.87988 37.5234 3.84668 36.0698 3.02229 34.4807C1.73417 31.9994 0.820294 29.3906 0.332167 26.6381C0.0447148 25.0083 -0.0691813 23.3677 0.042003 21.7135C0.169458 19.7854 0.600636 17.9359 1.49282 16.2112C2.41213 14.435 3.67041 12.9652 5.35987 11.875C6.69679 11.0127 8.15033 10.4622 9.73131 10.2615C10.2086 10.2018 10.6859 10.1666 11.1659 10.1801C11.9197 10.2018 12.6574 10.3537 13.3733 10.5788C14.2492 10.8554 15.1088 11.1781 15.9793 11.4655C16.5488 11.6526 17.1264 11.8181 17.704 11.9862C18.0295 12.0811 18.3576 12.0811 18.683 11.9753C19.5372 11.6987 20.3942 11.4303 21.2403 11.1347C22.0999 10.8337 22.9595 10.5272 23.8517 10.3293C24.6599 10.1503 25.4734 10.0228 26.3032 10.0689C28.4157 10.1883 30.4089 10.6954 32.1933 11.8859C33.1261 12.5069 33.9098 13.2824 34.5688 14.1855C34.5932 14.2234 34.6203 14.2614 34.6583 14.3184Z" fill="white"/>
<path d="M26.8049 0C26.8158 0.103049 26.8293 0.187114 26.8347 0.273892C26.9703 2.41351 26.3439 4.32806 25.1046 6.05277C24.2504 7.23783 23.2307 8.24934 21.9779 9.01678C21.1399 9.53203 20.2369 9.88456 19.2579 10.0012C18.8973 10.0446 18.5312 10.0391 18.1678 10.0527C18.1027 10.0554 18.0376 10.0364 17.9563 10.0256C17.9427 9.88456 17.9264 9.75168 17.9183 9.61609C17.8397 8.00256 18.26 6.51377 19.0356 5.11448C20.5027 2.46503 22.7535 0.856931 25.6741 0.146436C25.9426 0.0813526 26.2192 0.0515253 26.4931 0.0135599C26.588 0.00271264 26.6883 0.00542363 26.8049 0Z" fill="white"/>
</svg>
