<svg width="124" height="39" viewBox="0 0 124 39" fill="none" xmlns="http://www.w3.org/2000/svg">
<path d="M0.0773166 21.4535C0.164039 21.4535 0.253858 21.4504 0.340581 21.4504C9.01593 21.4504 17.6913 21.4504 26.3635 21.4504C26.7476 21.4504 26.7011 21.3946 26.7011 21.7725C26.7011 27.1896 26.7011 32.6066 26.7011 38.0206C26.7011 38.3985 26.7414 38.3458 26.3635 38.3458C17.7037 38.3458 9.0469 38.3458 0.38704 38.3458C0.281734 38.3458 0.179525 38.3489 0.0742188 38.3489C0.077316 32.7212 0.0773166 27.0874 0.0773166 21.4535Z" fill="#BCBCBC"/>
<path d="M0.0761719 4.40925C0.162894 4.31014 0.153602 4.17695 0.193866 4.05926C0.466422 3.21991 1.0549 2.64692 1.79514 2.2226C2.91014 1.58457 4.12735 1.24078 5.37863 1.00229C6.64849 0.763806 7.93694 0.72045 9.22539 0.717353C10.3466 0.711158 11.4647 0.717353 12.5859 0.717353C12.8584 0.717353 13.1279 0.739025 13.385 0.844331C13.7845 1.00539 13.9858 1.31202 13.9734 1.73944C13.9703 1.88191 13.958 2.02748 13.9425 2.16996C13.8619 2.84205 13.4252 3.24468 12.7067 3.26017C11.7403 3.27875 10.7709 3.26018 9.80147 3.27567C8.4263 3.29425 7.05114 3.32212 5.69455 3.60088C5.28881 3.6845 4.88617 3.79599 4.5207 4.00041C4.11186 4.22651 3.89506 4.54243 3.89815 5.04418C3.91364 7.63656 3.91364 10.2289 3.89815 12.8213C3.89506 13.3788 4.12735 13.7536 4.58574 14.0138C5.1866 14.3576 5.84941 14.4907 6.5246 14.5929C7.48475 14.7385 8.45108 14.754 9.42052 14.754C12.5239 14.7509 15.6305 14.7478 18.7339 14.7385C19.2635 14.7385 19.7838 14.6487 20.2918 14.4938C20.6046 14.3978 20.936 14.3792 21.2457 14.2646C21.4873 14.1748 21.7165 14.0695 21.924 13.9147C22.2461 13.6762 22.4258 13.3757 22.4072 12.9545C22.3855 12.524 22.3917 12.0904 22.4072 11.6599C22.4134 11.4647 22.3669 11.4059 22.1625 11.409C20.4745 11.4183 18.7865 11.4152 17.0985 11.4121C16.3955 11.4121 15.8101 10.9165 15.7172 10.2599C15.6243 9.60021 16.1229 8.95288 16.7857 8.87545C16.8972 8.86306 17.0087 8.85997 17.1202 8.85997C19.7064 8.85997 22.2895 8.85997 24.8757 8.85997C25.1792 8.85997 25.4827 8.86926 25.7739 8.97456C26.1858 9.12323 26.3871 9.38649 26.3871 9.8201C26.3902 10.9475 26.3995 12.0749 26.384 13.2054C26.3686 14.212 25.8358 14.9491 25.0739 15.5469C24.1416 16.2778 23.0638 16.6681 21.9147 16.9066C20.5396 17.1915 19.1489 17.3185 17.7459 17.3154C14.5062 17.303 11.2634 17.3712 8.02366 17.2813C6.17152 17.2287 4.34725 16.9407 2.60351 16.2778C1.71461 15.9402 0.934105 15.4416 0.432354 14.5898C0.255812 14.2925 0.203158 13.9549 0.0761719 13.6421C0.0761719 10.5542 0.0761719 7.4817 0.0761719 4.40925Z" fill="#BCBCBC"/>
<path d="M123.016 13.6764C122.979 13.6857 122.973 13.7167 122.966 13.7476C122.796 14.7728 122.208 15.5037 121.343 16.0365C120.445 16.5909 119.445 16.8542 118.417 17.0369C117.24 17.2444 116.047 17.3032 114.855 17.3001C112.262 17.294 109.67 17.3466 107.078 17.2692C105.637 17.2258 104.206 17.0647 102.841 16.5568C102.017 16.2502 101.283 15.8197 100.765 15.0794C100.388 14.5374 100.217 13.9242 100.211 13.2737C100.199 11.6012 100.186 9.92873 100.214 8.25933C100.239 6.82531 101.044 5.89305 102.271 5.27051C103.231 4.78424 104.265 4.55504 105.321 4.40947C106.498 4.24841 107.682 4.21745 108.865 4.22054C110.986 4.22364 113.105 4.21124 115.226 4.22672C116.787 4.23911 118.342 4.34132 119.854 4.78732C120.625 5.01652 121.353 5.33245 121.96 5.88066C122.52 6.3886 122.855 7.01734 122.963 7.76378C122.969 7.80094 122.957 7.8443 123.01 7.85979C123.016 9.80175 123.016 11.7406 123.016 13.6764ZM111.965 6.6178C110.881 6.6178 110.073 6.6178 109.264 6.6178C108.233 6.6147 107.198 6.6023 106.176 6.76336C105.606 6.85318 105.046 6.98016 104.538 7.26511C104.098 7.51289 103.872 7.86288 103.878 8.39251C103.897 9.969 103.9 11.5455 103.878 13.122C103.869 13.8405 104.175 14.1874 104.77 14.4414C105.51 14.7573 106.3 14.8379 107.09 14.8688C109.091 14.9556 111.092 14.8967 113.089 14.906C114.307 14.9122 115.521 14.9463 116.735 14.8255C117.373 14.7604 118.002 14.6644 118.59 14.3826C119.11 14.1317 119.361 13.7352 119.355 13.1437C119.34 11.592 119.349 10.0402 119.349 8.48852C119.349 7.68324 119.129 7.34875 118.382 7.04832C117.72 6.78505 117.02 6.70762 116.32 6.66426C114.777 6.56825 113.232 6.64567 111.965 6.6178Z" fill="#BCBCBC"/>
<path d="M45.4426 38.3487C41.0972 38.3487 36.7518 38.3456 32.4064 38.3549C32.1772 38.3549 32.1152 38.3022 32.1152 38.0669C32.1214 32.6188 32.1214 27.1677 32.1152 21.7197C32.1152 21.5029 32.1648 21.4409 32.3878 21.4409C41.0879 21.4471 49.7849 21.4471 58.4851 21.4409C58.7019 21.4409 58.7607 21.4936 58.7607 21.7135C58.7545 27.1615 58.7545 32.6126 58.7607 38.0607C58.7607 38.2868 58.7174 38.3518 58.4789 38.3518C54.1334 38.3487 49.788 38.3487 45.4426 38.3487Z" fill="#BCBCBC"/>
<path d="M109.553 38.3551C105.217 38.3551 100.877 38.3551 96.5412 38.3551C96.2222 38.3551 96.2191 38.3551 96.2191 38.0299C96.2191 32.6067 96.2222 27.1803 96.2129 21.7571C96.2129 21.5186 96.2655 21.4504 96.5133 21.4504C105.204 21.4566 113.895 21.4566 122.586 21.4504C122.821 21.4504 122.877 21.5186 122.877 21.7447C122.871 27.1865 122.871 32.6252 122.877 38.0671C122.877 38.2932 122.821 38.3613 122.589 38.3613C118.243 38.352 113.898 38.3551 109.553 38.3551Z" fill="#BCBCBC"/>
<path d="M77.4895 21.4503C81.8287 21.4503 86.1648 21.4534 90.504 21.4441C90.7301 21.4441 90.8107 21.4782 90.8107 21.7352C90.8014 27.1771 90.8014 32.6189 90.8107 38.0576C90.8107 38.3054 90.7487 38.355 90.5102 38.355C81.8349 38.3488 73.1595 38.3488 64.4842 38.355C64.2519 38.355 64.1807 38.3147 64.1807 38.0607C64.19 32.6189 64.19 27.1771 64.1807 21.7383C64.1807 21.4906 64.2457 21.4441 64.4811 21.4441C68.8141 21.4503 73.1502 21.4503 77.4895 21.4503Z" fill="#BCBCBC"/>
<path d="M66.9502 0.717456C69.4775 0.717456 72.008 0.714358 74.5353 0.717456C76.3503 0.720553 78.1467 0.934248 79.9059 1.36167C80.9311 1.60945 81.8788 2.10502 82.6624 2.84835C83.2014 3.3594 83.4987 3.97884 83.4801 4.74696C83.4584 5.53056 83.477 6.31415 83.4615 7.09775C83.4398 8.16629 82.9443 8.99015 82.1111 9.62818C81.1293 10.3808 79.9895 10.7401 78.7971 10.9879C77.2856 11.3038 75.7587 11.406 74.2194 11.406C69.8492 11.406 65.4821 11.4091 61.1119 11.3998C60.861 11.3998 60.8208 11.471 60.8208 11.7002C60.8301 13.2117 60.827 14.7231 60.827 16.2377C60.827 17.0151 60.5544 17.3465 59.7894 17.427C59.1359 17.4983 58.4793 17.4952 57.8257 17.4239C57.1443 17.3465 56.8408 16.9934 56.8408 16.3058C56.8408 12.4745 56.8408 8.64326 56.8408 4.80889C56.8408 3.87972 56.8408 2.95365 56.8408 2.02448C56.8408 1.11699 57.2497 0.714355 58.1633 0.714355C61.0933 0.714355 64.0202 0.714358 66.9502 0.717456ZM68.6537 3.11471C66.0706 3.11161 63.4844 3.1147 60.9013 3.10851C60.7124 3.10851 60.669 3.15807 60.669 3.3439C60.6752 5.15269 60.6783 6.95838 60.6659 8.76716C60.6659 8.99016 60.734 9.02113 60.9323 9.02113C65.3241 9.01494 69.716 9.01803 74.1079 9.01803C75.0587 9.01803 76.0127 8.99944 76.9573 8.87245C77.5985 8.78883 78.2365 8.67114 78.8095 8.33974C79.1966 8.11364 79.4723 7.79772 79.4785 7.32694C79.4878 6.4721 79.4878 5.61418 79.4754 4.75934C79.4692 4.30714 79.2338 3.97575 78.8559 3.74036C78.6391 3.60408 78.4006 3.51116 78.1529 3.44302C77.1246 3.15807 76.0684 3.1271 75.0123 3.11781C72.8938 3.10542 70.7722 3.11471 68.6537 3.11471Z" fill="#BCBCBC"/>
<path d="M41.1716 17.3031C39.8893 17.2969 38.3933 17.3341 36.8974 17.2721C35.4634 17.2133 34.0448 17.0615 32.6851 16.5597C32.2794 16.4111 31.8923 16.2221 31.533 15.9775C30.5821 15.3363 30.0742 14.4381 30.0587 13.2984C30.037 11.6197 30.0308 9.93786 30.0587 8.25916C30.0835 6.82514 30.8888 5.89288 32.1184 5.27034C33.0785 4.78407 34.113 4.55797 35.1691 4.4124C36.3616 4.24825 37.5602 4.22038 38.7619 4.22347C40.868 4.22657 42.971 4.21417 45.0772 4.22965C46.6382 4.24204 48.193 4.34735 49.7044 4.79025C50.3889 4.99157 51.0393 5.27032 51.6092 5.71632C52.4083 6.34196 52.8326 7.17202 52.845 8.17862C52.8667 9.89139 52.876 11.6042 52.845 13.3138C52.8202 14.6426 52.0862 15.547 50.9588 16.1664C50.0204 16.6805 48.9983 16.9221 47.9514 17.0832C46.8178 17.2597 45.6749 17.2938 44.529 17.3C43.4821 17.3062 42.4321 17.3031 41.1716 17.3031ZM41.8189 6.61763C40.4716 6.61763 39.3999 6.61763 38.3252 6.61763C37.5478 6.61763 36.7735 6.6455 36.0054 6.76629C35.4045 6.8623 34.8129 6.99238 34.2864 7.32379C33.9055 7.56227 33.7134 7.88749 33.7165 8.35517C33.7289 9.93785 33.7382 11.5236 33.7134 13.1063C33.701 13.8683 34.0417 14.2058 34.6147 14.4474C35.355 14.7602 36.1448 14.8439 36.9346 14.8748C39.2853 14.9616 41.6392 14.8965 43.99 14.9151C44.8542 14.9213 45.7183 14.9182 46.5793 14.8315C47.2235 14.7664 47.8616 14.6704 48.4532 14.3762C48.9549 14.1284 49.1965 13.7382 49.1903 13.1683C49.1779 11.6073 49.1872 10.0494 49.1872 8.48835C49.1872 7.68617 48.9642 7.35476 48.2116 7.05433C47.5581 6.79416 46.8643 6.71674 46.1705 6.67337C44.6343 6.56497 43.0887 6.64241 41.8189 6.61763Z" fill="#BCBCBC"/>
<path d="M86.6602 12.2826C86.6602 11.0901 86.6912 9.89771 86.6509 8.70837C86.6014 7.23409 87.289 6.2089 88.4938 5.47176C89.4632 4.88019 90.538 4.57976 91.6499 4.41251C93.183 4.18332 94.7285 4.21738 96.274 4.22977C97.1846 4.23596 97.8227 5.06603 97.6121 5.90538C97.4851 6.40713 97.0669 6.73854 96.4723 6.75712C95.7692 6.7819 95.063 6.76022 94.36 6.7788C93.3843 6.80048 92.4087 6.82526 91.4702 7.14117C91.3185 7.19073 91.1729 7.25886 91.0304 7.327C90.5473 7.56858 90.3181 7.95265 90.3212 8.50086C90.3305 11.0282 90.3243 13.5555 90.3243 16.0829C90.3243 16.1541 90.3243 16.2254 90.3243 16.2997C90.315 17.0182 90.0424 17.3589 89.3331 17.4333C88.7633 17.4921 88.181 17.5076 87.6111 17.4178C87.004 17.3249 86.6633 16.9037 86.6633 16.2842C86.6602 14.9555 86.6602 13.6175 86.6602 12.2826Z" fill="#BCBCBC"/>
</svg>
