<svg width="152" height="33" viewBox="0 0 152 33" fill="none" xmlns="http://www.w3.org/2000/svg">
<path d="M0.26705 24.8162C0.26705 22.4247 0.26705 20.0305 0.26705 17.639C0.26705 17.5467 0.272645 17.4544 0.26705 17.3621C0.258659 17.2082 0.339775 17.1495 0.482425 17.1495C0.574727 17.1495 0.667029 17.1523 0.759332 17.1523C5.54508 17.1523 10.3308 17.1523 15.1166 17.1523C15.1697 17.1523 15.2229 17.1495 15.2732 17.1523C15.5501 17.1607 15.5641 17.1747 15.5781 17.4376C15.5809 17.5019 15.5781 17.5691 15.5781 17.6362C15.5781 22.4219 15.5781 27.2077 15.5781 31.9935C15.5781 32.5193 15.648 32.4997 15.0607 32.4997C10.2749 32.4997 5.48914 32.4997 0.703392 32.4997C0.636263 32.4997 0.571929 32.4941 0.507597 32.4997C0.345368 32.5109 0.255862 32.4522 0.26705 32.276C0.272645 32.1837 0.26705 32.0914 0.26705 31.9991C0.269848 29.602 0.269848 27.2077 0.26705 24.8162C0.269848 24.8162 0.269848 24.8162 0.26705 24.8162Z" fill="white"/>
<path d="M32.4777 24.8665C32.4777 27.2328 32.4777 29.6019 32.4777 31.9682C32.4777 32.0466 32.4805 32.1249 32.4777 32.206C32.4665 32.4717 32.4525 32.4829 32.1728 32.4941C32.1197 32.4969 32.0665 32.4941 32.0162 32.4941C27.2276 32.4941 22.4419 32.4941 17.6533 32.4941C17.575 32.4941 17.4967 32.4941 17.4156 32.4913C17.2366 32.4885 17.1583 32.4018 17.1639 32.2172C17.1722 31.9794 17.1639 31.7445 17.1639 31.5067C17.1639 26.9028 17.1639 22.2988 17.1639 17.6977C17.1639 17.6306 17.1639 17.5662 17.1639 17.4991C17.1722 17.1635 17.1778 17.1523 17.5303 17.1523C19.5693 17.1495 21.6084 17.1495 23.6474 17.1495C26.4081 17.1495 29.1716 17.1495 31.9323 17.1495C32.0106 17.1495 32.0889 17.1467 32.17 17.1495C32.433 17.1607 32.4637 17.1886 32.4777 17.446C32.4833 17.5494 32.4805 17.6557 32.4805 17.762C32.4777 20.1311 32.4777 22.5002 32.4777 24.8665Z" fill="white"/>
<path d="M15.5728 7.88006C15.5728 10.2743 15.5728 12.6658 15.5728 15.0601C15.5728 15.1524 15.57 15.2447 15.5728 15.337C15.5784 15.4908 15.5001 15.5496 15.3547 15.5468C15.2623 15.544 15.17 15.5468 15.0777 15.5468C10.278 15.5468 5.48106 15.5468 0.681326 15.5468C0.616994 15.5468 0.549863 15.5468 0.485531 15.5496C0.342881 15.5524 0.261767 15.4909 0.267361 15.3398C0.270158 15.2615 0.267361 15.1832 0.267361 15.1021C0.267361 10.2911 0.267361 5.4774 0.267361 0.666473C0.267361 0.613329 0.267361 0.560185 0.267361 0.509838C0.275753 0.216148 0.275753 0.210549 0.580632 0.207752C1.69945 0.204955 2.81547 0.207752 3.9343 0.207752C7.57606 0.207752 11.2178 0.207755 14.8596 0.210552C15.0805 0.210552 15.3519 0.121047 15.5085 0.263696C15.6707 0.41194 15.57 0.686054 15.57 0.904224C15.5756 3.22578 15.5728 5.55292 15.5728 7.88006Z" fill="white"/>
<path d="M17.1674 7.88005C17.1674 5.48577 17.1674 3.0915 17.1674 0.700023C17.1674 0.621705 17.1729 0.540589 17.1674 0.462272C17.1506 0.277666 17.2261 0.19376 17.4135 0.204948C17.531 0.213339 17.6512 0.204948 17.7687 0.204948C22.4762 0.204948 27.1864 0.202151 31.8938 0.204948C32.5679 0.204948 32.47 0.151804 32.47 0.764358C32.4728 5.53892 32.4728 10.3135 32.4728 15.0881C32.4728 15.1552 32.4672 15.2195 32.4728 15.2866C32.4868 15.4685 32.4113 15.558 32.2239 15.544C32.1707 15.5412 32.1176 15.544 32.0672 15.544C27.2535 15.544 22.4398 15.544 17.6261 15.5412C17.1785 15.5412 17.1646 15.6167 17.1646 15.0601C17.1673 12.6658 17.1646 10.2715 17.1674 7.88005C17.1674 7.88005 17.1646 7.88005 17.1674 7.88005Z" fill="white"/>
<path d="M45.1152 10.3302C45.2019 11.0351 45.2159 11.7455 45.2243 12.4532C45.2858 16.8474 45.2355 21.2387 45.2495 25.6329C45.2495 25.9797 45.2327 26.0021 44.9026 26.0049C44.0747 26.0105 43.244 26.0105 42.416 26.0049C42.1363 26.0021 42.1307 25.9909 42.1196 25.7168C42.1168 25.6385 42.1196 25.5602 42.1196 25.4791C42.1196 19.3899 42.1196 13.3007 42.1196 7.20872C42.1196 6.59337 42.0524 6.67169 42.6734 6.67169C43.9236 6.66889 45.1711 6.67169 46.4214 6.66889C46.9612 6.66889 46.8606 6.66889 47.0144 7.06048C47.9262 9.39601 48.88 11.7148 49.7807 14.0559C50.382 15.6139 51.0365 17.1522 51.6491 18.7046C51.9372 19.4346 52.2085 20.1703 52.4379 20.9227C52.4742 21.0429 52.519 21.1576 52.5581 21.2751C52.6616 21.2415 52.67 21.1716 52.6896 21.1101C52.9553 20.2514 53.3217 19.4262 53.5847 18.5648C53.6742 18.2739 53.8364 17.9997 53.9483 17.7061C54.1497 17.1746 54.4042 16.6655 54.5664 16.1117C54.6364 15.8712 54.8238 15.6642 54.9049 15.4153C55.0867 14.8643 55.3132 14.3272 55.5314 13.7902C55.716 13.3343 55.9398 12.8867 56.116 12.4252C56.3258 11.8686 56.5383 11.3064 56.7705 10.7638C57.095 10.003 57.4222 9.23938 57.7327 8.47299C57.9425 7.95833 58.1858 7.45766 58.3313 6.91783C58.3788 6.73602 58.5466 6.6633 58.7592 6.6633C59.864 6.67169 60.9689 6.66889 62.0737 6.66889C62.3115 6.66889 62.5464 6.67728 62.7842 6.66609C62.9744 6.6577 63.0499 6.73602 63.0303 6.92062C63.0219 6.99894 63.0303 7.07726 63.0303 7.15837C63.0303 13.2755 63.0303 19.3899 63.0303 25.507C63.0303 26.0413 63.0667 26.0049 62.5464 26.0049C61.7185 26.0049 60.8878 26.0077 60.0598 26.0049C59.7074 26.0049 59.7074 25.9993 59.7018 25.6609C59.699 25.3979 59.7018 25.135 59.7018 24.8721C59.7018 21.2947 59.7018 17.7172 59.7018 14.1398C59.7018 12.9175 59.7689 11.6952 59.8417 10.4757C59.8445 10.4253 59.8417 10.375 59.8417 10.3162C59.6906 10.347 59.7298 10.4617 59.7158 10.5372C59.5648 11.3567 59.2403 12.1175 58.9298 12.8839C58.4124 14.1594 57.8921 15.432 57.3775 16.7075C56.4405 19.0263 55.5062 21.345 54.5692 23.6638C54.2895 24.3574 54.0014 25.0455 53.7301 25.742C53.6574 25.9266 53.5623 26.0133 53.3581 26.0105C52.7931 25.9993 52.2281 26.0021 51.6603 26.0077C51.4729 26.0105 51.3722 25.9322 51.3135 25.7588C51.1456 25.2777 50.9135 24.8274 50.7177 24.3603C50.4632 23.7561 50.1751 23.1659 49.9597 22.545C49.7499 21.9408 49.5345 21.3366 49.2436 20.7632C49.0898 20.4611 48.9583 20.1535 48.8828 19.8234C48.8045 19.4906 48.5528 19.2333 48.4772 18.906C48.3961 18.5508 48.1528 18.2627 48.1024 17.8963C48.0577 17.583 47.8004 17.3564 47.7053 17.0543C47.585 16.6739 47.4535 16.2879 47.2829 15.9383C47.0563 15.474 46.8717 14.9901 46.6955 14.5146C46.455 13.8629 46.055 13.2783 45.9096 12.5875C45.8508 12.3105 45.6634 12.0812 45.5599 11.8155C45.4005 11.4015 45.3949 10.9568 45.2662 10.54C45.2439 10.4673 45.2215 10.3946 45.1991 10.3246C45.1683 10.3274 45.1404 10.3302 45.1152 10.3302Z" fill="white"/>
<path d="M139.715 14.8391C139.661 14.9846 139.687 15.13 139.687 15.2727C139.684 18.6907 139.687 22.1115 139.684 25.5295C139.684 26.0441 139.737 26.0022 139.225 26.005C138.408 26.0106 137.594 26.0078 136.778 26.005C136.411 26.005 136.408 25.9994 136.406 25.633C136.403 23.9631 136.406 22.2933 136.406 20.6234C136.406 18.8082 136.406 16.9929 136.406 15.1776C136.406 14.8084 136.403 14.8056 136.045 14.8028C135.505 14.8 134.965 14.8056 134.428 14.8C134.126 14.7972 134.115 14.7888 134.112 14.4895C134.107 13.807 134.107 13.1218 134.112 12.4393C134.115 12.1484 134.121 12.1456 134.437 12.1428C134.988 12.14 135.541 12.1456 136.092 12.14C136.395 12.1372 136.403 12.1344 136.406 11.8351C136.414 11.1638 136.422 10.4925 136.417 9.82404C136.414 9.35973 136.593 8.92059 136.61 8.46187C136.94 7.92204 137.133 7.31508 137.583 6.8284C138.47 5.8718 139.566 5.40189 140.828 5.28442C141.547 5.21729 142.274 5.21729 142.979 5.43266C143.298 5.53056 143.298 5.53056 143.3 5.85782C143.303 6.52911 143.3 7.2004 143.3 7.8689C143.3 8.33601 143.27 8.34999 142.842 8.18776C142.545 8.07588 142.249 7.96399 141.919 7.94162C140.775 7.8605 139.958 8.48425 139.759 9.61426C139.687 10.031 139.681 10.4506 139.684 10.8729C139.687 11.2142 139.692 11.5582 139.681 11.8995C139.675 12.0897 139.748 12.154 139.936 12.1484C140.212 12.1372 140.487 12.1456 140.764 12.1456C141.894 12.1456 143.026 12.1456 144.156 12.1456C144.579 12.1456 144.57 12.1847 144.57 11.7456C144.57 10.9289 144.576 10.1149 144.565 9.29819C144.562 9.094 144.626 8.99051 144.825 8.93178C145.765 8.65207 146.699 8.36398 147.639 8.07868C147.686 8.06469 147.739 8.06469 147.787 8.0591C147.86 8.20734 147.829 8.35559 147.829 8.49824C147.832 9.58909 147.829 10.6799 147.832 11.7736C147.832 12.14 147.834 12.1428 148.195 12.1428C149.062 12.1428 149.932 12.1428 150.799 12.1428C151.124 12.1428 151.129 12.1484 151.129 12.4645C151.132 13.1357 151.132 13.807 151.129 14.4755C151.127 14.7944 151.121 14.8 150.797 14.8C149.929 14.8028 149.06 14.8 148.192 14.8028C147.837 14.8028 147.832 14.8056 147.832 15.1356C147.832 17.267 147.834 19.3956 147.84 21.5269C147.84 21.9101 147.893 22.2849 148.025 22.6513C148.223 23.1995 148.623 23.4904 149.185 23.5939C149.795 23.7086 150.357 23.5743 150.9 23.303C150.956 23.2751 151.003 23.2191 151.09 23.2359C151.166 23.317 151.129 23.4261 151.129 23.524C151.132 24.1673 151.132 24.8134 151.132 25.4568C151.132 25.8064 150.953 26.0637 150.612 26.0889C150.232 26.1197 149.868 26.2315 149.493 26.2847C148.805 26.3798 148.134 26.3155 147.454 26.2204C146.939 26.1476 146.458 25.9994 146.053 25.6861C145.421 25.1966 144.973 24.5869 144.8 23.7701C144.623 22.9394 144.57 22.1059 144.573 21.264C144.576 19.1998 144.576 17.1355 144.581 15.0713C144.581 14.9091 144.587 14.7972 144.366 14.7972C142.853 14.8056 141.342 14.8028 139.829 14.8056C139.79 14.8084 139.751 14.828 139.715 14.8391Z" fill="white"/>
<path d="M93.171 19.2053C93.1626 18.4781 93.2577 17.7928 93.3807 17.1047C93.6073 15.8488 94.2115 14.786 95.0366 13.8518C95.4142 13.4238 95.8981 13.0881 96.3988 12.7945C97.4644 12.1735 98.628 11.905 99.8419 11.8323C100.829 11.7735 101.817 11.8239 102.773 12.1008C104.98 12.7385 106.407 14.1818 107.036 16.3747C107.539 18.1312 107.525 19.9074 106.986 21.6583C106.491 23.2582 105.54 24.5253 104.085 25.3896C103.758 25.5826 103.411 25.742 103.053 25.8679C101.467 26.4273 99.8503 26.4748 98.2196 26.1252C97.8896 26.0553 97.5344 26.0665 97.2323 25.9014C96.8826 25.7112 96.4966 25.591 96.1918 25.3224C96.0911 25.2329 95.9428 25.2497 95.8393 25.1602C95.2743 24.6735 94.7149 24.1812 94.2982 23.5575C93.7835 22.7883 93.5038 21.924 93.3276 21.0206C93.2101 20.4136 93.1598 19.7983 93.171 19.2053ZM96.5526 18.892C96.5302 19.5381 96.5666 20.0388 96.6673 20.5255C96.891 21.622 97.3665 22.5674 98.3735 23.1491C99.1511 23.5995 99.9986 23.6974 100.885 23.6023C102.331 23.4512 103.254 22.6652 103.682 21.3059C104.127 19.8934 104.127 18.4585 103.741 17.032C103.551 16.3355 103.193 15.7258 102.619 15.2643C101.85 14.6433 100.952 14.4503 99.993 14.5202C98.5329 14.6293 97.512 15.3649 96.9498 16.7243C96.6421 17.4655 96.5442 18.2431 96.5526 18.892Z" fill="white"/>
<path d="M119.562 19.2221C119.576 18.4445 119.693 17.6809 119.819 16.9117C119.928 16.2293 120.216 15.6195 120.538 15.0545C120.963 14.3077 121.567 13.6811 122.261 13.1413C123.195 12.4141 124.277 12.0952 125.41 11.919C126.495 11.7512 127.586 11.7596 128.666 11.9777C129.941 12.2379 131.077 12.7721 131.975 13.7371C132.766 14.5874 133.292 15.5887 133.541 16.7243C133.933 18.5172 133.905 20.3017 133.261 22.0359C132.576 23.8876 131.304 25.1826 129.444 25.8679C128.056 26.3769 126.624 26.4441 125.172 26.2315C124.781 26.1728 124.381 26.1672 124.003 26.0133C123.491 25.8036 122.996 25.563 122.498 25.3225C122.255 25.205 122.121 24.9672 121.905 24.8134C121.519 24.5365 121.234 24.1505 120.896 23.8204C120.731 23.661 120.641 23.4317 120.529 23.2331C120.272 22.7744 120.04 22.2877 119.883 21.787C119.741 21.3311 119.696 20.8416 119.637 20.3633C119.587 19.9857 119.584 19.6025 119.562 19.2221ZM122.94 19.0011C122.946 19.9018 123.03 20.6822 123.338 21.4234C123.693 22.2821 124.249 22.9562 125.122 23.3254C125.841 23.6303 126.591 23.6946 127.362 23.5967C128.604 23.44 129.508 22.8191 129.961 21.6443C130.574 20.0556 130.59 18.4277 130.073 16.8166C129.692 15.6335 128.865 14.8699 127.623 14.6014C127.248 14.5203 126.867 14.4867 126.487 14.5119C125.013 14.607 123.961 15.3062 123.377 16.6796C123.044 17.46 122.957 18.2767 122.94 19.0011Z" fill="white"/>
<path d="M117.416 15.3789C117.091 15.323 116.868 15.1831 116.661 15.0321C116.345 14.8027 115.995 14.6769 115.617 14.6517C115.492 14.6433 115.441 14.551 115.343 14.5314C114.652 14.4028 113.959 14.3161 113.276 14.5314C112.762 14.6937 112.362 15.0041 112.281 15.5859C112.188 16.246 112.404 16.7747 112.994 17.1215C113.581 17.4655 114.211 17.7173 114.834 17.9858C115.69 18.355 116.521 18.769 117.181 19.4542C117.637 19.9297 117.933 20.4948 118.059 21.1381C118.47 23.2526 117.419 25.1043 115.382 25.8735C114.11 26.3518 112.798 26.4441 111.464 26.2455C111.131 26.1951 110.79 26.2007 110.465 26.0916C110.211 26.0077 109.945 25.9462 109.696 25.8483C109.539 25.7868 109.372 25.7924 109.212 25.7168C109.058 25.6441 108.969 25.5686 108.969 25.412C108.966 24.4414 108.966 23.4736 108.966 22.4779C109.134 22.503 109.229 22.5925 109.335 22.6597C110.53 23.4093 111.811 23.8344 113.237 23.7309C113.514 23.7114 113.785 23.661 114.043 23.5547C114.759 23.261 115.092 22.5086 114.764 21.8122C114.594 21.4485 114.286 21.1521 113.906 20.9954C113.727 20.9199 113.542 20.8444 113.38 20.7465C112.955 20.4864 112.51 20.2906 112.029 20.1507C111.769 20.0752 111.531 19.9185 111.285 19.7983C110.681 19.5018 110.149 19.1046 109.724 18.59C109.372 18.162 109.112 17.6753 109.044 17.0991C108.98 16.5369 108.921 15.9775 109.002 15.4125C109.148 14.3972 109.674 13.6196 110.451 12.9847C111.223 12.3553 112.124 12.0393 113.095 11.8966C114.445 11.698 115.763 11.8686 117.052 12.291C117.497 12.4364 117.408 12.4336 117.408 12.7777C117.419 13.6308 117.416 14.4839 117.416 15.3789Z" fill="white"/>
<path d="M82.4753 15.5915C82.2431 15.5747 82.0725 15.474 81.9214 15.3622C81.0012 14.6853 79.9607 14.4447 78.8419 14.5314C76.6015 14.7021 75.326 16.4139 75.0966 18.2236C74.982 19.1214 75.0099 20.0053 75.2673 20.878C75.726 22.4331 76.9735 23.4345 78.5874 23.6051C79.8097 23.7337 80.8949 23.3785 81.9326 22.7883C82.0361 22.7296 82.12 22.6485 82.1984 22.559C82.2543 22.4947 82.341 22.4807 82.4165 22.5058C82.4948 22.531 82.4753 22.6121 82.4753 22.6737C82.4753 23.5156 82.4697 24.3575 82.4809 25.1994C82.4837 25.4008 82.3578 25.4735 82.2179 25.5462C81.6082 25.8623 80.9621 26.0749 80.2852 26.1924C79.0824 26.4021 77.8825 26.3993 76.6826 26.142C76.2266 26.0441 75.8099 25.8679 75.3819 25.7001C75.0743 25.5798 74.7918 25.4483 74.526 25.2525C73.5079 24.4945 72.638 23.6051 72.1821 22.3996C71.7765 21.3311 71.6199 20.2095 71.6619 19.0627C71.687 18.3914 71.8213 17.7341 71.8856 17.0684C71.8912 16.9957 71.9444 16.9285 71.9667 16.8558C72.3387 15.6363 72.9597 14.5706 73.8883 13.6895C74.5009 13.1077 75.2113 12.6854 75.9945 12.3749C77.3035 11.8547 78.6573 11.7316 80.0474 11.8798C80.8194 11.9638 81.5718 12.1148 82.2795 12.456C82.3997 12.5148 82.4781 12.5679 82.4781 12.7106C82.4725 13.6644 82.4753 14.6209 82.4753 15.5915Z" fill="white"/>
<path d="M88.2635 14.4392C88.325 14.3105 88.3921 14.1818 88.4481 14.0504C88.7725 13.2896 89.3292 12.7162 90.0172 12.2966C90.3781 12.0757 90.8116 11.9666 91.2479 11.9274C91.7626 11.8799 92.2689 11.8995 92.7695 12.0561C92.9234 12.1036 92.9793 12.182 92.9793 12.3358C92.9765 13.256 92.9821 14.1762 92.9737 15.0965C92.9709 15.351 92.9318 15.365 92.6912 15.2839C92.3024 15.1496 91.9388 14.9398 91.522 14.8867C90.5039 14.7608 89.6732 15.0909 89.0495 15.9132C88.381 16.7943 88.1936 17.8152 88.1908 18.8865C88.1852 21.043 88.1908 23.1995 88.1852 25.3561C88.1824 26.0246 88.3138 26.0078 87.5251 26.0078C86.7755 26.0078 86.0258 26.0106 85.2762 26.0078C84.9518 26.005 84.9518 25.9994 84.9434 25.6749C84.9406 25.6106 84.9434 25.5435 84.9434 25.4763C84.9434 21.1885 84.9434 16.9034 84.9434 12.6155C84.9434 12.0952 84.9098 12.1428 85.4049 12.14C86.2077 12.1372 87.0104 12.1372 87.8104 12.14C88.1824 12.14 88.1852 12.1456 88.188 12.5064C88.1908 13.0463 88.188 13.5861 88.188 14.1231C88.188 14.2266 88.188 14.3273 88.188 14.4308C88.2159 14.4364 88.2411 14.4364 88.2635 14.4392Z" fill="white"/>
<path d="M66.1683 19.0459C66.1683 16.9174 66.1683 14.786 66.1683 12.6574C66.1683 12.5651 66.1739 12.4728 66.1683 12.3805C66.1599 12.2211 66.2131 12.14 66.3893 12.14C67.3095 12.1456 68.2297 12.1456 69.15 12.14C69.329 12.14 69.4241 12.2015 69.4101 12.3917C69.4045 12.47 69.4101 12.5484 69.4101 12.6295C69.4101 16.9146 69.4101 21.1996 69.4101 25.4875C69.4101 26.0106 69.4632 26.0106 68.9038 26.0106C68.1151 26.0078 67.3263 26.0106 66.5375 26.0106C66.1767 26.0106 66.1711 26.005 66.1711 25.6358C66.1655 23.4373 66.1683 21.2416 66.1683 19.0459Z" fill="white"/>
<path d="M67.7823 10.017C66.6998 10.1177 65.8327 9.07718 65.8411 8.14576C65.8495 7.00456 66.9264 6.23817 67.8578 6.24936C68.9123 6.26055 69.8073 7.19477 69.8101 8.17653C69.8129 9.03243 68.9598 10.1177 67.7823 10.017Z" fill="white"/>
</svg>
