<svg width="133" height="33" viewBox="0 0 133 33" fill="none" xmlns="http://www.w3.org/2000/svg">
<path d="M66.5215 32.839C50.3942 32.839 34.264 32.839 18.1367 32.839C15.1512 32.839 12.2638 32.3484 9.57541 30.9973C4.77057 28.5836 1.81308 24.7403 0.871172 19.4309C0.139513 15.3044 0.893608 11.4247 3.15867 7.88972C5.44335 4.32112 8.72881 2.10652 12.7908 1.00483C14.5681 0.522661 16.3874 0.32923 18.218 0.326427C50.4278 0.318017 82.6376 0.315213 114.847 0.326427C117.909 0.326427 120.883 0.847843 123.633 2.27472C128.34 4.72199 131.23 8.5513 132.177 13.7794C132.873 17.6087 132.259 21.2502 130.33 24.6394C128.441 27.9585 125.64 30.232 122.094 31.6028C119.781 32.497 117.373 32.8362 114.906 32.8362C98.7762 32.8362 82.6488 32.839 66.5215 32.839ZM66.5187 4.32953C50.4026 4.32953 34.2864 4.32954 18.1675 4.32673C16.7042 4.32673 15.2577 4.45288 13.842 4.82572C10.6967 5.6583 8.14573 7.34307 6.42171 10.1464C4.87149 12.6665 4.37249 15.425 4.76776 18.3376C5.26674 22.0295 7.06925 24.9141 10.2454 26.8932C12.5805 28.3481 15.1708 28.8836 17.8872 28.8836C50.3073 28.8864 82.7274 28.8864 115.147 28.8836C116.527 28.8836 117.892 28.7462 119.229 28.3958C122.369 27.5744 124.903 25.8897 126.624 23.1004C128.04 20.8045 128.589 18.2815 128.357 15.6044C127.959 11.0406 125.713 7.70751 121.589 5.68633C119.498 4.66313 117.253 4.32393 114.94 4.32393C98.7986 4.33234 82.6573 4.32953 66.5187 4.32953Z" fill="white"/>
<path d="M29.7116 24.1993C28.195 24.1993 26.7177 24.2049 25.2376 24.1881C25.117 24.1853 24.9572 24.0479 24.8816 23.9302C23.3762 21.5221 21.8792 19.1057 20.3795 16.6921C19.7487 15.6745 19.1152 14.6569 18.4116 13.6505C18.4116 17.1518 18.4116 20.6531 18.4116 24.1768C16.8165 24.1768 15.2747 24.1768 13.7104 24.1768C13.7104 19.1113 13.7104 14.0598 13.7104 8.96899C13.8366 8.96058 13.9571 8.94655 14.0805 8.94655C15.4205 8.94375 16.7604 8.95216 18.1004 8.93815C18.3555 8.93534 18.49 9.02225 18.6218 9.2381C20.671 12.5712 22.7314 15.8987 24.7862 19.2262C24.8451 19.3243 24.9124 19.4169 25.0413 19.501C25.0413 15.9968 25.0413 12.4955 25.0413 8.96899C26.6224 8.96899 28.153 8.96899 29.7116 8.96899C29.7116 14.0401 29.7116 19.1001 29.7116 24.1993Z" fill="white"/>
<path d="M100.247 14.5952C100.247 12.6665 100.247 10.8276 100.247 8.96899C101.75 8.96899 103.225 8.96899 104.719 8.96899C104.719 14.0458 104.719 19.1057 104.719 24.1768C103.219 24.1768 101.744 24.1768 100.256 24.1768C100.242 24.0002 100.231 23.8405 100.214 23.6302C98.5991 24.5553 96.9312 24.7824 95.2016 24.1124C94.1279 23.6975 93.2785 22.9827 92.6506 22.0155C91.3891 20.0756 91.5236 17.5919 92.9841 15.7474C93.5504 15.0297 94.2428 14.4747 95.0754 14.0962C95.8996 13.7234 96.7658 13.586 97.6656 13.6673C98.5711 13.7542 99.3925 14.099 100.247 14.5952ZM100.253 19.0833C100.256 19.0833 100.259 19.0833 100.261 19.0833C100.261 18.4413 100.261 17.8022 100.261 17.1602C100.261 17.0789 100.256 16.9976 100.247 16.9163C100.152 15.9296 99.4345 15.2736 98.4506 15.2764C97.4582 15.2764 96.6985 15.924 96.6649 16.9163C96.6172 18.36 96.6256 19.8065 96.6621 21.2502C96.6817 22.052 97.2003 22.6266 97.9292 22.8229C99.1205 23.1424 100.172 22.4136 100.245 21.1829C100.287 20.4821 100.253 19.7813 100.253 19.0833Z" fill="white"/>
<path d="M44.0586 14.0878C44.0586 14.4186 44.0586 14.7298 44.0586 15.1335C44.2128 15.0129 44.3081 14.9428 44.3978 14.8671C46.6152 13.0254 49.968 13.2412 51.7817 15.3409C52.4293 16.0894 52.8357 16.964 52.861 17.9395C52.917 19.9775 52.8918 22.0155 52.9002 24.0535C52.9002 24.0872 52.8834 24.118 52.8666 24.1713C51.3948 24.1713 49.9203 24.1713 48.4093 24.1713C48.4009 24.0227 48.3869 23.8769 48.3869 23.7311C48.3841 21.7632 48.3869 19.7925 48.3841 17.8246C48.3841 16.7818 47.8711 16.0473 46.9488 15.753C46.0097 15.453 44.8996 15.8006 44.3894 16.6248C44.1988 16.9332 44.0811 17.3396 44.0754 17.7041C44.0474 19.7196 44.0642 21.7352 44.0642 23.7508C44.0642 23.8797 44.0642 24.0059 44.0642 24.1657C42.5645 24.1657 41.0815 24.1657 39.5649 24.1657C39.5649 20.8213 39.5649 17.463 39.5649 14.0878C41.0535 14.0878 42.5308 14.0878 44.0586 14.0878Z" fill="white"/>
<path d="M85.7598 24.1768C85.7598 22.8649 85.7598 21.595 85.7598 20.3279C85.7598 19.4533 85.7626 18.5815 85.7598 17.7069C85.757 16.5267 84.8404 15.652 83.6181 15.6548C82.3931 15.6604 81.4316 16.5631 81.4316 17.7209C81.4288 19.7252 81.4344 21.7296 81.4344 23.7339C81.4344 23.8713 81.4344 24.0115 81.4344 24.1741C79.929 24.1741 78.4545 24.1741 76.9463 24.1741C76.9463 20.8297 76.9463 17.4742 76.9463 14.0934C78.4264 14.0934 79.901 14.0934 81.4204 14.0934C81.4204 14.413 81.4204 14.7298 81.4204 15.1418C81.5773 15.0213 81.6642 14.9568 81.7483 14.8895C84.0022 13.0001 87.4418 13.2496 89.2275 15.4306C89.9115 16.266 90.2563 17.2387 90.2731 18.2983C90.3068 20.2074 90.2844 22.1192 90.2872 24.0311C90.2872 24.0759 90.276 24.1208 90.2648 24.1825C88.7678 24.1768 87.2848 24.1768 85.7598 24.1768Z" fill="white"/>
<path d="M112.961 24.7599C111.259 24.7403 109.703 24.2666 108.36 23.1901C105.661 21.0288 105.574 17.3957 108.159 15.1138C110.822 12.7618 115.301 12.8095 117.914 15.2147C120.356 17.463 120.246 21.0119 117.662 23.134C116.299 24.2553 114.715 24.7431 112.961 24.7599ZM111.057 19.0384C111.054 19.0384 111.051 19.0384 111.049 19.0384C111.049 19.8177 111.026 20.5998 111.06 21.3792C111.074 21.7324 111.15 22.1024 111.287 22.4248C111.587 23.1312 112.156 23.5069 112.93 23.5125C113.703 23.5181 114.292 23.1564 114.581 22.4444C114.746 22.0351 114.825 21.567 114.836 21.1241C114.867 19.7505 114.85 18.3768 114.844 17.0032C114.844 16.7481 114.822 16.4902 114.777 16.2407C114.55 15.0017 113.434 14.298 112.321 14.7129C111.461 15.0325 111.11 15.7389 111.066 16.5995C111.023 17.4069 111.057 18.2227 111.057 19.0384Z" fill="white"/>
<path d="M70.6585 20.7092C72.1947 20.7092 73.6776 20.7092 75.197 20.7092C74.8999 21.5698 74.4121 22.265 73.7842 22.8733C71.1322 25.4467 66.3078 25.4523 63.6502 22.8873C61.388 20.7036 61.4048 17.4966 63.6867 15.3269C66.49 12.6609 71.4798 12.8375 74.0813 15.6997C74.8298 16.5239 75.2951 17.4854 75.4437 18.5927C75.4661 18.7637 75.4633 18.9375 75.4745 19.1618C74.0224 19.1618 72.5927 19.1618 71.1631 19.1618C69.7306 19.1618 68.3009 19.1618 66.8096 19.1618C66.8096 19.4561 66.8068 19.7196 66.8096 19.9831C66.8208 20.5774 66.7927 21.1745 66.8572 21.7632C66.9806 22.8873 67.7683 23.5994 68.7943 23.5797C69.8091 23.5601 70.5632 22.7948 70.6529 21.6735C70.6781 21.3623 70.6585 21.0484 70.6585 20.7092ZM68.7382 17.62C69.2961 17.62 69.8539 17.6143 70.4118 17.6227C70.622 17.6255 70.7089 17.5527 70.6949 17.3424C70.6725 17.0284 70.6837 16.7117 70.6445 16.4033C70.5099 15.3605 69.7362 14.6597 68.7522 14.6597C67.7795 14.6625 66.9946 15.3661 66.8684 16.3725C66.8292 16.6836 66.8348 17.0004 66.8068 17.3116C66.7815 17.5667 66.8993 17.6283 67.1319 17.6227C67.6674 17.6115 68.2028 17.62 68.7382 17.62Z" fill="white"/>
<path d="M60.0509 24.1796C58.4923 24.1796 57.0065 24.1796 55.4871 24.1796C55.4871 20.8101 55.4871 17.4629 55.4871 14.071C54.6489 14.071 53.8388 14.071 53.0034 14.071C53.0034 13.572 53.0034 13.1122 53.0034 12.5908C53.8108 12.5908 54.6265 12.5908 55.4787 12.5908C55.4787 11.8732 55.4787 11.2144 55.4787 10.5332C57.0009 10.5332 58.4838 10.5332 60.0369 10.5332C60.0369 10.9901 60.0313 11.4471 60.0369 11.9068C60.0453 12.6805 59.9276 12.5684 60.6985 12.5768C61.2928 12.5824 61.8843 12.5768 62.5038 12.5768C62.5038 13.0702 62.5038 13.5383 62.5038 14.0429C61.6936 14.0429 60.8947 14.0429 60.0509 14.0429C60.0509 17.4377 60.0509 20.7961 60.0509 24.1796Z" fill="white"/>
<path d="M36.9439 24.1824C35.4161 24.1824 33.9303 24.1824 32.4277 24.1824C32.4277 20.8129 32.4277 17.4657 32.4277 14.0934C33.9359 14.0934 35.4301 14.0934 36.9439 14.0934C36.9439 17.4601 36.9439 20.8073 36.9439 24.1824Z" fill="white"/>
<path d="M32.4336 8.96338C33.939 8.96338 35.4247 8.96338 36.9385 8.96338C36.9385 9.98378 36.9385 10.9874 36.9385 12.0078C35.4359 12.0078 33.9502 12.0078 32.4336 12.0078C32.4336 11.007 32.4336 10.0062 32.4336 8.96338Z" fill="white"/>
</svg>
