<svg width="87" height="46" viewBox="0 0 87 46" fill="none" xmlns="http://www.w3.org/2000/svg">
<path d="M0.0166016 0.0712891C28.8817 0.0712891 57.7468 0.0712891 86.612 0.0712891C86.612 15.0876 86.612 30.1078 86.612 45.1241C57.7468 45.1241 28.8817 45.1241 0.0166016 45.1241C0.0244368 40.8969 0.0361849 36.6698 0.0361849 32.4427C0.0361849 21.6535 0.0244368 10.8604 0.0166016 0.0712891ZM54.2954 24.8464C54.6989 24.8464 55.0985 24.8464 55.4981 24.8464C57.4178 24.8503 59.3413 24.8151 61.257 24.8777C62.1307 24.9052 62.3971 24.5996 62.35 23.7495C62.2874 22.6525 62.307 21.5478 62.3461 20.4508C62.3736 19.7652 62.0993 19.5458 61.4451 19.5576C59.6978 19.585 57.9466 19.538 56.1994 19.585C55.7058 19.5968 55.1769 19.7535 54.7303 19.9729C52.9203 20.8622 52.4384 22.4331 52.4933 24.341C52.5677 27.052 54.076 28.6152 56.7909 28.6426C58.1621 28.6543 59.5333 28.6465 60.9044 28.6465C61.449 28.6465 62.0249 28.7601 62.0406 27.8826C62.0562 26.9345 61.4294 27.0677 60.8535 27.0638C59.3452 27.056 57.833 27.0951 56.3287 27.0403C55.0123 26.9894 54.3267 26.2489 54.2954 24.8464ZM3.65216 23.248C3.65216 24.7955 3.66783 26.3429 3.64433 27.8904C3.63649 28.5172 3.80103 28.8345 4.51404 28.8306C5.25056 28.8267 5.3485 28.4506 5.34458 27.8512C5.32499 25.8924 5.32891 23.9297 5.32891 21.9709C5.32891 19.303 5.32891 19.303 8.02424 19.299C11.0251 19.2951 11.5736 19.8632 11.4678 22.8719C11.413 24.435 10.6569 25.2029 9.10551 25.2499C8.38466 25.2695 7.65598 25.1951 6.94689 25.293C6.71183 25.3244 6.35533 25.7631 6.36708 25.9982C6.38275 26.2998 6.6609 26.7073 6.93122 26.8366C7.24071 26.9815 7.67166 26.8365 8.04775 26.8718C11.0487 27.146 13.4737 25.7279 13.172 21.6496C13.0035 19.3813 11.5266 17.7437 9.25437 17.7085C7.71474 17.685 6.1712 17.7281 4.63157 17.6771C3.84413 17.6497 3.6169 17.9631 3.63649 18.7075C3.67958 20.2236 3.65216 21.7358 3.65216 23.248ZM45.0772 24.1491H45.0733C45.0733 22.9816 45.0302 21.8102 45.089 20.6428C45.1281 19.8514 44.9127 19.5263 44.0586 19.5654C42.6208 19.632 41.1753 19.5576 39.7375 19.6007C39.1655 19.6163 38.5661 19.6947 38.0333 19.8945C35.6671 20.7838 35.1186 23.1344 35.8042 26.0256C36.1803 27.6083 37.5789 28.623 39.1929 28.7131C40.0156 28.7562 40.8383 28.7131 41.661 28.7366C42.1821 28.7523 42.4054 28.5682 42.3819 28.0158C42.3584 27.4869 42.3466 27.056 41.6297 27.0873C40.8775 27.1225 40.1175 27.1186 39.3653 27.0794C38.0568 27.0128 37.285 26.2097 37.238 24.9091C37.2224 24.4625 37.2224 24.0159 37.2341 23.5692C37.2733 22.1158 38.0764 21.2657 39.5259 21.203C40.4857 21.1599 41.4495 21.2383 42.4054 21.1795C43.1889 21.1325 43.4122 21.4302 43.3965 22.1863C43.3535 24.1099 43.3926 26.0374 43.3691 27.9648C43.3613 28.5564 43.6159 28.7484 44.1722 28.7484C44.7285 28.7484 45.0968 28.6583 45.0811 27.9688C45.0537 26.6916 45.0772 25.4184 45.0772 24.1491ZM75.3723 19.8318C75.3723 19.5027 75.3527 18.9621 75.3762 18.4215C75.4036 17.8221 75.1137 17.6458 74.5613 17.6458C74.0168 17.6497 73.6211 17.7202 73.625 18.4097C73.6407 21.6104 73.6407 24.8151 73.6289 28.0158C73.625 28.7288 74.0599 28.7484 74.5848 28.7523C75.1411 28.7601 75.4036 28.5642 75.3801 27.9688C75.3488 27.1108 75.4154 26.245 75.3644 25.387C75.098 20.9954 76.6651 21.1246 79.8227 21.2147C81.4093 21.2618 82.1733 22.1197 82.185 23.722C82.1968 25.1324 82.2085 26.5466 82.1811 27.957C82.1693 28.623 82.4984 28.7719 83.0743 28.7562C83.5915 28.7444 83.9323 28.6426 83.9205 28.0118C83.8931 26.3939 83.9715 24.772 83.8735 23.1579C83.756 21.25 82.283 19.73 80.4299 19.6634C78.8119 19.6085 77.1861 19.7652 75.3723 19.8318ZM23.5812 24.1882C23.5851 24.1882 23.5851 24.1882 23.589 24.1882C23.589 22.9503 23.5577 21.7123 23.6007 20.4743C23.6243 19.7809 23.3539 19.5811 22.6958 19.5929C21.1522 19.6281 19.6087 19.5811 18.0651 19.6085C16.2043 19.6438 14.5824 20.729 14.2768 22.3548C14.0691 23.4791 14.0574 24.6975 14.2494 25.8219C14.5197 27.4007 15.6754 28.3292 17.2228 28.5799C18.2297 28.7405 19.2757 28.6778 20.3021 28.6269C20.4941 28.6191 20.8192 28.196 20.8114 27.9727C20.7996 27.6867 20.5724 27.3145 20.3256 27.1617C20.1023 27.0207 19.7262 27.1186 19.4167 27.1186C15.9849 27.1147 15.648 26.766 15.7655 23.3185C15.8086 21.9983 16.5568 21.2304 17.8967 21.1873C18.927 21.1521 19.9573 21.2187 20.9838 21.1599C21.7947 21.1129 21.9632 21.4616 21.9475 22.1903C21.9044 24.0825 21.9475 25.9747 21.9162 27.8669C21.9044 28.529 22.21 28.6818 22.7937 28.6818C23.3579 28.6818 23.6007 28.4937 23.589 27.9021C23.5616 26.6681 23.5812 25.4262 23.5812 24.1882ZM24.5684 25.6182C24.5567 25.6182 24.5449 25.6182 24.5292 25.6182C24.5292 26.3743 24.5723 27.1343 24.5175 27.8865C24.4665 28.5251 24.6938 28.7405 25.3206 28.7484C25.9788 28.7601 26.1472 28.4741 26.1198 27.8747C26.0845 27.052 26.1472 26.2215 26.1041 25.3988C25.9004 21.5203 26.8641 21.0776 30.4488 21.1991C32.1764 21.2578 33.0305 22.1041 33.0462 23.8317C33.0579 25.2068 33.0736 26.5819 33.0383 27.957C33.0227 28.6347 33.3478 28.7444 33.9237 28.7484C34.5309 28.7523 34.7895 28.5682 34.7738 27.9178C34.7307 26.4056 34.7738 24.8895 34.7307 23.3773C34.6759 21.395 33.1363 19.7731 31.1579 19.6438C30.1001 19.5733 29.0267 19.5733 27.9689 19.6438C26.1668 19.7613 24.7447 21.1442 24.5802 22.9346C24.5018 23.8278 24.5684 24.725 24.5684 25.6182ZM72.5124 28.6661C72.8376 27.146 72.7827 27.0755 71.4585 27.0677C69.9463 27.0559 68.4341 27.0912 66.9259 27.0168C65.731 26.958 64.9827 26.151 64.8926 24.9678C64.8573 24.5212 64.8573 24.0746 64.8691 23.628C64.9122 21.9865 65.7271 21.1638 67.3607 21.1442C68.8729 21.1246 70.3851 21.1247 71.8934 21.1364C72.4536 21.1403 72.6887 20.9248 72.6926 20.3411C72.6926 19.7496 72.4458 19.5537 71.8895 19.5615C70.2049 19.5811 68.5242 19.5341 66.8397 19.585C65.0807 19.6399 63.5489 21.0424 63.3491 22.7975C63.2511 23.6789 63.2668 24.5878 63.353 25.4732C63.4783 26.7817 64.2383 27.7141 65.4371 28.196C67.7603 29.1284 70.1736 28.431 72.5124 28.6661ZM46.7775 21.8141C46.7775 22.8797 46.754 23.9453 46.7814 25.0109C46.8323 27.0559 48.5561 28.6857 50.605 28.6778C51.1025 28.6778 51.4708 28.6387 51.4825 27.9844C51.4943 27.3811 51.3219 27.1578 50.6794 27.103C48.7911 26.9462 48.274 26.1353 48.4307 23.5144C48.5286 21.869 49.8489 22.9581 50.5541 22.6525C50.6128 22.629 50.6912 22.6447 50.7578 22.6486C51.3062 22.6917 51.5766 22.4801 51.5844 21.8886C51.5922 21.3049 51.3493 21.1051 50.7852 21.1011C50.0409 21.0933 48.9674 21.2853 48.6423 20.8896C48.2427 20.4038 48.462 19.4009 48.4189 18.6213C48.415 18.586 48.4189 18.5508 48.4189 18.5194C48.4699 17.9514 48.2309 17.7163 47.6472 17.7202C47.0752 17.7241 46.7383 17.8456 46.7618 18.5194C46.801 19.6164 46.7735 20.7172 46.7775 21.8141Z" fill="#BCBCBC"/>
<path d="M54.2646 23.2716C54.4762 21.8965 55.0678 21.2305 56.1725 21.1718C57.4693 21.1013 58.7738 21.1522 60.0745 21.1405C60.7483 21.1326 60.7679 21.5949 60.7013 22.0572C60.6426 22.4999 61.0304 23.2364 60.1842 23.2599C58.241 23.3069 56.294 23.2716 54.2646 23.2716Z" fill="#BCBCBC"/>
</svg>
