<svg width="123" height="22" viewBox="0 0 123 22" fill="none" xmlns="http://www.w3.org/2000/svg">
<path d="M21.6126 1.32703C22.5263 1.32703 23.4025 1.32703 24.2904 1.32703C24.2904 3.50576 24.2904 5.67277 24.2904 7.85384C23.4915 7.85384 22.7043 7.85384 21.9102 7.85384C21.8375 7.62894 21.7719 7.39935 21.6876 7.17679C21.2191 5.96326 20.3382 5.15268 19.1832 4.60214C17.7284 3.9087 16.1869 3.52216 14.5938 3.33943C12.8321 3.13561 11.0727 3.17543 9.32976 3.51981C8.45827 3.69083 7.60317 3.91339 6.86053 4.43348C6.46461 4.71226 6.15539 5.06131 6.05465 5.55094C5.90471 6.28187 6.24908 6.89801 7.01047 7.15337C7.49072 7.31502 7.99675 7.42512 8.50043 7.48603C10.5972 7.74373 12.7009 7.95692 14.7977 8.22165C16.5758 8.44421 18.3609 8.65973 20.0992 9.12359C21.369 9.46328 22.5849 9.93418 23.6321 10.7612C25.8647 12.5229 26.3285 15.9198 24.6371 18.1196C24.0139 18.9279 23.194 19.4878 22.3014 19.9493C20.6943 20.7763 18.9677 21.2144 17.1919 21.4674C15.552 21.704 13.9004 21.7673 12.2511 21.5775C9.87092 21.3057 7.56804 20.713 5.35651 19.7853C5.33542 19.7759 5.31435 19.7642 5.29092 19.7549C4.74272 19.5182 4.51314 19.6705 4.51314 20.2703C4.51314 20.5326 4.51314 20.7927 4.51314 21.0691C3.5128 21.0691 2.53823 21.0691 1.54492 21.0691C1.54492 18.5718 1.54492 16.0838 1.54492 13.5771C2.42344 13.5771 3.30428 13.5771 4.15235 13.5771C4.26246 14.0175 4.33509 14.4603 4.48268 14.875C4.8294 15.8472 5.58609 16.4797 6.40839 17.0326C7.3689 17.6769 8.45593 18.0189 9.56638 18.293C11.3398 18.7287 13.132 19.0005 14.9663 18.8904C16.3931 18.806 17.7823 18.5554 19.1012 17.9791C19.7267 17.7073 20.2234 17.3091 20.4249 16.625C20.706 15.6738 20.3382 14.793 19.4105 14.4556C18.7053 14.2003 17.9556 14.0222 17.213 13.9238C15.0155 13.6333 12.8087 13.4155 10.6089 13.139C8.97132 12.9329 7.33376 12.7173 5.73837 12.2816C4.39834 11.9161 3.18012 11.3117 2.23601 10.2739C0.546907 8.41141 0.150998 4.92544 3.03723 2.83105C4.28355 1.92676 5.69153 1.38091 7.16744 1.00608C11.7428 -0.155913 16.1799 0.303265 20.4905 2.18213C20.6592 2.25475 20.8161 2.34845 20.9871 2.41873C21.3503 2.56866 21.6103 2.39531 21.6173 2.00642C21.615 1.78386 21.6126 1.56364 21.6126 1.32703Z" fill="white"/>
<path d="M69.0717 7.20148C69.0717 7.32564 69.0717 7.40061 69.0717 7.47792C69.0717 10.5352 69.0717 13.5901 69.0763 16.6473C69.0763 16.973 69.0928 17.3033 69.1466 17.6242C69.2169 18.0389 69.4418 18.2427 69.8612 18.2685C70.3625 18.3013 70.8662 18.2966 71.3675 18.3013C71.8689 18.306 72.3702 18.3013 72.8856 18.3013C72.8856 19.1002 72.8856 19.8779 72.8856 20.6698C69.2192 20.6698 65.5623 20.6698 61.8936 20.6698C61.8936 19.885 61.8936 19.1142 61.8936 18.3153C61.9779 18.3107 62.0623 18.3036 62.1466 18.3036C62.8728 18.3036 63.5991 18.3036 64.3253 18.3036C65.0094 18.3036 65.2975 18.0436 65.3655 17.3595C65.3842 17.1768 65.3795 16.9917 65.3795 16.809C65.3795 13.0911 65.3795 9.37084 65.3795 5.65295C65.3795 5.50067 65.3795 5.34839 65.3702 5.19846C65.328 4.50501 64.9532 4.08331 64.2644 4.00366C63.8708 3.95681 63.4679 3.96383 63.0696 3.9568C62.6175 3.94978 62.163 3.95447 61.6968 3.95447C61.6968 3.15561 61.6968 2.37782 61.6968 1.56255C61.7717 1.56255 61.8491 1.56255 61.924 1.56255C64.9016 1.56255 67.8769 1.56489 70.8545 1.55786C71.0372 1.55786 71.1497 1.63751 71.2691 1.74528C74.9519 5.07194 78.637 8.39861 82.3197 11.7253C82.9288 12.2758 83.5379 12.824 84.1775 13.4027C84.1822 13.2902 84.1916 13.2152 84.1892 13.1403C84.1424 10.4836 84.0955 7.82699 84.0463 5.17035C84.044 5.02744 84.0229 4.88453 83.9971 4.74397C83.9128 4.31057 83.6691 4.0716 83.2334 4.00366C83.0225 3.97086 82.8047 3.95915 82.5915 3.9568C81.8418 3.94978 81.0921 3.95213 80.3401 3.95213C80.3261 3.95213 80.3097 3.9451 80.2769 3.93573C80.2769 3.16263 80.2769 2.38484 80.2769 1.58832C83.9948 1.58832 87.715 1.58832 91.4563 1.58832C91.4563 2.36142 91.4563 3.13921 91.4563 3.95447C91.3837 3.95447 91.2994 3.95447 91.2174 3.95447C90.4982 3.95447 89.7813 3.95212 89.0621 3.9568C88.0922 3.96383 87.8345 4.20514 87.8392 5.17971C87.8485 7.07029 87.879 8.96086 87.9024 10.8538C87.9423 14.0539 87.9844 17.2541 88.0266 20.4519C88.0266 20.5222 88.0196 20.5901 88.0149 20.6745C87.9235 20.6792 87.8462 20.6862 87.7689 20.6862C86.6514 20.6862 85.5339 20.6909 84.4165 20.6791C84.2829 20.6768 84.1189 20.6136 84.0182 20.5245C80.3237 17.2354 76.6339 13.9391 72.9418 10.6453C71.7213 9.55592 70.5007 8.46655 69.2802 7.37718C69.231 7.32564 69.1701 7.28113 69.0717 7.20148Z" fill="white"/>
<path d="M44.4238 21.9067C41.6617 21.8575 38.9934 21.3913 36.4749 20.2293C34.8795 19.4937 33.4388 18.5332 32.2908 17.1861C30.9813 15.6493 30.2691 13.8618 30.1285 11.8494C29.9317 9.04987 30.7938 6.61579 32.7195 4.57294C33.8558 3.36878 35.2567 2.54648 36.7678 1.90926C39.5697 0.730876 42.4957 0.250621 45.5295 0.388841C47.4435 0.475522 49.3224 0.756645 51.1286 1.41026C53.2582 2.18102 55.1511 3.32895 56.6059 5.08599C58.4356 7.29752 59.0728 9.86984 58.5949 12.6811C58.0186 16.0523 56.0366 18.3926 53.045 19.9388C51.138 20.9251 49.1022 21.4804 46.9773 21.7146C46.1293 21.8083 45.2742 21.8458 44.4238 21.9067ZM44.4191 3.16965C43.4773 3.16496 42.5566 3.29616 41.6594 3.5726C39.6282 4.20045 38.0282 5.37649 37.0489 7.29752C36.2219 8.91868 35.9853 10.65 36.2688 12.4374C36.6413 14.7778 37.7775 16.645 39.8625 17.8374C42.1865 19.1657 44.6651 19.3719 47.2116 18.6152C49.3669 17.9756 50.9904 16.6473 51.958 14.5998C52.7451 12.9365 52.8576 11.1747 52.5132 9.38489C52.1852 7.67705 51.3957 6.21753 50.0463 5.10005C48.4181 3.7483 46.5064 3.19542 44.4191 3.16965Z" fill="white"/>
<path d="M101.982 20.658C101.982 19.8732 101.982 19.1025 101.982 18.2895C102.075 18.2895 102.167 18.2895 102.258 18.2895C103.087 18.2848 103.917 18.2872 104.746 18.2708C105.217 18.2614 105.491 18.0061 105.519 17.5375C105.547 17.0596 105.54 16.5817 105.542 16.1014C105.545 15.3283 105.531 14.5529 105.55 13.7798C105.557 13.4846 105.465 13.2621 105.275 13.0465C104.224 11.8564 103.181 10.6593 102.131 9.46684C100.845 8.00498 99.5498 6.5525 98.266 5.0883C97.5983 4.32457 96.8042 3.87945 95.757 3.94505C95.1924 3.98019 94.6231 3.95208 94.0585 3.95208C93.9812 3.95208 93.9039 3.95208 93.8125 3.95208C93.8125 3.14853 93.8125 2.37075 93.8125 1.57656C98.191 1.57656 102.56 1.57656 106.943 1.57656C106.943 2.36606 106.943 3.14384 106.943 3.94974C106.477 3.94974 106.016 3.94974 105.554 3.94974C105.468 3.94974 105.376 3.94505 105.292 3.95911C104.987 4.0083 104.851 4.27303 104.987 4.54713C105.018 4.61038 105.062 4.66895 105.107 4.72518C106.564 6.47051 108.021 8.21583 109.478 9.96115C109.513 10.0033 109.553 10.0408 109.675 10.1697C109.72 10.0806 109.743 9.98927 109.797 9.92367C111.259 8.20412 112.723 6.48456 114.189 4.76735C114.33 4.60101 114.398 4.42532 114.3 4.21916C114.201 4.013 114.021 3.94974 113.805 3.94974C113.295 3.95208 112.786 3.94974 112.254 3.94974C112.254 3.15322 112.254 2.37074 112.254 1.57422C115.834 1.57422 119.407 1.57422 123 1.57422C123 2.35434 123 3.13682 123 3.94974C122.909 3.94974 122.815 3.94974 122.722 3.94974C121.86 3.95911 121 3.9638 120.138 3.98489C119.728 3.99426 119.379 4.17932 119.102 4.47216C118.673 4.92431 118.259 5.38817 117.849 5.85437C115.75 8.24629 113.651 10.6429 111.559 13.0418C111.463 13.1519 111.381 13.3206 111.381 13.4612C111.369 14.7848 111.371 16.1108 111.383 17.4344C111.388 17.999 111.657 18.2591 112.231 18.2684C113.07 18.2848 113.906 18.2802 114.745 18.2848C114.838 18.2848 114.934 18.2848 115.045 18.2848C115.045 19.0837 115.045 19.8615 115.045 20.6533C110.696 20.658 106.346 20.658 101.982 20.658Z" fill="white"/>
</svg>
