<svg width="24" height="24" viewBox="0 0 24 24" fill="none" xmlns="http://www.w3.org/2000/svg">
<path d="M8.3125 22.048C8.3125 21.9561 8.3125 21.8641 8.3125 21.7874C8.3125 17.0811 8.3125 12.3902 8.3125 7.68391C8.3125 7.59193 8.3125 7.51527 8.3125 7.40796C10.1827 7.40796 12.0223 7.40796 13.8773 7.40796C13.8773 7.59192 13.8773 7.77588 13.8773 7.97517C14.2298 7.88319 14.5518 7.77588 14.8737 7.69923C18.1083 6.93274 21.4502 9.1709 21.9561 12.4515C21.9715 12.5435 21.9868 12.6355 22.0021 12.7274C22.0021 15.8394 22.0021 18.9361 22.0021 22.048C20.2238 22.048 18.4456 22.048 16.6673 22.048C16.6673 22.0174 16.6826 21.9867 16.6826 21.9714C16.6826 19.8252 16.6826 17.6943 16.6826 15.5482C16.6826 15.0883 16.606 14.6437 16.422 14.2298C15.9928 13.264 15.0117 12.8194 14.0919 13.172C13.9539 13.218 13.9079 13.2947 13.9079 13.4326C13.8926 16.3146 13.8773 19.1813 13.8619 22.0634C12.0223 22.048 10.1674 22.048 8.3125 22.048ZM20.7757 20.8063C20.7757 20.745 20.7757 20.7143 20.7757 20.6683C20.7757 18.1389 20.7757 15.6095 20.7604 13.0954C20.7604 12.7428 20.6991 12.3749 20.5918 12.0223C19.8099 9.55415 17.1425 8.20512 14.6744 9.00227C14.0306 9.21689 13.4634 9.56949 12.8808 9.90674C12.8042 9.95273 12.7275 9.98339 12.6355 10.0447C12.6355 9.55415 12.6355 9.09425 12.6355 8.63435C11.5931 8.63435 10.566 8.63435 9.53889 8.63435C9.53889 12.6968 9.53889 16.7439 9.53889 20.791C10.5813 20.791 11.6084 20.791 12.6355 20.791C12.6355 20.7143 12.6355 20.653 12.6355 20.5764C12.6509 18.1082 12.6815 15.6401 12.6662 13.1567C12.6662 12.6508 12.8195 12.3749 13.2487 12.1602C14.2912 11.6543 15.3183 11.6237 16.3147 12.2675C17.3571 12.9421 17.8477 13.9692 17.8784 15.1649C17.9244 16.9585 17.8937 18.7521 17.8937 20.5457C17.8937 20.6224 17.8937 20.699 17.8937 20.791C18.8901 20.8063 19.8253 20.8063 20.7757 20.8063Z" fill="#333333" stroke="#333333" stroke-width="0.3"/>
<path d="M1.03096 22.048C1.03096 21.9714 1.01562 21.8794 1.01562 21.8028C1.01562 17.0965 1.01562 12.3902 1.01562 7.68391C1.01562 7.59193 1.01562 7.51527 1.01562 7.40796C2.83989 7.40796 4.63349 7.40796 6.45775 7.40796C6.45775 12.2982 6.45775 17.1731 6.45775 22.048C4.64882 22.048 2.83989 22.048 1.03096 22.048ZM5.21602 20.8063C5.21602 16.7439 5.21602 12.6968 5.21602 8.63435C4.23491 8.63435 3.25379 8.63435 2.27268 8.63435C2.27268 12.6968 2.27268 16.7439 2.27268 20.8063C3.25379 20.8063 4.21958 20.8063 5.21602 20.8063Z" fill="#333333" stroke="#333333" stroke-width="0.3"/>
<path d="M3.72873 6.47291C2.22639 6.47291 1 5.24651 1 3.74418C1 2.24185 2.22639 1.01545 3.72873 1.00012C5.23106 1.00012 6.45745 2.22652 6.47278 3.72885C6.45745 5.23118 5.23106 6.47291 3.72873 6.47291ZM3.72873 5.24651C4.54121 5.24651 5.21573 4.55667 5.21573 3.74418C5.21573 2.9317 4.52588 2.24185 3.7134 2.24185C2.90091 2.25718 2.22639 2.9317 2.22639 3.74418C2.22639 4.572 2.91624 5.24651 3.72873 5.24651Z" fill="#333333" stroke="#333333" stroke-width="0.3"/>
</svg>
