<svg width="24" height="24" viewBox="0 0 24 24" fill="none" xmlns="http://www.w3.org/2000/svg">
<path d="M2.02817 10.1309C2.1831 9.51119 2.61972 9.21541 3.19718 9.03231C9.21127 7.06048 15.2254 5.07457 21.2254 3.08865C22.0845 2.80696 22.8451 3.21541 22.9859 4.0464C23.0141 4.24358 23 4.45485 22.9437 4.65203C21.7324 9.80696 20.5211 14.9619 19.3099 20.1168C19.0563 21.1732 18.0141 21.5394 17.169 20.8492C15.9296 19.8351 14.6761 18.821 13.4366 17.7929C13.3239 17.6943 13.2535 17.6802 13.1268 17.7788C12.0423 18.5957 10.9577 19.4126 9.85915 20.2154C9.73239 20.314 9.56338 20.4126 9.40845 20.4408C9.09859 20.5112 8.8169 20.314 8.73239 19.9619C8.59155 19.4126 8.47887 18.8633 8.3662 18.2999C8.02817 16.7506 7.70423 15.2013 7.3662 13.652C7.33803 13.5112 7.26761 13.4549 7.14084 13.3985C5.76056 12.807 4.39437 12.1872 3.01408 11.5957C2.50704 11.3844 2.12676 11.0746 2 10.5112C2.02817 10.3985 2.02817 10.2577 2.02817 10.1309ZM21.8028 4.20133C15.5915 6.24358 9.43662 8.28583 3.26761 10.314C3.33803 10.3985 3.40845 10.4267 3.47887 10.4548C4.85915 11.0605 6.25352 11.6661 7.6338 12.2858C7.78873 12.3563 7.90141 12.3563 8.05634 12.2718C11.1127 10.5675 14.169 8.8633 17.2394 7.17316C17.3239 7.11682 17.4225 7.07457 17.5211 7.0464C17.7746 6.96189 18.0423 7.0464 18.1972 7.24358C18.3521 7.45485 18.3662 7.72246 18.2113 7.94781C18.1408 8.0464 18.0704 8.13091 17.9859 8.21541C15.9437 10.3563 13.9014 12.483 11.8592 14.6098C11.8028 14.6661 11.7606 14.7225 11.7042 14.7788C13.831 16.5253 15.9437 18.2436 18.0845 20.0041C19.338 14.7225 20.5634 9.48302 21.8028 4.20133ZM14.338 10.2436C14.3239 10.2295 14.3239 10.2154 14.3099 10.2013C12.4084 11.2577 10.507 12.314 8.59155 13.3703C8.87324 14.6661 9.15493 15.9478 9.42253 17.2295C9.47887 17.1872 9.49296 17.145 9.50704 17.1027C9.71831 16.3422 9.92958 15.5957 10.1549 14.8492C10.2113 14.652 10.3239 14.4408 10.4648 14.2858C11.6761 13.0041 12.9014 11.7365 14.1127 10.4548C14.1972 10.3844 14.2676 10.314 14.338 10.2436ZM11.1408 15.9056C10.9155 16.6943 10.6901 17.4548 10.4648 18.2718C11.1127 17.7788 11.7183 17.3281 12.3239 16.8774C11.9296 16.5394 11.5493 16.2295 11.1408 15.9056Z" fill="#333333" stroke="#333333" stroke-width="0.2"/>
</svg>
