<svg width="24" height="24" viewBox="0 0 24 24" fill="none" xmlns="http://www.w3.org/2000/svg">
<g clip-path="url(#clip0_1402_1268)">
<path d="M24 4.69341C23.9516 4.74177 23.8872 4.80624 23.8388 4.85459C23.178 5.74109 22.5494 6.64371 21.8724 7.5141C21.405 8.11047 21.2438 8.75519 21.276 9.49663C21.3566 10.9312 21.2277 12.3334 20.8408 13.7196C19.9705 16.911 18.004 19.1514 14.9899 20.4892C13.4265 21.1823 11.7824 21.5047 10.09 21.6175C8.42982 21.7142 6.78576 21.6336 5.15782 21.279C3.78778 20.9889 2.53056 20.4087 1.28946 19.7639C0.870383 19.5383 0.435191 19.2965 0 19.0547C1.82136 18.4261 3.64272 17.7975 5.44795 17.1689C5.44795 17.1367 5.44795 17.1044 5.44795 17.0883C3.70719 16.2179 2.86904 14.7028 2.43385 12.8976C2.49832 12.8976 2.56279 12.8815 2.6595 12.8815C2.11148 12.3012 1.70853 11.6887 1.46676 10.9634C1.33781 10.5927 1.22498 10.2058 1.19275 9.83511C1.14439 9.2871 1.17663 8.72296 1.17663 8.12659C1.40229 8.20718 1.56347 8.25553 1.773 8.33612C1.28946 7.32068 1.09604 6.30523 1.22498 5.24143C1.35393 4.17763 1.82136 3.25889 2.3855 2.30791C4.52922 5.19307 7.30154 7.04666 10.8798 7.54633C10.8798 7.27232 10.8798 7.01443 10.8798 6.75654C10.9281 4.87071 11.8469 3.48454 13.5071 2.66252C15.4735 1.67931 17.4399 1.77601 19.2612 3.04935C19.632 3.30724 19.9221 3.3556 20.3251 3.19442C21.1793 2.87205 22.0497 2.58193 22.904 2.27568C22.9846 2.24344 23.0651 2.22732 23.2102 2.16285C22.904 3.03323 22.63 3.85527 22.3237 4.70953C22.8878 4.67729 23.4197 4.66117 23.9678 4.64505C24 4.66117 24 4.67729 24 4.69341ZM3.64271 19.3126C3.90061 19.4093 4.0779 19.4738 4.2552 19.5544C5.48019 20.0218 6.76964 20.1669 8.0591 20.2314C10.364 20.3442 12.6044 20.0702 14.732 19.087C16.8113 18.1199 18.3264 16.5725 19.1645 14.4288C19.777 12.8653 19.9704 11.2213 19.8899 9.5611C19.8415 8.48118 20.0833 7.51409 20.7764 6.67595C20.8892 6.547 20.9859 6.40194 21.1148 6.20852C20.8247 6.20852 20.5991 6.20852 20.3412 6.20852C20.5346 5.62827 20.728 5.08025 20.9375 4.49999C20.6796 4.58058 20.454 4.62894 20.2283 4.70953C19.6642 4.90295 19.1968 4.79012 18.7455 4.40328C18.5843 4.25822 18.3909 4.11315 18.1974 4.00032C16.9563 3.29112 15.6669 3.27501 14.3774 3.80691C13.6038 4.12927 13.0074 4.64505 12.6206 5.38649C12.2176 6.16016 12.2337 6.96607 12.411 7.7881C12.5077 8.22329 12.54 8.65849 12.6044 9.09368C8.73607 8.98085 5.46407 7.64304 2.75621 4.87071C2.57891 5.51544 2.57891 6.12793 2.72397 6.75654C2.93351 7.64304 3.38482 8.36836 4.07791 8.94861C4.6904 9.44828 5.31901 9.93183 5.9315 10.4154C5.99597 10.4637 6.04432 10.5121 6.1088 10.5604C6.09268 10.5766 6.09268 10.5927 6.07656 10.5927C4.96441 10.4798 3.85225 10.3509 2.72397 10.2381C2.74009 10.3025 2.75621 10.3509 2.77233 10.4154C3.20752 11.6565 4.04567 12.4946 5.30289 12.8815C6.17327 13.1393 7.07589 13.3328 7.94628 13.5584C7.99463 13.5745 8.04298 13.5907 8.15581 13.639C6.93083 13.9614 5.77032 14.2676 4.60981 14.5739C4.60981 14.5416 4.60981 14.5577 4.60981 14.5739C4.62592 14.6061 4.64204 14.6222 4.65816 14.6545C5.2223 15.4281 5.96374 15.9439 6.89859 16.1212C7.54332 16.2502 8.22028 16.2663 8.88113 16.3146C9.33244 16.3469 9.78375 16.3791 10.2189 16.4113C8.10745 17.459 5.97985 18.5389 3.64271 19.3126Z" fill="#333333"/>
<path d="M4.60981 14.5739C5.77032 14.2676 6.93083 13.9614 8.15581 13.639C8.04298 13.5907 7.99463 13.5745 7.94628 13.5584C7.07589 13.3328 6.17327 13.1393 5.30289 12.8815C4.04567 12.4946 3.20752 11.6565 2.77233 10.4154C2.75621 10.3509 2.74009 10.3025 2.72397 10.2381C3.85225 10.3509 4.96441 10.4798 6.07656 10.5927C6.09268 10.5927 6.09268 10.5766 6.1088 10.5604C6.04432 10.5121 5.99597 10.4637 5.9315 10.4154C5.31901 9.93183 4.6904 9.44828 4.07791 8.94861C3.38482 8.36836 2.93351 7.64304 2.72397 6.75654C2.57891 6.12793 2.57891 5.51544 2.75621 4.87071C5.46407 7.64304 8.73607 8.98085 12.6044 9.09368C12.54 8.65849 12.5077 8.22329 12.411 7.7881C12.2337 6.96607 12.2176 6.16016 12.6206 5.38649C13.0074 4.64505 13.6038 4.12927 14.3774 3.80691C15.6669 3.27501 16.9563 3.29112 18.1974 4.00032C18.3909 4.11315 18.5843 4.25822 18.7455 4.40328C19.1968 4.79012 19.6642 4.90295 20.2283 4.70953C20.454 4.62894 20.6796 4.58058 20.9375 4.49999C20.728 5.08025 20.5346 5.62827 20.3412 6.20852C20.5991 6.20852 20.8247 6.20852 21.1148 6.20852C20.9859 6.40194 20.8892 6.547 20.7764 6.67595C20.0833 7.51409 19.8415 8.48118 19.8899 9.5611C19.9704 11.2213 19.777 12.8653 19.1645 14.4288C18.3264 16.5725 16.8113 18.1199 14.732 19.087C12.6044 20.0702 10.364 20.3442 8.0591 20.2314C6.76964 20.1669 5.48019 20.0218 4.2552 19.5544C4.0779 19.4738 3.90061 19.4093 3.64271 19.3126C5.97985 18.5389 8.10745 17.459 10.2189 16.4113C9.78375 16.3791 9.33244 16.3469 8.88113 16.3146C8.22028 16.2663 7.54332 16.2502 6.89859 16.1212C5.96374 15.9439 5.2223 15.4281 4.65816 14.6545C4.64204 14.6222 4.62592 14.6061 4.60981 14.5739ZM4.60981 14.5739C4.60981 14.5416 4.60981 14.5577 4.60981 14.5739ZM24 4.69341C23.9516 4.74177 23.8872 4.80624 23.8388 4.85459C23.178 5.74109 22.5494 6.64371 21.8724 7.5141C21.405 8.11047 21.2438 8.75519 21.276 9.49663C21.3566 10.9312 21.2277 12.3334 20.8408 13.7196C19.9705 16.911 18.004 19.1514 14.9899 20.4892C13.4265 21.1823 11.7824 21.5047 10.09 21.6175C8.42982 21.7142 6.78576 21.6336 5.15782 21.279C3.78778 20.9889 2.53056 20.4087 1.28946 19.7639C0.870383 19.5383 0.435191 19.2965 0 19.0547C1.82136 18.4261 3.64272 17.7975 5.44795 17.1689C5.44795 17.1367 5.44795 17.1044 5.44795 17.0883C3.70719 16.2179 2.86904 14.7028 2.43385 12.8976C2.49832 12.8976 2.56279 12.8815 2.6595 12.8815C2.11148 12.3012 1.70853 11.6887 1.46676 10.9634C1.33781 10.5927 1.22498 10.2058 1.19275 9.83511C1.14439 9.2871 1.17663 8.72296 1.17663 8.12658C1.40229 8.20718 1.56347 8.25553 1.773 8.33612C1.28946 7.32068 1.09604 6.30523 1.22498 5.24143C1.35393 4.17763 1.82136 3.25889 2.3855 2.30791C4.52922 5.19307 7.30154 7.04666 10.8798 7.54633C10.8798 7.27232 10.8798 7.01443 10.8798 6.75654C10.9281 4.87071 11.8469 3.48454 13.5071 2.66252C15.4735 1.67931 17.4399 1.77601 19.2612 3.04935C19.632 3.30724 19.9221 3.3556 20.3251 3.19442C21.1793 2.87205 22.0497 2.58193 22.904 2.27568C22.9846 2.24344 23.0651 2.22732 23.2102 2.16285C22.904 3.03323 22.63 3.85527 22.3237 4.70953C22.8878 4.67729 23.4197 4.66117 23.9678 4.64505C24 4.66117 24 4.67729 24 4.69341Z" stroke="#333333" stroke-width="0.2"/>
</g>
<defs>
<clipPath id="clip0_1402_1268">
<rect width="24" height="24" fill="white"/>
</clipPath>
</defs>
</svg>
