<svg width="24" height="24" viewBox="0 0 24 24" fill="none" xmlns="http://www.w3.org/2000/svg">
<path d="M10.8482 1C11.2932 1 11.7228 1 12.1678 1C12.2138 1.01534 12.2752 1.03069 12.3213 1.03069C13.8096 1.1381 15.2059 1.55238 16.5255 2.27355C21.0674 4.74394 23.1541 10.1604 21.3896 14.9631C19.2568 20.7785 12.5361 23.5097 6.9355 20.8245C6.84344 20.7785 6.70534 20.7631 6.61328 20.7785C5.12491 21.116 3.65188 21.4536 2.17885 21.7912C1.81059 21.8832 1.42699 21.96 1.04339 22.052C1.05874 21.9906 1.05874 21.9446 1.05874 21.9139C1.45768 20.1187 1.85663 18.3234 2.24023 16.5282C2.25557 16.4361 2.24023 16.3133 2.1942 16.2213C1.08943 14.0578 0.736512 11.8022 1.19683 9.40853C1.99472 5.28098 5.50851 1.84392 9.65139 1.18413C10.035 1.10741 10.4339 1.06138 10.8482 1ZM3.17621 19.8732C3.23759 19.8578 3.28362 19.8578 3.31431 19.8425C4.48046 19.5816 5.66195 19.3054 6.84344 19.0446C6.95085 19.0139 7.08894 19.0446 7.18101 19.0906C9.83552 20.4869 12.5361 20.6097 15.2827 19.3668C18.9192 17.725 20.9906 13.6895 20.2234 9.77679C19.2874 4.97411 14.5001 1.79789 9.72812 2.82594C7.08894 3.39367 5.09422 4.85135 3.75929 7.19899C2.8233 8.8408 2.48573 10.6207 2.73124 12.508C2.88468 13.7355 3.31431 14.871 3.92807 15.9297C3.9741 16.0218 4.00479 16.1446 3.98945 16.252C3.89738 16.7583 3.77463 17.2647 3.65188 17.771C3.48309 18.4615 3.32965 19.152 3.17621 19.8732Z" fill="#333333"/>
<path d="M8.45628 6.84615C8.85522 6.75409 9.07004 6.99959 9.22348 7.38319C9.43829 7.93558 9.6838 8.50331 9.91396 9.05569C9.97534 9.20913 9.99068 9.36257 9.89861 9.50067C9.74517 9.73083 9.57639 9.96099 9.39226 10.1605C9.10072 10.4827 9.08538 10.5134 9.3002 10.8816C10.0674 12.1398 11.1415 13.0605 12.5071 13.6129C12.7679 13.7203 12.8754 13.7049 13.0441 13.4901C13.2743 13.2139 13.5045 12.9377 13.7193 12.6615C13.9341 12.37 14.0262 12.3393 14.3637 12.4928C14.8241 12.7076 15.2844 12.9224 15.7293 13.1526C15.8981 13.2293 16.0516 13.3213 16.2204 13.3981C16.3738 13.4748 16.4505 13.5822 16.4505 13.751C16.4352 14.4261 16.2357 14.9938 15.6373 15.4081C14.9008 15.8991 14.1336 15.9452 13.305 15.7457C11.0648 15.2087 9.33089 13.9351 7.99596 12.0785C7.53563 11.434 7.05997 10.8049 6.82981 10.0377C6.52293 9.025 6.66102 8.10436 7.36685 7.29113C7.73511 6.90753 7.8732 6.84615 8.45628 6.84615Z" fill="#333333"/>
</svg>
