<svg width="40" height="40" viewBox="0 0 40 40" fill="none" xmlns="http://www.w3.org/2000/svg">
<rect width="40" height="40" rx="20" fill="#4D88B7"/>
<path d="M16.1104 19.9999C16.1104 17.8522 17.851 16.1107 19.9987 16.1107C22.1464 16.1107 23.8879 17.8522 23.8879 19.9999C23.8879 22.1476 22.1464 23.8891 19.9987 23.8891C17.851 23.8891 16.1104 22.1476 16.1104 19.9999ZM14.008 19.9999C14.008 23.3086 16.69 25.9906 19.9987 25.9906C23.3074 25.9906 25.9894 23.3086 25.9894 19.9999C25.9894 16.6913 23.3074 14.0092 19.9987 14.0092C16.69 14.0092 14.0081 16.6911 14.0081 19.9999M24.8266 13.7717C24.8265 14.0486 24.9085 14.3193 25.0623 14.5496C25.216 14.7799 25.4346 14.9594 25.6904 15.0655C25.9461 15.1715 26.2276 15.1994 26.4992 15.1455C26.7708 15.0915 27.0203 14.9583 27.2162 14.7626C27.4121 14.5669 27.5455 14.3175 27.5996 14.0459C27.6538 13.7744 27.6262 13.4929 27.5203 13.237C27.4144 12.9812 27.2351 12.7624 27.0049 12.6085C26.7747 12.4546 26.5041 12.3724 26.2272 12.3723H26.2266C25.8555 12.3724 25.4996 12.5199 25.2371 12.7823C24.9746 13.0447 24.827 13.4005 24.8266 13.7717ZM15.2854 29.4964C14.1479 29.4446 13.5297 29.2551 13.1188 29.0951C12.5741 28.883 12.1855 28.6305 11.7769 28.2224C11.3683 27.8143 11.1153 27.4261 10.9042 26.8814C10.744 26.4707 10.5546 25.8523 10.5029 24.7148C10.4463 23.4851 10.435 23.1157 10.435 20.0001C10.435 16.8845 10.4472 16.5162 10.5029 15.2854C10.5547 14.1479 10.7455 13.5307 10.9042 13.1188C11.1163 12.5741 11.3688 12.1855 11.7769 11.7769C12.1849 11.3683 12.5732 11.1153 13.1188 10.9042C13.5295 10.7441 14.1479 10.5546 15.2854 10.5029C16.5151 10.4463 16.8845 10.435 19.9987 10.435C23.1129 10.435 23.4826 10.4471 24.7134 10.5031C25.8509 10.5549 26.4681 10.7457 26.88 10.9044C27.4247 11.1155 27.8133 11.369 28.2219 11.7771C28.6305 12.1851 28.8825 12.5743 29.0946 13.119C29.2548 13.5297 29.4442 14.1481 29.4959 15.2856C29.5525 16.5163 29.5638 16.8847 29.5638 20.0003C29.5638 23.1159 29.5525 23.4842 29.4959 24.715C29.4441 25.8525 29.2537 26.4707 29.0946 26.8816C28.8825 27.4263 28.63 27.8149 28.2219 28.2226C27.8139 28.6303 27.4247 28.8832 26.88 29.0953C26.4693 29.2554 25.8509 29.4449 24.7134 29.4966C23.4837 29.5531 23.1143 29.5644 19.9987 29.5644C16.8831 29.5644 16.5148 29.5531 15.2854 29.4966M15.1888 8.40391C13.9468 8.46047 13.0981 8.6574 12.3569 8.9458C11.5898 9.24363 10.9396 9.64319 10.2903 10.2915C9.64094 10.9398 9.2424 11.5901 8.94458 12.3582C8.65618 13.0998 8.45924 13.948 8.40268 15.19C8.34519 16.4339 8.33203 16.8316 8.33203 19.9999C8.33203 23.1682 8.34519 23.5659 8.40268 24.8099C8.45924 26.0519 8.65618 26.9001 8.94458 27.6417C9.2424 28.4088 9.64103 29.0603 10.2903 29.7084C10.9395 30.3564 11.5889 30.7554 12.3569 31.054C13.0995 31.3424 13.9468 31.5394 15.1888 31.5959C16.4334 31.6525 16.8304 31.6666 19.9987 31.6666C23.167 31.6666 23.5647 31.6534 24.8086 31.5959C26.0507 31.5394 26.8988 31.3424 27.6405 31.054C28.4076 30.7554 29.0578 30.3567 29.7071 29.7084C30.3565 29.0601 30.7542 28.4088 31.0528 27.6417C31.3412 26.9001 31.5391 26.0518 31.5947 24.8099C31.6513 23.565 31.6644 23.1682 31.6644 19.9999C31.6644 16.8316 31.6513 16.4339 31.5947 15.19C31.5382 13.9479 31.3412 13.0993 31.0528 12.3582C30.7542 11.5911 30.3554 10.9408 29.7071 10.2915C29.0588 9.64216 28.4076 9.24363 27.6414 8.9458C26.8988 8.6574 26.0506 8.45953 24.8096 8.40391C23.5654 8.34707 23.1679 8.33325 20.0001 8.33325C16.8323 8.33325 16.4338 8.34641 15.1892 8.40391" fill="white"/>
</svg>
