<svg width="40" height="40" viewBox="0 0 40 40" fill="none" xmlns="http://www.w3.org/2000/svg">
<rect width="40" height="40" rx="20" fill="#B2B2B2"/>
<g clip-path="url(#clip0_1374_2053)">
<path d="M8.33325 11.446C8.33325 10.6953 8.59602 10.0759 9.12154 9.58794C9.64706 9.09994 10.3303 8.85596 11.1711 8.85596C11.9969 8.85596 12.6651 9.09618 13.1756 9.57668C13.7011 10.0722 13.9639 10.7178 13.9639 11.5136C13.9639 12.2343 13.7086 12.8349 13.1981 13.3154C12.6726 13.8109 11.9819 14.0587 11.126 14.0587H11.1035C10.2777 14.0587 9.60954 13.8109 9.09902 13.3154C8.5885 12.8199 8.33325 12.1968 8.33325 11.446ZM8.62604 31.1532V16.1082H13.626V31.1532H8.62604ZM16.3963 31.1532H21.3963V22.7524C21.3963 22.2268 21.4564 21.8214 21.5765 21.5361C21.7867 21.0256 22.1058 20.5939 22.5337 20.2411C22.9616 19.8882 23.4984 19.7118 24.1441 19.7118C25.8258 19.7118 26.6666 20.8454 26.6666 23.1127V31.1532H31.6666V22.5271C31.6666 20.3049 31.1411 18.6195 30.09 17.4708C29.0389 16.3222 27.6501 15.7478 25.9233 15.7478C23.9864 15.7478 22.4774 16.5812 21.3963 18.2478V18.2929H21.3738L21.3963 18.2478V16.1082H16.3963C16.4263 16.5887 16.4414 18.0827 16.4414 20.5902C16.4414 23.0977 16.4263 26.6187 16.3963 31.1532Z" fill="white"/>
</g>
<defs>
<clipPath id="clip0_1374_2053">
<rect x="8.33325" y="8.33325" width="23.3333" height="23.3333" fill="white"/>
</clipPath>
</defs>
</svg>
