<svg width="40" height="40" viewBox="0 0 40 40" fill="none" xmlns="http://www.w3.org/2000/svg">
<rect width="40" height="40" rx="20" fill="#B2B2B2"/>
<path d="M7.86841 31.6357L9.5833 25.4084C8.52308 23.5806 7.9669 21.5106 7.97269 19.3945C7.97269 12.7635 13.3955 7.37231 20.0522 7.37231C23.285 7.37231 26.3208 8.62354 28.5977 10.8953C30.8804 13.1672 32.1376 16.1886 32.1318 19.4002C32.1318 26.0311 26.709 31.4224 20.0464 31.4224H20.0406C18.0187 31.4224 16.0315 30.915 14.2645 29.9578L7.86841 31.6357ZM14.5715 27.784L14.9365 28.0031C16.4776 28.9141 18.2446 29.3927 20.0464 29.3985H20.0522C25.5851 29.3985 30.0924 24.9183 30.0924 19.406C30.0924 16.7363 29.0496 14.2281 27.1551 12.3369C25.2606 10.4456 22.7346 9.40772 20.0522 9.40772C14.5194 9.40195 10.012 13.8821 10.012 19.3945C10.012 21.2799 10.5392 23.1193 11.5473 24.7107L11.7848 25.0913L10.771 28.7758L14.5715 27.784Z" fill="white"/>
<path d="M8.29126 31.2148L9.94821 25.2008C8.92276 23.4422 8.38396 21.4414 8.38396 19.4002C8.38975 12.9999 13.6213 7.79321 20.0522 7.79321C23.1749 7.79321 26.1006 9.00408 28.3022 11.1952C30.5037 13.3862 31.7146 16.3039 31.7146 19.406C31.7146 25.8062 26.4772 31.013 20.0522 31.013H20.0464C18.0939 31.013 16.1763 30.5228 14.473 29.6003L8.29126 31.2148Z" fill="#B2B2B2"/>
<path d="M7.86841 31.6357L9.5833 25.4084C8.52308 23.5806 7.9669 21.5106 7.97269 19.3945C7.97269 12.7635 13.3955 7.37231 20.0522 7.37231C23.285 7.37231 26.3208 8.62354 28.5977 10.8953C30.8804 13.1672 32.1376 16.1886 32.1318 19.4002C32.1318 26.0311 26.709 31.4224 20.0464 31.4224H20.0406C18.0187 31.4224 16.0315 30.915 14.2645 29.9578L7.86841 31.6357ZM14.5715 27.784L14.9365 28.0031C16.4776 28.9141 18.2446 29.3927 20.0464 29.3985H20.0522C25.5851 29.3985 30.0924 24.9183 30.0924 19.406C30.0924 16.7363 29.0496 14.2281 27.1551 12.3369C25.2606 10.4456 22.7346 9.40772 20.0522 9.40772C14.5194 9.40195 10.012 13.8821 10.012 19.3945C10.012 21.2799 10.5392 23.1193 11.5473 24.7107L11.7848 25.0913L10.771 28.7758L14.5715 27.784Z" fill="white"/>
<path fill-rule="evenodd" clip-rule="evenodd" d="M17.0337 14.3665C16.8077 13.8649 16.5702 13.8533 16.3558 13.8476C16.182 13.8418 15.9792 13.8418 15.7765 13.8418C15.5737 13.8418 15.2493 13.9168 14.9712 14.2166C14.6931 14.5164 13.9167 15.2429 13.9167 16.7248C13.9167 18.2009 15.0001 19.6309 15.1508 19.8327C15.3014 20.0345 17.2422 23.1654 20.307 24.3705C22.8562 25.3738 23.3776 25.172 23.928 25.1201C24.4784 25.0682 25.7124 24.3936 25.9673 23.6902C26.2164 22.9867 26.2164 22.387 26.1411 22.2602C26.0658 22.1333 25.863 22.0584 25.5618 21.9085C25.2605 21.7585 23.7774 21.032 23.4993 20.9282C23.2212 20.8302 23.0184 20.7783 22.8214 21.0781C22.6187 21.378 22.0393 22.0526 21.8655 22.2544C21.6917 22.4562 21.5121 22.4793 21.2108 22.3294C20.9096 22.1795 19.9362 21.8623 18.7833 20.836C17.8853 20.0403 17.277 19.0543 17.1032 18.7544C16.9294 18.4546 17.0858 18.2932 17.2364 18.1432C17.3697 18.0106 17.5377 17.7915 17.6883 17.6185C17.839 17.4456 17.8911 17.3187 17.9896 17.1169C18.0881 16.9151 18.0418 16.7421 17.9664 16.5922C17.8911 16.448 17.3002 14.9604 17.0337 14.3665Z" fill="white"/>
</svg>
