<svg width="188" height="40" viewBox="0 0 188 40" fill="none" xmlns="http://www.w3.org/2000/svg">
<path d="M145.156 12.7783H140.051C140.051 13.8858 140.051 14.7661 140.051 15.618C140.051 20.5306 140.051 25.4432 140.079 30.3275C140.079 31.5201 140.023 32.7128 138.434 32.7128C132.241 32.7412 126.049 32.7128 119.634 32.7128V13.0623H114.613V37.8242C122.256 37.8242 129.731 37.8242 137.206 37.8242C141.809 37.8242 145.016 34.7006 145.1 29.9867C145.184 25.8976 145.128 21.7801 145.128 17.6909C145.156 16.1007 145.156 14.5389 145.156 12.7783Z" fill="#015699"/>
<path d="M156.843 24.989C153.162 24.989 153.134 24.989 153.134 21.269C153.134 16.7823 153.134 12.2673 153.134 7.66699C151.321 7.66699 149.842 7.66699 148.085 7.66699C148.085 12.1253 148.085 16.328 148.085 20.5023C148.085 25.2729 151.544 29.788 156.174 30.0152C163.566 30.3559 170.985 30.1004 178.489 30.1004C178.489 28.3114 178.489 26.778 178.489 24.9606C177.484 24.9606 176.62 24.9606 175.755 24.9606C169.479 24.989 163.175 24.989 156.843 24.989Z" fill="#015699"/>
<path d="M62.5643 13.0623C62.5643 18.5144 62.5643 23.8246 62.5643 29.1064C62.5643 32.8831 62.5643 32.8831 58.8545 33.5079C58.8545 34.9845 58.8545 36.4611 58.8545 38.1365C64.6284 36.9155 67.2224 33.735 67.2224 28.0841C67.2224 25.7556 67.2224 23.427 67.2224 21.0985C67.2224 18.4008 67.2224 15.7031 67.2224 13.0623C65.4931 13.0623 64.0984 13.0623 62.5643 13.0623Z" fill="#015699"/>
<path d="M49.3711 4.88398C54.866 4.88398 60.2494 4.82719 65.6049 4.82719C68.6453 4.82719 72.5782 2.44187 72.5782 -0.000244141C64.7123 -0.000244141 57.1533 -0.000244141 49.3711 -0.000244141C49.3711 1.56157 49.3711 3.15179 49.3711 4.88398Z" fill="#015699"/>
<path d="M181.863 30.1003C183.509 30.1003 184.987 30.1003 186.605 30.1003C186.605 24.2221 186.605 18.628 186.605 13.0623C184.904 13.0623 183.37 13.0623 181.863 13.0623C181.863 18.8552 181.863 24.4493 181.863 30.1003Z" fill="#015699"/>
<path d="M20.083 12.2105C21.3154 12.2105 22.3145 11.1934 22.3145 9.93873C22.3145 8.68408 21.3154 7.66699 20.083 7.66699C18.8506 7.66699 17.8516 8.68408 17.8516 9.93873C17.8516 11.1934 18.8506 12.2105 20.083 12.2105Z" fill="#015699"/>
<path d="M128.867 12.2105C130.099 12.2105 131.098 11.1934 131.098 9.93873C131.098 8.68408 130.099 7.66699 128.867 7.66699C127.634 7.66699 126.635 8.68408 126.635 9.93873C126.635 11.1934 127.634 12.2105 128.867 12.2105Z" fill="#015699"/>
<path d="M14.2256 12.2105C15.458 12.2105 16.457 11.1934 16.457 9.93873C16.457 8.68408 15.458 7.66699 14.2256 7.66699C12.9932 7.66699 11.9941 8.68408 11.9941 9.93873C11.9941 11.1934 12.9932 12.2105 14.2256 12.2105Z" fill="#015699"/>
<path d="M188 7.38281H180.748V10.2225H188V7.38281Z" fill="#015699"/>
<path d="M54.4196 7.38281C52.6623 7.38281 51.184 7.38281 49.3709 7.38281C49.3709 11.9831 49.3709 16.4981 49.3709 20.9848C49.3709 24.7048 49.343 24.7048 45.6611 24.7048C41.3377 24.7048 39.3294 24.7048 39.3294 24.7048V24.7616C37.4884 24.7332 37.07 24.1652 37.07 22.3763C37.07 19.7638 37.0979 17.0093 37.0979 14.482C35.2291 14.482 33.695 14.482 32.0493 14.482C32.0493 17.0093 32.0772 19.3378 32.0772 21.6379C32.0772 23.9665 31.324 24.79 29.0368 24.7616C21.7288 24.6764 14.4208 24.7332 7.08487 24.7332C6.47122 24.7332 5.88546 24.7332 5.02077 24.7332C5.02077 21.2972 5.02077 17.8328 5.02077 14.5104C3.20771 14.5104 1.6457 14.5104 0 14.5104C0 19.565 0 24.648 0 29.8446C1.17151 29.9014 2.28724 29.9866 3.37507 29.9866C11.1852 29.9866 18.9953 29.9582 26.8053 29.9866C29.7062 29.9866 33.0813 29.3334 34.7549 27.6296C36.568 29.4754 37.9347 29.9014 39.943 29.9014V29.8446C42.0629 29.8446 44.1828 29.8162 46.3306 29.7878C50.9608 29.7026 54.4196 25.0455 54.4196 20.2749C54.4196 16.0438 54.4196 11.8411 54.4196 7.38281Z" fill="#015699"/>
<path d="M103.4 24.1369C103.261 24.1369 103.121 24.1369 102.982 24.1369C102.982 24.1369 102.982 24.1369 102.954 24.1369C96.7894 24.1369 90.625 24.1369 84.4606 24.1369C80.7787 24.1369 80.7508 24.1369 80.7508 20.4169C80.7508 15.9303 80.7508 11.4152 80.7508 6.81494C78.9378 6.81494 77.4594 6.81494 75.7021 6.81494C75.7021 11.2732 75.7021 15.4759 75.7021 19.6502C75.7021 24.4209 79.1609 28.936 83.7912 29.1631C84.6559 29.1915 85.4927 29.2199 86.3573 29.2483C87.9194 29.2483 88.9793 30.1002 88.9793 32.1164C88.9793 35.9215 90.9318 38.3636 93.3306 39.3291C97.7378 41.0897 101.671 39.1588 104.07 36.1487C106.608 33.1103 106.106 30.2422 106.106 24.1085C105.102 24.1369 104.265 24.1369 103.4 24.1369ZM100.416 34.6437C100.416 35.2684 99.9134 35.7796 99.2998 35.7796H94.8369C94.2232 35.7796 93.7211 35.2684 93.7211 34.6437V30.3842C93.7211 29.7595 94.2232 29.2483 94.8369 29.2483H99.2998C99.9134 29.2483 100.416 29.7595 100.416 30.3842V34.6437Z" fill="#015699"/>
</svg>
