<svg width="20" height="20" viewBox="0 0 20 20" fill="none" xmlns="http://www.w3.org/2000/svg">
<path d="M18.3121 15.2746C18.3121 15.5746 18.2454 15.8829 18.1037 16.1829C17.9621 16.4829 17.7787 16.7663 17.5371 17.0329C17.1287 17.4829 16.6787 17.8079 16.1704 18.0163C15.6704 18.2246 15.1287 18.3329 14.5454 18.3329C13.6954 18.3329 12.7871 18.1329 11.8287 17.7246C10.8704 17.3163 9.91208 16.7663 8.96208 16.0746C8.00374 15.3746 7.09541 14.5996 6.22874 13.7413C5.37041 12.8746 4.59541 11.9663 3.90374 11.0163C3.22041 10.0663 2.67041 9.11626 2.27041 8.17459C1.87041 7.22459 1.67041 6.31626 1.67041 5.44959C1.67041 4.88293 1.77041 4.34126 1.97041 3.84126C2.17041 3.33293 2.48708 2.86626 2.92874 2.44959C3.46208 1.92459 4.04541 1.66626 4.66208 1.66626C4.89541 1.66626 5.12874 1.71626 5.33708 1.81626C5.55374 1.91626 5.74541 2.06626 5.89541 2.28293L7.82874 5.00793C7.97874 5.21626 8.08708 5.40793 8.16208 5.59126C8.23708 5.76626 8.27874 5.94126 8.27874 6.09959C8.27874 6.29959 8.22041 6.49959 8.10374 6.69126C7.99541 6.88293 7.83708 7.08293 7.63708 7.28293L7.00374 7.94126C6.91208 8.03293 6.87041 8.14126 6.87041 8.27459C6.87041 8.34126 6.87874 8.39959 6.89541 8.46626C6.92041 8.53293 6.94541 8.58292 6.96208 8.63292C7.11208 8.90792 7.37041 9.26626 7.73708 9.69959C8.11208 10.1329 8.51208 10.5746 8.94541 11.0163C9.39541 11.4579 9.82874 11.8663 10.2704 12.2413C10.7037 12.6079 11.0621 12.8579 11.3454 13.0079C11.3871 13.0246 11.4371 13.0496 11.4954 13.0746C11.5621 13.0996 11.6287 13.1079 11.7037 13.1079C11.8454 13.1079 11.9537 13.0579 12.0454 12.9663L12.6787 12.3413C12.8871 12.1329 13.0871 11.9746 13.2787 11.8746C13.4704 11.7579 13.6621 11.6996 13.8704 11.6996C14.0287 11.6996 14.1954 11.7329 14.3787 11.8079C14.5621 11.8829 14.7537 11.9913 14.9621 12.1329L17.7204 14.0913C17.9371 14.2413 18.0871 14.4163 18.1787 14.6246C18.2621 14.8329 18.3121 15.0413 18.3121 15.2746Z" stroke="#333333" stroke-width="1.8" stroke-miterlimit="10"/>
<path d="M15.422 7.49967C15.422 6.99967 15.0304 6.23301 14.447 5.60801C13.9137 5.03301 13.2054 4.58301 12.5054 4.58301" stroke="#333333" stroke-width="1.8" stroke-linecap="round" stroke-linejoin="round"/>
<path d="M18.3387 7.49959C18.3387 4.27459 15.7304 1.66626 12.5054 1.66626" stroke="#333333" stroke-width="1.8" stroke-linecap="round" stroke-linejoin="round"/>
</svg>
