<svg width="40" height="40" viewBox="0 0 40 40" fill="none" xmlns="http://www.w3.org/2000/svg">
<path d="M20 0C8.95321 0 0 8.95321 0 20C0 31.0468 8.95321 40 20 40C31.0468 40 40 31.0468 40 20C40 8.95804 31.042 0 20 0ZM20 38.2682C9.92764 38.2682 1.73179 30.0724 1.73179 20C1.73179 9.92764 9.92764 1.73179 20 1.73179C30.0724 1.73179 38.2682 9.92764 38.2682 20C38.2634 30.0724 30.0724 38.2682 20 38.2682Z" fill="#015699"/>
<path d="M26.1998 6.00599L26.2143 20.69C26.2191 21.2593 25.9393 21.7995 25.4714 22.1227L20.001 25.8854L14.5838 22.1227C14.1158 21.7947 13.8361 21.2593 13.8409 20.69L13.8554 5.98669C15.7367 5.15698 17.8158 4.69388 20.0059 4.69388C22.2056 4.68906 24.2992 5.16181 26.1998 6.00599Z" fill="#015699"/>
<path d="M20.0001 35.3107C11.5582 35.3107 4.68896 28.4414 4.68896 19.9996C4.68896 15.1901 6.92244 10.892 10.4005 8.08447V22.1076C10.4005 22.8891 10.7816 23.6175 11.4232 24.0661L18.8279 29.1795C19.5322 29.6667 20.4632 29.6667 21.1675 29.1843L28.6205 24.071C29.262 23.6272 29.6431 22.8939 29.6431 22.1124V8.12789C33.0971 10.9354 35.3064 15.2191 35.3064 20.0092C35.3064 28.4414 28.442 35.3107 20.0001 35.3107Z" fill="#015699"/>
</svg>
