<svg width="20" height="20" viewBox="0 0 20 20" fill="none" xmlns="http://www.w3.org/2000/svg">
<path d="M2.50928 9.34985V13.0915C2.50928 16.8332 4.00928 18.3332 7.75094 18.3332H12.2426C15.9843 18.3332 17.4843 16.8332 17.4843 13.0915V9.34985" stroke="#333333" stroke-width="1.8" stroke-linecap="round" stroke-linejoin="round"/>
<path d="M9.99877 10.0003C11.5238 10.0003 12.6488 8.75866 12.4988 7.23366L11.9488 1.66699H8.0571L7.49877 7.23366C7.34877 8.75866 8.47377 10.0003 9.99877 10.0003Z" stroke="#333333" stroke-width="1.8" stroke-linecap="round" stroke-linejoin="round"/>
<path d="M15.2596 10.0003C16.943 10.0003 18.1763 8.63366 18.0096 6.95866L17.7763 4.66699C17.4763 2.50033 16.643 1.66699 14.4596 1.66699H11.918L12.5013 7.50866C12.643 8.88366 13.8846 10.0003 15.2596 10.0003Z" stroke="#333333" stroke-width="1.8" stroke-linecap="round" stroke-linejoin="round"/>
<path d="M4.69966 10.0003C6.07466 10.0003 7.31632 8.88366 7.44966 7.50866L7.63299 5.66699L8.03299 1.66699H5.49132C3.30799 1.66699 2.47466 2.50033 2.17466 4.66699L1.94966 6.95866C1.78299 8.63366 3.01632 10.0003 4.69966 10.0003Z" stroke="#333333" stroke-width="1.8" stroke-linecap="round" stroke-linejoin="round"/>
<path d="M9.99837 14.167C8.60671 14.167 7.91504 14.8587 7.91504 16.2503V18.3337H12.0817V16.2503C12.0817 14.8587 11.39 14.167 9.99837 14.167Z" stroke="#333333" stroke-width="1.8" stroke-linecap="round" stroke-linejoin="round"/>
</svg>
