<svg width="20" height="20" viewBox="0 0 20 20" fill="none" xmlns="http://www.w3.org/2000/svg">
<path d="M15 15.7167H14.3667C13.7 15.7167 13.0667 15.975 12.6 16.4417L11.175 17.85C10.525 18.4917 9.46668 18.4917 8.81668 17.85L7.39166 16.4417C6.925 15.975 6.28333 15.7167 5.625 15.7167H5C3.61667 15.7167 2.5 14.6084 2.5 13.2417V4.15002C2.5 2.78336 3.61667 1.67505 5 1.67505H15C16.3833 1.67505 17.5 2.78336 17.5 4.15002V13.2417C17.5 14.6001 16.3833 15.7167 15 15.7167Z" stroke="#333333" stroke-width="1.8" stroke-miterlimit="10" stroke-linecap="round" stroke-linejoin="round"/>
<path d="M10.0017 8.33302C11.0741 8.33302 11.9434 7.46369 11.9434 6.39134C11.9434 5.31898 11.0741 4.44971 10.0017 4.44971C8.92939 4.44971 8.06006 5.31898 8.06006 6.39134C8.06006 7.46369 8.92939 8.33302 10.0017 8.33302Z" stroke="#333333" stroke-width="1.8" stroke-linecap="round" stroke-linejoin="round"/>
<path d="M13.3371 13.0496C13.3371 11.5496 11.8454 10.333 10.0037 10.333C8.16208 10.333 6.67041 11.5496 6.67041 13.0496" stroke="#333333" stroke-width="1.8" stroke-linecap="round" stroke-linejoin="round"/>
</svg>
