<svg width="40" height="40" viewBox="0 0 40 40" fill="none" xmlns="http://www.w3.org/2000/svg">
<path d="M20.0002 3.33331C10.8168 3.33331 3.3335 10.8166 3.3335 20C3.3335 29.1833 10.8168 36.6666 20.0002 36.6666C29.1835 36.6666 36.6668 29.1833 36.6668 20C36.6668 10.8166 29.1835 3.33331 20.0002 3.33331ZM24.6502 20.8833L18.7668 26.7666C18.5168 27.0166 18.2002 27.1333 17.8835 27.1333C17.5668 27.1333 17.2502 27.0166 17.0002 26.7666C16.5168 26.2833 16.5168 25.4833 17.0002 25L22.0002 20L17.0002 15C16.5168 14.5166 16.5168 13.7166 17.0002 13.2333C17.4835 12.75 18.2835 12.75 18.7668 13.2333L24.6502 19.1166C25.1502 19.6 25.1502 20.4 24.6502 20.8833Z" fill="#B2B2B2"/>
</svg>
