<svg width="40" height="40" viewBox="0 0 40 40" fill="none" xmlns="http://www.w3.org/2000/svg">
<path d="M20.0001 36.6667C29.1834 36.6667 36.6667 29.1834 36.6667 20C36.6667 10.8167 29.1834 3.33335 20.0001 3.33335C10.8167 3.33335 3.33342 10.8167 3.33342 20C3.33342 29.1834 10.8167 36.6667 20.0001 36.6667ZM15.3501 19.1167L21.2334 13.2334C21.4834 12.9834 21.8001 12.8667 22.1167 12.8667C22.4334 12.8667 22.7501 12.9834 23.0001 13.2334C23.4834 13.7167 23.4834 14.5167 23.0001 15L18.0001 20L23.0001 25C23.4834 25.4834 23.4834 26.2834 23.0001 26.7667C22.5167 27.25 21.7167 27.25 21.2334 26.7667L15.3501 20.8834C14.8501 20.4 14.8501 19.6 15.3501 19.1167Z" fill="#B2B2B2"/>
</svg>
