<svg width="32" height="32" viewBox="0 0 32 32" fill="none" xmlns="http://www.w3.org/2000/svg">
<path d="M29.3346 13.3334V17.3334C29.3346 22.6667 26.668 25.3334 21.3346 25.3334H20.668C20.2546 25.3334 19.8546 25.5334 19.6013 25.8667L17.6013 28.5334C16.7213 29.7067 15.2813 29.7067 14.4013 28.5334L12.4013 25.8667C12.188 25.5734 11.6946 25.3334 11.3346 25.3334H10.668C5.33464 25.3334 2.66797 24.0001 2.66797 17.3334V10.6667C2.66797 5.33341 5.33464 2.66675 10.668 2.66675H18.668" stroke="#333333" stroke-width="2.5" stroke-miterlimit="10" stroke-linecap="round" stroke-linejoin="round"/>
<path opacity="0.4" d="M26.0013 9.33341C27.8423 9.33341 29.3346 7.84103 29.3346 6.00008C29.3346 4.15913 27.8423 2.66675 26.0013 2.66675C24.1604 2.66675 22.668 4.15913 22.668 6.00008C22.668 7.84103 24.1604 9.33341 26.0013 9.33341Z" stroke="#333333" stroke-width="2.5" stroke-linecap="round" stroke-linejoin="round"/>
<path opacity="0.4" d="M21.3273 14.6667H21.3393" stroke="#333333" stroke-width="2.5" stroke-linecap="round" stroke-linejoin="round"/>
<path opacity="0.4" d="M15.9953 14.6667H16.0073" stroke="#333333" stroke-width="2.5" stroke-linecap="round" stroke-linejoin="round"/>
<path opacity="0.4" d="M10.6593 14.6667H10.6713" stroke="#333333" stroke-width="2.5" stroke-linecap="round" stroke-linejoin="round"/>
</svg>
