<svg width="18" height="23" viewBox="0 0 18 23" fill="none" xmlns="http://www.w3.org/2000/svg">
<path d="M13.3684 0.200344L13.3688 0.200302C13.4044 0.196104 13.4434 0.19084 13.4785 0.186045L13.4875 0.184817C13.5186 0.180563 13.5466 0.176737 13.5648 0.174712L13.5648 0.174606L13.5681 0.174458C13.5889 0.173508 13.6097 0.178131 13.6287 0.189786C13.6471 0.201098 13.6611 0.217342 13.672 0.235549C13.693 0.27075 13.7067 0.320786 13.7165 0.383276C13.7363 0.509583 13.7437 0.710286 13.7437 1.00803C13.7437 2.11712 13.4768 3.07058 12.953 3.8489C12.4291 4.62726 11.6505 5.22716 10.6324 5.63272L10.6322 5.63281C10.1727 5.81337 9.48302 5.97639 9.00998 6.01514L9.00998 6.01514L9.00978 6.01515L8.62693 6.04497L8.56896 6.04948L8.57318 5.99149L8.60295 5.58271C8.60295 5.5827 8.60295 5.58269 8.60295 5.58267C8.7399 3.66325 9.44709 2.23462 10.7542 1.26178L10.7542 1.26176C11.4713 0.728673 12.5089 0.307919 13.3684 0.200344ZM10.8074 4.54554L10.8075 4.54546C11.949 3.94464 12.6752 2.83156 12.7803 1.52388C12.7866 1.43343 12.7886 1.35343 12.7866 1.29677C12.7861 1.28338 12.7854 1.27172 12.7845 1.26182C12.7627 1.26893 12.7342 1.2785 12.7008 1.29005C12.629 1.31491 12.5348 1.34879 12.4354 1.3869L12.4353 1.38694C11.286 1.8253 10.4541 2.60393 9.97903 3.68564L9.9789 3.68593C9.89943 3.8639 9.80872 4.13077 9.73777 4.37779C9.70236 4.50109 9.67208 4.6187 9.6507 4.71704C9.62903 4.81676 9.61741 4.8927 9.61741 4.93467C9.61741 4.95416 9.618 4.96653 9.6191 4.97458C9.62137 4.97453 9.6242 4.9744 9.62769 4.97409C9.64355 4.97271 9.66546 4.9688 9.69736 4.96242C9.95695 4.90361 10.5306 4.69246 10.8074 4.54554Z" fill="#333333" stroke="#333333" stroke-width="0.1"/>
<path d="M12.184 5.77126L12.1839 5.77127C11.3486 5.90851 10.6121 6.15737 9.69811 6.61489L9.69796 6.61496L9.21418 6.85917L8.76022 6.63192L8.75997 6.6318C7.51286 6.01608 6.70913 5.80862 5.65213 5.84304L5.65184 5.84305C5.37566 5.85368 5.20798 5.86332 5.06267 5.88621C4.91644 5.90924 4.79413 5.94547 4.60849 6.00742L4.6084 6.00745C3.30013 6.44692 1.98886 7.6972 1.32043 9.15561C0.785009 10.3092 0.601032 11.288 0.639475 12.7552C0.639476 12.7552 0.639477 12.7553 0.639477 12.7553L0.68946 12.754C0.714984 13.8911 0.855362 14.7003 1.23821 15.9864C1.42964 16.6295 2.52714 18.678 3.18225 19.6192L12.184 5.77126ZM12.184 5.77126C12.9538 5.64639 14.0644 5.75362 14.7747 6.02083L14.7748 6.02085C15.8236 6.41675 16.6999 7.15677 17.3052 8.15804M12.184 5.77126L14.5654 21.2617M14.5654 21.2617L14.5654 21.2616C15.6809 20.239 16.859 18.5894 17.4997 17.1567C17.6462 16.8294 17.7295 16.6316 17.7742 16.4837C17.8198 16.3329 17.8254 16.2333 17.8188 16.1031L17.8188 16.1029L17.806 15.8771L17.8041 15.8434L17.7722 15.8326L17.4956 15.7389L17.4956 15.7389C15.7518 15.15 14.6694 13.4681 14.8876 11.6911C15.043 10.4254 15.7522 9.38319 16.8782 8.7648C17.0165 8.69062 17.1475 8.6187 17.2402 8.56785C17.3085 8.53039 17.356 8.50436 17.3701 8.49728L17.3747 8.49496L17.3746 8.49474C17.394 8.4824 17.4115 8.46393 17.4187 8.43643C17.4253 8.41113 17.4211 8.38514 17.4135 8.36087C17.3985 8.31335 17.362 8.24851 17.3052 8.15804M14.5654 21.2617C14.2182 21.5794 13.9644 21.7769 13.7024 21.8943M14.5654 21.2617L13.7024 21.8943M17.3052 8.15804C17.3053 8.15816 17.3054 8.15828 17.3054 8.1584L17.2627 8.18426L17.305 8.15769C17.3051 8.15781 17.3052 8.15793 17.3052 8.15804ZM13.7024 21.8943C13.4391 22.0124 13.1716 22.0477 12.8006 22.0499L13.7024 21.8943ZM7.13304 21.911C6.57513 22.0986 5.79984 22.0332 5.24827 21.7506L10.8605 21.3866L10.8357 21.43C10.8357 21.43 10.8357 21.43 10.8357 21.43C10.3423 21.1477 9.77632 21.0753 9.05272 21.2016C8.83609 21.2395 8.57973 21.3039 8.35957 21.3716C8.24954 21.4054 8.14913 21.4399 8.06765 21.472C7.98495 21.5046 7.92554 21.5334 7.89468 21.5552C7.71458 21.6827 7.4499 21.8038 7.13312 21.911L7.13304 21.911ZM13.9041 6.74251L13.9038 6.74243C13.4054 6.62922 12.5918 6.63318 12.0449 6.74685C11.2852 6.90742 10.4522 7.2374 9.65208 7.69937C9.54298 7.76361 9.43808 7.82149 9.35754 7.86342C9.3173 7.88436 9.28275 7.90154 9.2566 7.91359C9.24361 7.91958 9.23209 7.92457 9.22271 7.92818C9.21806 7.92996 9.21328 7.93166 9.20874 7.93298C9.20548 7.93392 9.19765 7.93614 9.18875 7.93614C9.17708 7.93614 9.16587 7.93281 9.15901 7.93056C9.15073 7.92785 9.14153 7.92417 9.13193 7.91996C9.11263 7.9115 9.08888 7.89965 9.06248 7.88548C9.00961 7.85711 8.94369 7.81814 8.8769 7.77501C8.74279 7.69114 8.40473 7.50915 8.12489 7.37331C7.20658 6.93694 6.59712 6.77771 5.82382 6.77348C5.53016 6.77349 5.30778 6.79149 5.10072 6.83877C4.89389 6.886 4.70011 6.96294 4.46423 7.08312C2.83936 7.92608 1.81802 9.51986 1.57289 11.5971C1.44626 12.7129 1.64483 14.358 2.06852 15.6857C2.13529 15.8904 2.34089 16.3395 2.58782 16.8334C2.83424 17.3263 3.11965 17.8595 3.34413 18.2305L3.34422 18.2306C4.06185 19.4253 4.7935 20.3084 5.42746 20.7581L5.42753 20.7582C5.61659 20.8928 5.77105 20.9768 5.93128 21.0246C6.09133 21.0724 6.26051 21.0852 6.48042 21.0727L6.48071 21.0726C6.64648 21.0641 6.73763 21.0558 6.84004 21.0238C6.94411 20.9912 7.06131 20.9338 7.27711 20.8226L7.27742 20.8224C7.9887 20.4621 8.52215 20.3026 9.26468 20.2296L9.26497 20.2295C10.0086 20.1607 10.7555 20.2936 11.2897 20.6023L11.2899 20.6024C11.6678 20.8235 11.9352 20.9575 12.1712 21.0335C12.4056 21.1089 12.611 21.1278 12.8659 21.1152L12.8662 21.1152C13.1092 21.1047 13.2647 21.0757 13.437 20.9746C13.6129 20.8714 13.8084 20.692 14.1261 20.3719L14.1262 20.3718C14.9228 19.5742 15.5498 18.7599 16.1304 17.7628L16.1306 17.7625C16.3895 17.3248 16.6769 16.7488 16.7646 16.502L16.7646 16.502C16.7661 16.4978 16.7658 16.497 16.7652 16.4959L16.7651 16.4955C16.7632 16.4914 16.7568 16.4818 16.7366 16.4659C16.6962 16.434 16.6201 16.3915 16.4873 16.325L16.4872 16.3249C15.2138 15.6832 14.2769 14.422 14.0061 12.989L14.0061 12.989C13.9627 12.7589 13.9414 12.4264 13.9414 12.1008C13.9414 11.7755 13.9627 11.4521 14.0062 11.2406C14.1393 10.5873 14.3884 9.98485 14.7327 9.47646C14.8649 9.27914 15.0798 9.0287 15.3025 8.80042C15.525 8.57231 15.7587 8.3628 15.9289 8.24914L15.9291 8.24905L15.9299 8.24854C16.0036 8.19968 16.0529 8.16702 16.0831 8.13831C16.1115 8.11136 16.1122 8.09833 16.1098 8.08694C16.1055 8.06638 16.0858 8.03373 16.0325 7.97616C15.9826 7.92234 15.9107 7.85408 15.813 7.76141L15.8035 7.75236C15.8034 7.75231 15.8034 7.75226 15.8033 7.75221C15.2524 7.23855 14.6138 6.89807 13.9041 6.74251ZM5.39853 20.7989C4.75619 20.3432 4.02026 19.4531 3.30135 18.2564L12.8684 21.1652C12.3494 21.1907 12.0218 21.0885 11.2647 20.6456C10.7414 20.3432 10.0055 20.2112 9.26958 20.2793C8.53365 20.3517 8.00617 20.5093 7.30002 20.867C6.87038 21.0885 6.81508 21.1055 6.48327 21.1226C6.03661 21.1481 5.78138 21.0715 5.39853 20.7989Z" fill="#333333" stroke="#333333" stroke-width="0.1"/>
</svg>
