<svg width="15" height="23" viewBox="0 0 15 23" fill="none" xmlns="http://www.w3.org/2000/svg">
<path d="M2.69989 0.0988274L2.69987 0.0988331C2.04533 0.255142 1.44737 0.752859 1.14238 1.39941C1.14236 1.39944 1.14235 1.39947 1.14234 1.3995L0.954872 1.79246L0.95 1.80267V1.81398V11.0561V20.2983V20.3096L0.954872 20.3198L1.14241 20.7129C1.38184 21.2163 1.78295 21.6177 2.29723 21.8632C2.29724 21.8632 2.29724 21.8632 2.29724 21.8632L2.67821 22.0451L2.68843 22.05H2.69976H7.53528H12.3708H12.3825L12.3929 22.0448L12.7856 21.8512L12.7857 21.8512C13.2937 21.5998 13.6709 21.2222 13.922 20.7136L13.922 20.7135L14.1154 20.3203L14.1206 20.3099V20.2983V11.0561V1.81398V1.80235L14.1154 1.79191L13.9221 1.3989L2.69989 0.0988274ZM2.69989 0.0988274C2.71209 0.0959187 2.73187 0.0939102 2.75462 0.0921822C2.77882 0.0903435 2.81054 0.088562 2.8492 0.086832C2.92656 0.0833721 3.03295 0.080061 3.165 0.0769405C3.42918 0.0706978 3.79705 0.0651932 4.24297 0.060791C5.13485 0.0519867 6.33954 0.0475845 7.65262 0.0505199L12.3709 0.0622559L12.3822 0.0622826M2.69989 0.0988274L12.3822 0.0622826M12.3822 0.0622826L12.3923 0.0671349M12.3822 0.0622826L12.3923 0.0671349M12.3923 0.0671349L12.7731 0.24892C12.7731 0.248928 12.7731 0.248936 12.7731 0.248943M12.3923 0.0671349L12.7731 0.248943M10.9848 0.954439V1.23305C10.9848 1.47736 10.9566 1.67867 10.8924 1.85526C10.8281 2.03234 10.7286 2.18203 10.5896 2.32425L10.5889 2.3249C10.4938 2.41869 10.4136 2.49449 10.304 2.55142C10.1941 2.60846 10.0584 2.64486 9.85321 2.66831C9.44495 2.71496 8.74333 2.7119 7.38257 2.70311H7.38252L4.97941 2.68551L4.96446 2.6854L4.95202 2.6771L4.70599 2.51288L10.9848 0.954439ZM10.9848 0.954439H11.4799C11.8236 0.954439 12.0755 0.982237 12.2806 1.04882C12.4845 1.11497 12.6449 1.22026 12.8043 1.37988L12.8045 1.3801C12.8411 1.41625 12.8731 1.44435 12.9014 1.46927C12.9725 1.53177 13.0209 1.57433 13.0625 1.67402C13.1221 1.81632 13.1622 2.06989 13.1876 2.63116C13.2311 3.59473 13.2306 5.44141 13.2296 9.12939C13.2295 9.72266 13.2293 10.3636 13.2293 11.0561C13.2293 11.7491 13.2295 12.3904 13.2296 12.984C13.2306 16.6738 13.2311 18.5204 13.1876 19.4833C13.1622 20.0442 13.1221 20.2972 13.0626 20.439C13.0338 20.5075 13.0004 20.5502 12.9598 20.5901C12.9405 20.6091 12.9197 20.6274 12.8961 20.6481L12.8899 20.6536C12.864 20.6763 12.8353 20.7017 12.8045 20.7322L12.8041 20.7326C12.7861 20.7509 12.7693 20.7682 12.7533 20.7846C12.6655 20.8752 12.6041 20.9385 12.5064 20.9881C12.391 21.0467 12.2219 21.0869 11.898 21.1125C11.299 21.1598 10.1946 21.1559 7.97851 21.1481C7.79734 21.1474 7.60874 21.1467 7.41239 21.1461C7.41238 21.1461 7.41237 21.1461 7.41236 21.1461L2.8306 21.1285L2.56116 20.9712C2.56111 20.9711 2.56106 20.9711 2.56101 20.9711C2.25442 20.7891 1.98232 20.4473 1.89818 20.1328L1.89791 20.1318L1.89788 20.1317L10.9848 0.954439ZM2.02766 1.68112L2.02786 1.68078C2.18534 1.41131 2.36176 1.23323 2.5982 1.12048C2.83617 1.00699 3.13974 0.957352 3.55585 0.954439H4.07124L4.09755 1.37067C4.09756 1.37075 4.09756 1.37082 4.09757 1.3709C4.11245 1.65058 4.16022 1.86836 4.25799 2.05103C4.35605 2.23422 4.50204 2.37774 4.70585 2.51279L2.02766 1.68112ZM2.02766 1.68112L1.87055 1.94514L1.85299 10.9271L2.02766 1.68112ZM12.7731 0.248943C13.2703 0.482857 13.6711 0.884439 13.922 1.39875L12.7731 0.248943ZM9.9316 1.66202L9.93157 1.66198L9.93319 1.66044C9.99112 1.6052 10.0215 1.56233 10.0393 1.50439C10.0581 1.44342 10.0642 1.36228 10.0642 1.22718V0.954439H7.53528H5.00634V1.22718C5.00634 1.36228 5.01244 1.44342 5.03123 1.50439C5.04908 1.56233 5.07944 1.6052 5.13737 1.66044L5.1374 1.6604L5.13896 1.66202L5.26486 1.79333H7.53528H9.80569L9.9316 1.66202Z" fill="#333333" stroke="#333333" stroke-width="0.1"/>
<path d="M4.82726 20.1135H4.80306L4.78804 20.0945L4.67706 19.9541C4.59751 19.8584 4.55726 19.7504 4.55894 19.6439C4.56062 19.5369 4.60454 19.4353 4.68638 19.3533C4.70135 19.3383 4.7182 19.3227 4.7414 19.3087C4.76459 19.2948 4.79198 19.2838 4.82766 19.2748C4.89745 19.2572 5.00465 19.2459 5.1856 19.2382C5.54889 19.2227 6.22583 19.2213 7.53515 19.2213C8.84447 19.2213 9.52141 19.2227 9.88471 19.2382C10.0657 19.2459 10.1729 19.2572 10.2426 19.2748C10.2783 19.2838 10.3057 19.2948 10.3289 19.3087C10.3521 19.3227 10.369 19.3383 10.3839 19.3533C10.4658 19.4353 10.5097 19.5369 10.5114 19.6439C10.513 19.7504 10.4728 19.8584 10.3932 19.9541L10.2823 20.0945L10.2673 20.1135H10.243H7.53515H4.82726Z" fill="#333333" stroke="#333333" stroke-width="0.1"/>
</svg>
