<svg width="25" height="25" viewBox="0 0 25 25" fill="none" xmlns="http://www.w3.org/2000/svg">
<mask id="path-1-outside-1_1406_8720" maskUnits="userSpaceOnUse" x="0" y="0" width="25" height="25" fill="black">
<rect fill="white" width="25" height="25"/>
<path d="M12.3873 0.850172C12.0749 1.03147 12.1564 1.93342 12.5412 2.5317C12.9622 3.1889 13.6458 3.51523 14.5965 3.51977C14.9497 3.51977 15.0402 3.5379 15.2756 3.64668C15.7691 3.88236 16.0362 4.30841 16.0407 4.85683C16.0452 5.36899 15.8098 5.77238 15.3526 6.04432C15.1851 6.14404 15.0764 6.1667 14.5603 6.19843C14.2298 6.22109 13.8496 6.27094 13.7137 6.31174C13.0528 6.49757 12.5186 7.02332 12.3013 7.70319C12.2243 7.93888 12.2062 8.14283 12.1836 9.03572L12.1609 10.0918H10.7982C8.77459 10.0918 8.02761 10.0057 7.28515 9.69745C6.6106 9.42098 6.38424 9.35752 5.8772 9.33486C5.49239 9.3122 5.35205 9.3258 5.15285 9.38925C4.6277 9.56148 4.08896 10.0147 3.61814 10.6901C3.49138 10.8714 3.28765 11.0798 3.13373 11.1977C2.36411 11.7642 1.83896 12.7478 1.78011 13.7358C1.76652 13.9625 1.77105 14.2661 1.79821 14.4157C1.83443 14.6333 1.82538 14.7284 1.75747 14.9596C1.16441 16.8859 0.901833 19.075 1.03312 21.0421C1.13725 22.633 1.36361 23.3083 1.91139 23.6754C2.21471 23.8794 2.51804 23.961 3.0794 23.9927C4.18404 24.0516 5.12116 23.7525 5.74591 23.1361C6.21674 22.6738 6.48384 22.1752 6.90034 20.9696C7.18103 20.1628 7.44813 19.5917 7.62469 19.4286L7.73787 19.3243L8.00044 19.4648C8.86061 19.9226 9.91544 19.8047 10.6443 19.1611L10.8526 18.9753H12.5819H14.3113L14.5196 19.1611C15.2485 19.8047 16.3033 19.9226 17.1634 19.4648L17.426 19.3243L17.5392 19.4286C17.7158 19.5963 17.9829 20.1673 18.259 20.9696C18.5714 21.8715 18.8385 22.429 19.1463 22.8369C19.7575 23.6437 20.7852 24.0516 22.0437 23.9927C22.6413 23.961 22.9401 23.8839 23.2525 23.6754C23.8003 23.3083 24.0266 22.633 24.1308 21.0421C24.2575 19.1249 24.0312 17.108 23.4743 15.1862C23.3385 14.7148 23.3295 14.6695 23.3747 14.3296C23.5196 13.1829 22.9628 11.8821 22.0302 11.1932C21.8762 11.0798 21.6725 10.8668 21.5457 10.6901C20.8803 9.74731 20.2374 9.32126 19.4633 9.32126C18.9698 9.32126 18.6619 9.38925 18.0417 9.63853C17.1091 10.0147 16.4844 10.0918 14.3611 10.0918H12.9894V9.09011C12.9894 8.4737 13.0075 8.02046 13.0392 7.91621C13.1297 7.6216 13.3923 7.32247 13.7092 7.1593C13.9492 7.03239 14.0397 7.00973 14.3159 7.00973C15.2168 7.0052 15.7645 6.8103 16.2173 6.3344C17.0005 5.51403 17.0276 4.27668 16.2761 3.44725C15.8325 2.94868 15.4658 2.79458 14.6101 2.74925C14.0669 2.72206 13.9582 2.6994 13.7409 2.59515C13.2837 2.36853 12.9894 1.91529 12.9894 1.42579C12.9894 0.940819 12.7042 0.668875 12.3873 0.850172ZM6.23485 10.1416C6.35255 10.1734 6.63324 10.2731 6.85507 10.3683C7.54773 10.6583 7.93254 10.7354 9.20014 10.8442L9.50347 10.8714V12.1178C9.50347 12.9517 9.52157 13.4276 9.55779 13.5455C9.63475 13.8038 9.95618 14.1483 10.2188 14.248C10.4134 14.3205 10.6081 14.3296 12.5819 14.3296C14.5558 14.3296 14.7505 14.3205 14.9451 14.248C15.2077 14.1483 15.5291 13.8038 15.6061 13.5455C15.6423 13.4276 15.6604 12.9517 15.6604 12.1178V10.8714L15.9683 10.8442C17.2359 10.7354 17.6297 10.6538 18.3088 10.3637C19.1871 9.99206 19.7937 10.0011 20.2555 10.3864L20.3913 10.5042L20.1423 10.477C19.5719 10.4136 18.7253 10.6175 18.1323 10.962C17.7248 11.1977 17.177 11.7416 16.9371 12.154C16.5885 12.7478 16.3893 13.5953 16.4527 14.1936C16.4844 14.4656 16.5794 14.946 16.6338 15.0865C16.6609 15.1545 16.6247 15.159 16.2399 15.1364C15.7374 15.1046 15.4069 15.1681 15.0221 15.3584C14.6599 15.5397 14.2163 15.9613 14.0397 16.2876C13.8088 16.7318 13.7454 17.0264 13.7726 17.5431C13.7862 17.7969 13.8133 18.0462 13.8269 18.1006L13.8586 18.2048H12.5819H11.3053L11.337 18.0779C11.3506 18.0099 11.3777 17.7606 11.3913 17.5204C11.432 16.8088 11.2374 16.3057 10.7303 15.7981C10.2142 15.2859 9.68455 15.091 8.92399 15.1364C8.53918 15.159 8.50296 15.1545 8.53012 15.0865C8.72026 14.5879 8.75648 13.6452 8.60709 13.0741C8.19511 11.5331 6.8777 10.5042 5.28414 10.4861C5.01251 10.4816 4.7952 10.4725 4.7952 10.468C4.7952 10.4362 5.20265 10.187 5.31583 10.1462C5.49692 10.0827 5.97227 10.0782 6.23485 10.1416ZM14.8908 12.0815V13.3053L14.7822 13.4322L14.6735 13.5591H12.5819H10.4904L10.3817 13.4322L10.2731 13.3053V12.0815V10.8623H12.5819H14.8908V12.0815ZM20.0473 11.2747C20.2465 11.3473 20.346 11.5421 20.2781 11.7506C20.2193 11.9274 20.1197 11.9954 19.9114 11.9954C19.4904 11.9954 19.4225 11.4062 19.8254 11.2566C19.8616 11.243 19.8933 11.2294 19.8979 11.2294C19.9024 11.2249 19.9658 11.2475 20.0473 11.2747ZM4.84953 12.1132L4.86311 12.9563L4.98987 13.065C5.15738 13.2055 5.35657 13.2055 5.49692 13.0605C5.6101 12.9517 5.6101 12.9427 5.6101 12.1087V11.2611L5.75949 11.2929C6.82338 11.5195 7.66996 12.367 7.89632 13.4322L7.92801 13.5817H7.28062C6.67851 13.5817 6.62871 13.5908 6.52911 13.6815C6.4612 13.7449 6.42499 13.831 6.42499 13.9262C6.42499 14.2933 6.55175 14.3522 7.33042 14.3522C7.87368 14.3522 7.92348 14.3568 7.90085 14.4293C7.88726 14.4746 7.85557 14.6015 7.82841 14.7148C7.62016 15.5307 6.85054 16.2876 5.9768 16.5459C5.58746 16.6593 5.6101 16.6955 5.6101 15.9839C5.6101 15.3675 5.60557 15.3403 5.49692 15.2361C5.34752 15.082 5.12116 15.082 4.97176 15.2406C4.86764 15.3494 4.86311 15.3902 4.84953 15.9885L4.83142 16.623L4.69108 16.5913C4.1614 16.4825 3.74037 16.2468 3.34198 15.8525C2.94812 15.4536 2.7127 15.0321 2.60405 14.5018L2.57236 14.3613L3.20617 14.3432C3.80375 14.3296 3.8445 14.3251 3.95315 14.2208C4.1116 14.0712 4.1116 13.8446 3.95768 13.695C3.85355 13.5863 3.82639 13.5817 3.21069 13.5817C2.47729 13.5817 2.51803 13.618 2.69459 13.0922C2.91643 12.4305 3.37367 11.8866 3.98484 11.5648C4.22931 11.4379 4.64581 11.2883 4.80426 11.2747C4.82237 11.2702 4.84048 11.6509 4.84953 12.1132ZM18.8838 12.2039C18.9924 12.4033 19.332 12.6979 19.5266 12.7659C19.6217 12.7976 19.8345 12.8112 20.0065 12.8022C20.2465 12.7886 20.3596 12.7568 20.5317 12.6481C20.8123 12.4758 21.0297 12.1268 21.0749 11.7869C21.0885 11.6509 21.1157 11.5421 21.1338 11.5421C21.1519 11.5421 21.2651 11.6056 21.3873 11.6827C21.6861 11.873 22.0845 12.29 22.2384 12.5801L22.3652 12.8112H22.1705C21.4507 12.8158 20.9346 13.5727 21.1428 14.3205C21.2153 14.5925 21.6001 14.9596 21.9034 15.0502C22.0392 15.091 22.1977 15.1228 22.2565 15.1228H22.3652L22.261 15.3086C22.0981 15.5987 21.7042 16.0066 21.3964 16.206L21.1157 16.3918L21.0613 16.1018C20.9934 15.7301 20.9165 15.5805 20.6675 15.363C20.1967 14.946 19.4723 14.9913 19.0603 15.4627C18.8611 15.6938 18.7842 15.8842 18.7842 16.1652V16.3964L18.5623 16.2785C18.2454 16.1018 17.9104 15.7981 17.7022 15.4808C17.5981 15.3267 17.5166 15.1862 17.5166 15.1681C17.5166 15.15 17.6252 15.1182 17.752 15.1046C18.3722 15.0185 18.7842 14.5607 18.7842 13.9443C18.7842 13.6135 18.7117 13.4276 18.4854 13.1738C18.2635 12.9291 18.096 12.8475 17.752 12.8158L17.4668 12.7886L17.6433 12.5166C17.7384 12.367 17.9104 12.154 18.0191 12.0452C18.1277 11.9365 18.3405 11.7642 18.4899 11.6691L18.7615 11.4923L18.7887 11.7778C18.8023 11.9365 18.8476 12.1268 18.8838 12.2039ZM17.8652 13.6815C17.9331 13.7449 17.9693 13.831 17.9693 13.9307C17.9693 14.1483 17.9059 14.248 17.7248 14.3069C17.5211 14.3749 17.3219 14.2752 17.254 14.0803C17.1227 13.7086 17.5799 13.414 17.8652 13.6815ZM22.4285 13.6089C22.5417 13.6543 22.6413 13.8899 22.6096 14.035C22.5417 14.3341 22.1705 14.4338 21.9713 14.1981C21.6951 13.8809 22.0256 13.4548 22.4285 13.6089ZM2.82136 16.419C3.77206 17.3663 5.16643 17.67 6.43404 17.2077C6.63776 17.1306 6.80527 17.0717 6.80527 17.0717C6.8098 17.0717 6.8098 17.2485 6.81432 17.4706C6.81432 17.8966 6.89581 18.2229 7.09048 18.5583L7.20366 18.7532L7.01805 18.9527C6.76905 19.2246 6.48837 19.8093 6.18052 20.6976C5.83645 21.6902 5.62368 22.1163 5.28867 22.4834C4.94007 22.8641 4.53263 23.0726 3.95768 23.1769C3.43252 23.2675 2.71723 23.2403 2.47276 23.1225C1.96572 22.8823 1.78916 22.0392 1.78916 19.8591C1.78916 18.717 1.80274 18.513 1.90687 17.8105C1.97477 17.3844 2.09248 16.7635 2.17397 16.4326L2.31884 15.8298L2.40938 15.9658C2.45918 16.0383 2.6448 16.2423 2.82136 16.419ZM9.74341 16.002C10.0603 16.1562 10.3274 16.4145 10.4859 16.7182C10.599 16.9312 10.6126 17.0082 10.6126 17.389C10.6126 17.7606 10.5945 17.8558 10.4949 18.0734C10.341 18.3997 10.0603 18.6807 9.73435 18.8348C9.52157 18.9345 9.41745 18.9527 9.09602 18.9527C8.77459 18.9527 8.67047 18.9345 8.45769 18.8348C8.10004 18.6671 7.85557 18.4269 7.68354 18.0779C7.55225 17.8105 7.53414 17.7334 7.53414 17.4116C7.53867 16.9992 7.65638 16.6774 7.91895 16.3782C8.35809 15.8751 9.15487 15.712 9.74341 16.002ZM16.4798 15.9205C16.9778 16.0655 17.3762 16.4326 17.5437 16.8949C17.6479 17.185 17.6343 17.6745 17.5166 17.9872C17.3898 18.3272 17.0729 18.6626 16.7243 18.8257C16.4934 18.9345 16.3938 18.9527 16.0679 18.9527C15.7464 18.9527 15.6423 18.9345 15.4295 18.8348C14.8908 18.581 14.5694 18.1051 14.5377 17.5023C14.515 17.0354 14.6328 16.6955 14.927 16.3828C15.1805 16.1108 15.3526 16.0066 15.665 15.9205C15.9864 15.8343 16.181 15.8343 16.4798 15.9205ZM22.9899 16.4236C23.2978 17.7062 23.4245 18.9617 23.3838 20.335C23.3295 22.1933 23.1529 22.9049 22.6911 23.1225C22.4467 23.2403 21.7314 23.2675 21.2062 23.1769C20.6313 23.0726 20.2238 22.8641 19.8752 22.4834C19.5402 22.1163 19.3365 21.7038 18.9653 20.6523C18.6484 19.7594 18.4039 19.2518 18.1458 18.9617L17.9738 18.7623L18.1277 18.4541C18.2998 18.1096 18.3948 17.6609 18.3722 17.3074C18.3631 17.1805 18.3586 17.0717 18.3586 17.0717C18.3631 17.0717 18.508 17.1261 18.6755 17.1895C19.6262 17.5476 20.595 17.4977 21.4914 17.0445C21.9306 16.8224 22.4965 16.351 22.7273 16.0111C22.7862 15.9205 22.8405 15.8479 22.845 15.8479C22.845 15.8479 22.913 16.1063 22.9899 16.4236ZM20.1695 16.002C20.509 16.2921 20.1423 16.8043 19.7439 16.6003C19.5176 16.4825 19.4814 16.1879 19.667 16.0066C19.8073 15.8615 20.0065 15.8615 20.1695 16.002Z"/>
</mask>
<path d="M12.3873 0.850172C12.0749 1.03147 12.1564 1.93342 12.5412 2.5317C12.9622 3.1889 13.6458 3.51523 14.5965 3.51977C14.9497 3.51977 15.0402 3.5379 15.2756 3.64668C15.7691 3.88236 16.0362 4.30841 16.0407 4.85683C16.0452 5.36899 15.8098 5.77238 15.3526 6.04432C15.1851 6.14404 15.0764 6.1667 14.5603 6.19843C14.2298 6.22109 13.8496 6.27094 13.7137 6.31174C13.0528 6.49757 12.5186 7.02332 12.3013 7.70319C12.2243 7.93888 12.2062 8.14283 12.1836 9.03572L12.1609 10.0918H10.7982C8.77459 10.0918 8.02761 10.0057 7.28515 9.69745C6.6106 9.42098 6.38424 9.35752 5.8772 9.33486C5.49239 9.3122 5.35205 9.3258 5.15285 9.38925C4.6277 9.56148 4.08896 10.0147 3.61814 10.6901C3.49138 10.8714 3.28765 11.0798 3.13373 11.1977C2.36411 11.7642 1.83896 12.7478 1.78011 13.7358C1.76652 13.9625 1.77105 14.2661 1.79821 14.4157C1.83443 14.6333 1.82538 14.7284 1.75747 14.9596C1.16441 16.8859 0.901833 19.075 1.03312 21.0421C1.13725 22.633 1.36361 23.3083 1.91139 23.6754C2.21471 23.8794 2.51804 23.961 3.0794 23.9927C4.18404 24.0516 5.12116 23.7525 5.74591 23.1361C6.21674 22.6738 6.48384 22.1752 6.90034 20.9696C7.18103 20.1628 7.44813 19.5917 7.62469 19.4286L7.73787 19.3243L8.00044 19.4648C8.86061 19.9226 9.91544 19.8047 10.6443 19.1611L10.8526 18.9753H12.5819H14.3113L14.5196 19.1611C15.2485 19.8047 16.3033 19.9226 17.1634 19.4648L17.426 19.3243L17.5392 19.4286C17.7158 19.5963 17.9829 20.1673 18.259 20.9696C18.5714 21.8715 18.8385 22.429 19.1463 22.8369C19.7575 23.6437 20.7852 24.0516 22.0437 23.9927C22.6413 23.961 22.9401 23.8839 23.2525 23.6754C23.8003 23.3083 24.0266 22.633 24.1308 21.0421C24.2575 19.1249 24.0312 17.108 23.4743 15.1862C23.3385 14.7148 23.3295 14.6695 23.3747 14.3296C23.5196 13.1829 22.9628 11.8821 22.0302 11.1932C21.8762 11.0798 21.6725 10.8668 21.5457 10.6901C20.8803 9.74731 20.2374 9.32126 19.4633 9.32126C18.9698 9.32126 18.6619 9.38925 18.0417 9.63853C17.1091 10.0147 16.4844 10.0918 14.3611 10.0918H12.9894V9.09011C12.9894 8.4737 13.0075 8.02046 13.0392 7.91621C13.1297 7.6216 13.3923 7.32247 13.7092 7.1593C13.9492 7.03239 14.0397 7.00973 14.3159 7.00973C15.2168 7.0052 15.7645 6.8103 16.2173 6.3344C17.0005 5.51403 17.0276 4.27668 16.2761 3.44725C15.8325 2.94868 15.4658 2.79458 14.6101 2.74925C14.0669 2.72206 13.9582 2.6994 13.7409 2.59515C13.2837 2.36853 12.9894 1.91529 12.9894 1.42579C12.9894 0.940819 12.7042 0.668875 12.3873 0.850172ZM6.23485 10.1416C6.35255 10.1734 6.63324 10.2731 6.85507 10.3683C7.54773 10.6583 7.93254 10.7354 9.20014 10.8442L9.50347 10.8714V12.1178C9.50347 12.9517 9.52157 13.4276 9.55779 13.5455C9.63475 13.8038 9.95618 14.1483 10.2188 14.248C10.4134 14.3205 10.6081 14.3296 12.5819 14.3296C14.5558 14.3296 14.7505 14.3205 14.9451 14.248C15.2077 14.1483 15.5291 13.8038 15.6061 13.5455C15.6423 13.4276 15.6604 12.9517 15.6604 12.1178V10.8714L15.9683 10.8442C17.2359 10.7354 17.6297 10.6538 18.3088 10.3637C19.1871 9.99206 19.7937 10.0011 20.2555 10.3864L20.3913 10.5042L20.1423 10.477C19.5719 10.4136 18.7253 10.6175 18.1323 10.962C17.7248 11.1977 17.177 11.7416 16.9371 12.154C16.5885 12.7478 16.3893 13.5953 16.4527 14.1936C16.4844 14.4656 16.5794 14.946 16.6338 15.0865C16.6609 15.1545 16.6247 15.159 16.2399 15.1364C15.7374 15.1046 15.4069 15.1681 15.0221 15.3584C14.6599 15.5397 14.2163 15.9613 14.0397 16.2876C13.8088 16.7318 13.7454 17.0264 13.7726 17.5431C13.7862 17.7969 13.8133 18.0462 13.8269 18.1006L13.8586 18.2048H12.5819H11.3053L11.337 18.0779C11.3506 18.0099 11.3777 17.7606 11.3913 17.5204C11.432 16.8088 11.2374 16.3057 10.7303 15.7981C10.2142 15.2859 9.68455 15.091 8.92399 15.1364C8.53918 15.159 8.50296 15.1545 8.53012 15.0865C8.72026 14.5879 8.75648 13.6452 8.60709 13.0741C8.19511 11.5331 6.8777 10.5042 5.28414 10.4861C5.01251 10.4816 4.7952 10.4725 4.7952 10.468C4.7952 10.4362 5.20265 10.187 5.31583 10.1462C5.49692 10.0827 5.97227 10.0782 6.23485 10.1416ZM14.8908 12.0815V13.3053L14.7822 13.4322L14.6735 13.5591H12.5819H10.4904L10.3817 13.4322L10.2731 13.3053V12.0815V10.8623H12.5819H14.8908V12.0815ZM20.0473 11.2747C20.2465 11.3473 20.346 11.5421 20.2781 11.7506C20.2193 11.9274 20.1197 11.9954 19.9114 11.9954C19.4904 11.9954 19.4225 11.4062 19.8254 11.2566C19.8616 11.243 19.8933 11.2294 19.8979 11.2294C19.9024 11.2249 19.9658 11.2475 20.0473 11.2747ZM4.84953 12.1132L4.86311 12.9563L4.98987 13.065C5.15738 13.2055 5.35657 13.2055 5.49692 13.0605C5.6101 12.9517 5.6101 12.9427 5.6101 12.1087V11.2611L5.75949 11.2929C6.82338 11.5195 7.66996 12.367 7.89632 13.4322L7.92801 13.5817H7.28062C6.67851 13.5817 6.62871 13.5908 6.52911 13.6815C6.4612 13.7449 6.42499 13.831 6.42499 13.9262C6.42499 14.2933 6.55175 14.3522 7.33042 14.3522C7.87368 14.3522 7.92348 14.3568 7.90085 14.4293C7.88726 14.4746 7.85557 14.6015 7.82841 14.7148C7.62016 15.5307 6.85054 16.2876 5.9768 16.5459C5.58746 16.6593 5.6101 16.6955 5.6101 15.9839C5.6101 15.3675 5.60557 15.3403 5.49692 15.2361C5.34752 15.082 5.12116 15.082 4.97176 15.2406C4.86764 15.3494 4.86311 15.3902 4.84953 15.9885L4.83142 16.623L4.69108 16.5913C4.1614 16.4825 3.74037 16.2468 3.34198 15.8525C2.94812 15.4536 2.7127 15.0321 2.60405 14.5018L2.57236 14.3613L3.20617 14.3432C3.80375 14.3296 3.8445 14.3251 3.95315 14.2208C4.1116 14.0712 4.1116 13.8446 3.95768 13.695C3.85355 13.5863 3.82639 13.5817 3.21069 13.5817C2.47729 13.5817 2.51803 13.618 2.69459 13.0922C2.91643 12.4305 3.37367 11.8866 3.98484 11.5648C4.22931 11.4379 4.64581 11.2883 4.80426 11.2747C4.82237 11.2702 4.84048 11.6509 4.84953 12.1132ZM18.8838 12.2039C18.9924 12.4033 19.332 12.6979 19.5266 12.7659C19.6217 12.7976 19.8345 12.8112 20.0065 12.8022C20.2465 12.7886 20.3596 12.7568 20.5317 12.6481C20.8123 12.4758 21.0297 12.1268 21.0749 11.7869C21.0885 11.6509 21.1157 11.5421 21.1338 11.5421C21.1519 11.5421 21.2651 11.6056 21.3873 11.6827C21.6861 11.873 22.0845 12.29 22.2384 12.5801L22.3652 12.8112H22.1705C21.4507 12.8158 20.9346 13.5727 21.1428 14.3205C21.2153 14.5925 21.6001 14.9596 21.9034 15.0502C22.0392 15.091 22.1977 15.1228 22.2565 15.1228H22.3652L22.261 15.3086C22.0981 15.5987 21.7042 16.0066 21.3964 16.206L21.1157 16.3918L21.0613 16.1018C20.9934 15.7301 20.9165 15.5805 20.6675 15.363C20.1967 14.946 19.4723 14.9913 19.0603 15.4627C18.8611 15.6938 18.7842 15.8842 18.7842 16.1652V16.3964L18.5623 16.2785C18.2454 16.1018 17.9104 15.7981 17.7022 15.4808C17.5981 15.3267 17.5166 15.1862 17.5166 15.1681C17.5166 15.15 17.6252 15.1182 17.752 15.1046C18.3722 15.0185 18.7842 14.5607 18.7842 13.9443C18.7842 13.6135 18.7117 13.4276 18.4854 13.1738C18.2635 12.9291 18.096 12.8475 17.752 12.8158L17.4668 12.7886L17.6433 12.5166C17.7384 12.367 17.9104 12.154 18.0191 12.0452C18.1277 11.9365 18.3405 11.7642 18.4899 11.6691L18.7615 11.4923L18.7887 11.7778C18.8023 11.9365 18.8476 12.1268 18.8838 12.2039ZM17.8652 13.6815C17.9331 13.7449 17.9693 13.831 17.9693 13.9307C17.9693 14.1483 17.9059 14.248 17.7248 14.3069C17.5211 14.3749 17.3219 14.2752 17.254 14.0803C17.1227 13.7086 17.5799 13.414 17.8652 13.6815ZM22.4285 13.6089C22.5417 13.6543 22.6413 13.8899 22.6096 14.035C22.5417 14.3341 22.1705 14.4338 21.9713 14.1981C21.6951 13.8809 22.0256 13.4548 22.4285 13.6089ZM2.82136 16.419C3.77206 17.3663 5.16643 17.67 6.43404 17.2077C6.63776 17.1306 6.80527 17.0717 6.80527 17.0717C6.8098 17.0717 6.8098 17.2485 6.81432 17.4706C6.81432 17.8966 6.89581 18.2229 7.09048 18.5583L7.20366 18.7532L7.01805 18.9527C6.76905 19.2246 6.48837 19.8093 6.18052 20.6976C5.83645 21.6902 5.62368 22.1163 5.28867 22.4834C4.94007 22.8641 4.53263 23.0726 3.95768 23.1769C3.43252 23.2675 2.71723 23.2403 2.47276 23.1225C1.96572 22.8823 1.78916 22.0392 1.78916 19.8591C1.78916 18.717 1.80274 18.513 1.90687 17.8105C1.97477 17.3844 2.09248 16.7635 2.17397 16.4326L2.31884 15.8298L2.40938 15.9658C2.45918 16.0383 2.6448 16.2423 2.82136 16.419ZM9.74341 16.002C10.0603 16.1562 10.3274 16.4145 10.4859 16.7182C10.599 16.9312 10.6126 17.0082 10.6126 17.389C10.6126 17.7606 10.5945 17.8558 10.4949 18.0734C10.341 18.3997 10.0603 18.6807 9.73435 18.8348C9.52157 18.9345 9.41745 18.9527 9.09602 18.9527C8.77459 18.9527 8.67047 18.9345 8.45769 18.8348C8.10004 18.6671 7.85557 18.4269 7.68354 18.0779C7.55225 17.8105 7.53414 17.7334 7.53414 17.4116C7.53867 16.9992 7.65638 16.6774 7.91895 16.3782C8.35809 15.8751 9.15487 15.712 9.74341 16.002ZM16.4798 15.9205C16.9778 16.0655 17.3762 16.4326 17.5437 16.8949C17.6479 17.185 17.6343 17.6745 17.5166 17.9872C17.3898 18.3272 17.0729 18.6626 16.7243 18.8257C16.4934 18.9345 16.3938 18.9527 16.0679 18.9527C15.7464 18.9527 15.6423 18.9345 15.4295 18.8348C14.8908 18.581 14.5694 18.1051 14.5377 17.5023C14.515 17.0354 14.6328 16.6955 14.927 16.3828C15.1805 16.1108 15.3526 16.0066 15.665 15.9205C15.9864 15.8343 16.181 15.8343 16.4798 15.9205ZM22.9899 16.4236C23.2978 17.7062 23.4245 18.9617 23.3838 20.335C23.3295 22.1933 23.1529 22.9049 22.6911 23.1225C22.4467 23.2403 21.7314 23.2675 21.2062 23.1769C20.6313 23.0726 20.2238 22.8641 19.8752 22.4834C19.5402 22.1163 19.3365 21.7038 18.9653 20.6523C18.6484 19.7594 18.4039 19.2518 18.1458 18.9617L17.9738 18.7623L18.1277 18.4541C18.2998 18.1096 18.3948 17.6609 18.3722 17.3074C18.3631 17.1805 18.3586 17.0717 18.3586 17.0717C18.3631 17.0717 18.508 17.1261 18.6755 17.1895C19.6262 17.5476 20.595 17.4977 21.4914 17.0445C21.9306 16.8224 22.4965 16.351 22.7273 16.0111C22.7862 15.9205 22.8405 15.8479 22.845 15.8479C22.845 15.8479 22.913 16.1063 22.9899 16.4236ZM20.1695 16.002C20.509 16.2921 20.1423 16.8043 19.7439 16.6003C19.5176 16.4825 19.4814 16.1879 19.667 16.0066C19.8073 15.8615 20.0065 15.8615 20.1695 16.002Z" fill="#333333"/>
<path d="M12.3873 0.850172C12.0749 1.03147 12.1564 1.93342 12.5412 2.5317C12.9622 3.1889 13.6458 3.51523 14.5965 3.51977C14.9497 3.51977 15.0402 3.5379 15.2756 3.64668C15.7691 3.88236 16.0362 4.30841 16.0407 4.85683C16.0452 5.36899 15.8098 5.77238 15.3526 6.04432C15.1851 6.14404 15.0764 6.1667 14.5603 6.19843C14.2298 6.22109 13.8496 6.27094 13.7137 6.31174C13.0528 6.49757 12.5186 7.02332 12.3013 7.70319C12.2243 7.93888 12.2062 8.14283 12.1836 9.03572L12.1609 10.0918H10.7982C8.77459 10.0918 8.02761 10.0057 7.28515 9.69745C6.6106 9.42098 6.38424 9.35752 5.8772 9.33486C5.49239 9.3122 5.35205 9.3258 5.15285 9.38925C4.6277 9.56148 4.08896 10.0147 3.61814 10.6901C3.49138 10.8714 3.28765 11.0798 3.13373 11.1977C2.36411 11.7642 1.83896 12.7478 1.78011 13.7358C1.76652 13.9625 1.77105 14.2661 1.79821 14.4157C1.83443 14.6333 1.82538 14.7284 1.75747 14.9596C1.16441 16.8859 0.901833 19.075 1.03312 21.0421C1.13725 22.633 1.36361 23.3083 1.91139 23.6754C2.21471 23.8794 2.51804 23.961 3.0794 23.9927C4.18404 24.0516 5.12116 23.7525 5.74591 23.1361C6.21674 22.6738 6.48384 22.1752 6.90034 20.9696C7.18103 20.1628 7.44813 19.5917 7.62469 19.4286L7.73787 19.3243L8.00044 19.4648C8.86061 19.9226 9.91544 19.8047 10.6443 19.1611L10.8526 18.9753H12.5819H14.3113L14.5196 19.1611C15.2485 19.8047 16.3033 19.9226 17.1634 19.4648L17.426 19.3243L17.5392 19.4286C17.7158 19.5963 17.9829 20.1673 18.259 20.9696C18.5714 21.8715 18.8385 22.429 19.1463 22.8369C19.7575 23.6437 20.7852 24.0516 22.0437 23.9927C22.6413 23.961 22.9401 23.8839 23.2525 23.6754C23.8003 23.3083 24.0266 22.633 24.1308 21.0421C24.2575 19.1249 24.0312 17.108 23.4743 15.1862C23.3385 14.7148 23.3295 14.6695 23.3747 14.3296C23.5196 13.1829 22.9628 11.8821 22.0302 11.1932C21.8762 11.0798 21.6725 10.8668 21.5457 10.6901C20.8803 9.74731 20.2374 9.32126 19.4633 9.32126C18.9698 9.32126 18.6619 9.38925 18.0417 9.63853C17.1091 10.0147 16.4844 10.0918 14.3611 10.0918H12.9894V9.09011C12.9894 8.4737 13.0075 8.02046 13.0392 7.91621C13.1297 7.6216 13.3923 7.32247 13.7092 7.1593C13.9492 7.03239 14.0397 7.00973 14.3159 7.00973C15.2168 7.0052 15.7645 6.8103 16.2173 6.3344C17.0005 5.51403 17.0276 4.27668 16.2761 3.44725C15.8325 2.94868 15.4658 2.79458 14.6101 2.74925C14.0669 2.72206 13.9582 2.6994 13.7409 2.59515C13.2837 2.36853 12.9894 1.91529 12.9894 1.42579C12.9894 0.940819 12.7042 0.668875 12.3873 0.850172ZM6.23485 10.1416C6.35255 10.1734 6.63324 10.2731 6.85507 10.3683C7.54773 10.6583 7.93254 10.7354 9.20014 10.8442L9.50347 10.8714V12.1178C9.50347 12.9517 9.52157 13.4276 9.55779 13.5455C9.63475 13.8038 9.95618 14.1483 10.2188 14.248C10.4134 14.3205 10.6081 14.3296 12.5819 14.3296C14.5558 14.3296 14.7505 14.3205 14.9451 14.248C15.2077 14.1483 15.5291 13.8038 15.6061 13.5455C15.6423 13.4276 15.6604 12.9517 15.6604 12.1178V10.8714L15.9683 10.8442C17.2359 10.7354 17.6297 10.6538 18.3088 10.3637C19.1871 9.99206 19.7937 10.0011 20.2555 10.3864L20.3913 10.5042L20.1423 10.477C19.5719 10.4136 18.7253 10.6175 18.1323 10.962C17.7248 11.1977 17.177 11.7416 16.9371 12.154C16.5885 12.7478 16.3893 13.5953 16.4527 14.1936C16.4844 14.4656 16.5794 14.946 16.6338 15.0865C16.6609 15.1545 16.6247 15.159 16.2399 15.1364C15.7374 15.1046 15.4069 15.1681 15.0221 15.3584C14.6599 15.5397 14.2163 15.9613 14.0397 16.2876C13.8088 16.7318 13.7454 17.0264 13.7726 17.5431C13.7862 17.7969 13.8133 18.0462 13.8269 18.1006L13.8586 18.2048H12.5819H11.3053L11.337 18.0779C11.3506 18.0099 11.3777 17.7606 11.3913 17.5204C11.432 16.8088 11.2374 16.3057 10.7303 15.7981C10.2142 15.2859 9.68455 15.091 8.92399 15.1364C8.53918 15.159 8.50296 15.1545 8.53012 15.0865C8.72026 14.5879 8.75648 13.6452 8.60709 13.0741C8.19511 11.5331 6.8777 10.5042 5.28414 10.4861C5.01251 10.4816 4.7952 10.4725 4.7952 10.468C4.7952 10.4362 5.20265 10.187 5.31583 10.1462C5.49692 10.0827 5.97227 10.0782 6.23485 10.1416ZM14.8908 12.0815V13.3053L14.7822 13.4322L14.6735 13.5591H12.5819H10.4904L10.3817 13.4322L10.2731 13.3053V12.0815V10.8623H12.5819H14.8908V12.0815ZM20.0473 11.2747C20.2465 11.3473 20.346 11.5421 20.2781 11.7506C20.2193 11.9274 20.1197 11.9954 19.9114 11.9954C19.4904 11.9954 19.4225 11.4062 19.8254 11.2566C19.8616 11.243 19.8933 11.2294 19.8979 11.2294C19.9024 11.2249 19.9658 11.2475 20.0473 11.2747ZM4.84953 12.1132L4.86311 12.9563L4.98987 13.065C5.15738 13.2055 5.35657 13.2055 5.49692 13.0605C5.6101 12.9517 5.6101 12.9427 5.6101 12.1087V11.2611L5.75949 11.2929C6.82338 11.5195 7.66996 12.367 7.89632 13.4322L7.92801 13.5817H7.28062C6.67851 13.5817 6.62871 13.5908 6.52911 13.6815C6.4612 13.7449 6.42499 13.831 6.42499 13.9262C6.42499 14.2933 6.55175 14.3522 7.33042 14.3522C7.87368 14.3522 7.92348 14.3568 7.90085 14.4293C7.88726 14.4746 7.85557 14.6015 7.82841 14.7148C7.62016 15.5307 6.85054 16.2876 5.9768 16.5459C5.58746 16.6593 5.6101 16.6955 5.6101 15.9839C5.6101 15.3675 5.60557 15.3403 5.49692 15.2361C5.34752 15.082 5.12116 15.082 4.97176 15.2406C4.86764 15.3494 4.86311 15.3902 4.84953 15.9885L4.83142 16.623L4.69108 16.5913C4.1614 16.4825 3.74037 16.2468 3.34198 15.8525C2.94812 15.4536 2.7127 15.0321 2.60405 14.5018L2.57236 14.3613L3.20617 14.3432C3.80375 14.3296 3.8445 14.3251 3.95315 14.2208C4.1116 14.0712 4.1116 13.8446 3.95768 13.695C3.85355 13.5863 3.82639 13.5817 3.21069 13.5817C2.47729 13.5817 2.51803 13.618 2.69459 13.0922C2.91643 12.4305 3.37367 11.8866 3.98484 11.5648C4.22931 11.4379 4.64581 11.2883 4.80426 11.2747C4.82237 11.2702 4.84048 11.6509 4.84953 12.1132ZM18.8838 12.2039C18.9924 12.4033 19.332 12.6979 19.5266 12.7659C19.6217 12.7976 19.8345 12.8112 20.0065 12.8022C20.2465 12.7886 20.3596 12.7568 20.5317 12.6481C20.8123 12.4758 21.0297 12.1268 21.0749 11.7869C21.0885 11.6509 21.1157 11.5421 21.1338 11.5421C21.1519 11.5421 21.2651 11.6056 21.3873 11.6827C21.6861 11.873 22.0845 12.29 22.2384 12.5801L22.3652 12.8112H22.1705C21.4507 12.8158 20.9346 13.5727 21.1428 14.3205C21.2153 14.5925 21.6001 14.9596 21.9034 15.0502C22.0392 15.091 22.1977 15.1228 22.2565 15.1228H22.3652L22.261 15.3086C22.0981 15.5987 21.7042 16.0066 21.3964 16.206L21.1157 16.3918L21.0613 16.1018C20.9934 15.7301 20.9165 15.5805 20.6675 15.363C20.1967 14.946 19.4723 14.9913 19.0603 15.4627C18.8611 15.6938 18.7842 15.8842 18.7842 16.1652V16.3964L18.5623 16.2785C18.2454 16.1018 17.9104 15.7981 17.7022 15.4808C17.5981 15.3267 17.5166 15.1862 17.5166 15.1681C17.5166 15.15 17.6252 15.1182 17.752 15.1046C18.3722 15.0185 18.7842 14.5607 18.7842 13.9443C18.7842 13.6135 18.7117 13.4276 18.4854 13.1738C18.2635 12.9291 18.096 12.8475 17.752 12.8158L17.4668 12.7886L17.6433 12.5166C17.7384 12.367 17.9104 12.154 18.0191 12.0452C18.1277 11.9365 18.3405 11.7642 18.4899 11.6691L18.7615 11.4923L18.7887 11.7778C18.8023 11.9365 18.8476 12.1268 18.8838 12.2039ZM17.8652 13.6815C17.9331 13.7449 17.9693 13.831 17.9693 13.9307C17.9693 14.1483 17.9059 14.248 17.7248 14.3069C17.5211 14.3749 17.3219 14.2752 17.254 14.0803C17.1227 13.7086 17.5799 13.414 17.8652 13.6815ZM22.4285 13.6089C22.5417 13.6543 22.6413 13.8899 22.6096 14.035C22.5417 14.3341 22.1705 14.4338 21.9713 14.1981C21.6951 13.8809 22.0256 13.4548 22.4285 13.6089ZM2.82136 16.419C3.77206 17.3663 5.16643 17.67 6.43404 17.2077C6.63776 17.1306 6.80527 17.0717 6.80527 17.0717C6.8098 17.0717 6.8098 17.2485 6.81432 17.4706C6.81432 17.8966 6.89581 18.2229 7.09048 18.5583L7.20366 18.7532L7.01805 18.9527C6.76905 19.2246 6.48837 19.8093 6.18052 20.6976C5.83645 21.6902 5.62368 22.1163 5.28867 22.4834C4.94007 22.8641 4.53263 23.0726 3.95768 23.1769C3.43252 23.2675 2.71723 23.2403 2.47276 23.1225C1.96572 22.8823 1.78916 22.0392 1.78916 19.8591C1.78916 18.717 1.80274 18.513 1.90687 17.8105C1.97477 17.3844 2.09248 16.7635 2.17397 16.4326L2.31884 15.8298L2.40938 15.9658C2.45918 16.0383 2.6448 16.2423 2.82136 16.419ZM9.74341 16.002C10.0603 16.1562 10.3274 16.4145 10.4859 16.7182C10.599 16.9312 10.6126 17.0082 10.6126 17.389C10.6126 17.7606 10.5945 17.8558 10.4949 18.0734C10.341 18.3997 10.0603 18.6807 9.73435 18.8348C9.52157 18.9345 9.41745 18.9527 9.09602 18.9527C8.77459 18.9527 8.67047 18.9345 8.45769 18.8348C8.10004 18.6671 7.85557 18.4269 7.68354 18.0779C7.55225 17.8105 7.53414 17.7334 7.53414 17.4116C7.53867 16.9992 7.65638 16.6774 7.91895 16.3782C8.35809 15.8751 9.15487 15.712 9.74341 16.002ZM16.4798 15.9205C16.9778 16.0655 17.3762 16.4326 17.5437 16.8949C17.6479 17.185 17.6343 17.6745 17.5166 17.9872C17.3898 18.3272 17.0729 18.6626 16.7243 18.8257C16.4934 18.9345 16.3938 18.9527 16.0679 18.9527C15.7464 18.9527 15.6423 18.9345 15.4295 18.8348C14.8908 18.581 14.5694 18.1051 14.5377 17.5023C14.515 17.0354 14.6328 16.6955 14.927 16.3828C15.1805 16.1108 15.3526 16.0066 15.665 15.9205C15.9864 15.8343 16.181 15.8343 16.4798 15.9205ZM22.9899 16.4236C23.2978 17.7062 23.4245 18.9617 23.3838 20.335C23.3295 22.1933 23.1529 22.9049 22.6911 23.1225C22.4467 23.2403 21.7314 23.2675 21.2062 23.1769C20.6313 23.0726 20.2238 22.8641 19.8752 22.4834C19.5402 22.1163 19.3365 21.7038 18.9653 20.6523C18.6484 19.7594 18.4039 19.2518 18.1458 18.9617L17.9738 18.7623L18.1277 18.4541C18.2998 18.1096 18.3948 17.6609 18.3722 17.3074C18.3631 17.1805 18.3586 17.0717 18.3586 17.0717C18.3631 17.0717 18.508 17.1261 18.6755 17.1895C19.6262 17.5476 20.595 17.4977 21.4914 17.0445C21.9306 16.8224 22.4965 16.351 22.7273 16.0111C22.7862 15.9205 22.8405 15.8479 22.845 15.8479C22.845 15.8479 22.913 16.1063 22.9899 16.4236ZM20.1695 16.002C20.509 16.2921 20.1423 16.8043 19.7439 16.6003C19.5176 16.4825 19.4814 16.1879 19.667 16.0066C19.8073 15.8615 20.0065 15.8615 20.1695 16.002Z" stroke="#333333" stroke-width="0.2" mask="url(#path-1-outside-1_1406_8720)"/>
</svg>
