<svg width="30" height="23" viewBox="0 0 30 23" fill="none" xmlns="http://www.w3.org/2000/svg">
<path d="M3.69484 0.29183L3.69423 0.292135C3.66625 0.306633 3.63991 0.317814 3.61431 0.328186C3.60899 0.330339 3.60362 0.332493 3.59821 0.334656C3.57832 0.342625 3.55807 0.350735 3.53923 0.359486C3.48884 0.382887 3.44221 0.413568 3.40355 0.473116C3.36629 0.530506 3.33875 0.611168 3.31709 0.729952C3.29534 0.849216 3.27885 1.01101 3.26621 1.23359C3.22328 1.98958 3.22385 3.46818 3.22498 6.42586C3.22518 6.94744 3.2254 7.51501 3.2254 8.13273V15.4083L2.09312 17.6369L0.955423 19.8763L0.949639 19.8876L0.950023 19.9004L0.972105 20.6354C0.972106 20.6355 0.972107 20.6356 0.972109 20.6356C0.98034 20.9927 0.985812 21.1845 1.00953 21.3111C1.03453 21.4446 1.08051 21.509 1.15919 21.6103C1.2063 21.6721 1.27408 21.7397 1.34586 21.7988C1.41748 21.8577 1.49607 21.9106 1.56546 21.9408L1.58542 21.8949M3.69484 0.29183L29.1001 21.5798C29.0117 21.6959 28.8405 21.8397 28.7135 21.8949M3.69484 0.29183L3.93785 0.170187L3.94841 0.164898H3.96023H15.1495H26.3387H26.3505L26.3611 0.170187L26.6041 0.291824L26.6047 0.292141C26.6327 0.306633 26.659 0.317814 26.6846 0.328186C26.6899 0.330339 26.6953 0.332493 26.7007 0.334656C26.7206 0.342625 26.7408 0.350735 26.7597 0.359486C26.8101 0.382887 26.8567 0.413568 26.8954 0.473116C26.9326 0.530506 26.9602 0.611168 26.9818 0.729952C27.0036 0.849216 27.0201 1.01101 27.0327 1.23359C27.0756 1.98958 27.0751 3.46815 27.0739 6.4258C27.0737 6.94739 27.0735 7.51499 27.0735 8.13273V15.4083M3.69484 0.29183L27.0735 15.4083M1.58542 21.8949L1.56488 21.9405C1.62941 21.9696 1.70647 21.9888 1.98033 22.0033C2.25526 22.0179 2.73494 22.0279 3.60983 22.0348C5.36012 22.0486 8.69617 22.05 15.1495 22.05C21.6027 22.05 24.9388 22.0486 26.6891 22.0348C27.564 22.0279 28.0436 22.0179 28.3186 22.0033C28.592 21.9888 28.6693 21.9697 28.7337 21.9407C28.7338 21.9406 28.7339 21.9406 28.734 21.9405L28.7135 21.8949M1.58542 21.8949C1.45839 21.8397 1.28719 21.6959 1.19882 21.5798L28.7135 21.8949M1.58542 21.8949C1.80633 21.9945 2.24263 22 15.1495 22C28.0563 22 28.4926 21.9945 28.7135 21.8949M29.3268 20.6354L29.3268 20.6358C29.3186 20.9928 29.3131 21.1845 29.2894 21.3111C29.2644 21.4446 29.2184 21.5089 29.1398 21.6102L29.2768 20.6343L29.3268 20.6354ZM29.3268 20.6354L29.3489 19.9004L29.3493 19.8876L29.3435 19.8763L28.2058 17.6369L27.0735 15.4083M29.3268 20.6354L27.0735 15.4083M27.2108 17.7207L27.2108 17.7208C27.6321 18.555 27.99 19.2701 28.0959 19.482C28.0911 19.4823 28.0861 19.4825 28.0808 19.4828C28.022 19.4859 27.9341 19.4888 27.8199 19.4915C27.5917 19.4969 27.2601 19.5016 26.8498 19.5054C26.0292 19.513 24.8944 19.5171 23.6435 19.5171H19.1364L18.9035 18.6638L18.9035 18.6636C18.7767 18.2057 18.69 17.9258 18.5998 17.7432C18.5543 17.6509 18.507 17.5817 18.452 17.526C18.3969 17.4702 18.3358 17.43 18.265 17.3939M27.2108 17.7207L12.0848 17.3783C12.1044 17.3744 12.1285 17.3708 12.1567 17.3674C12.213 17.3606 12.2877 17.3543 12.3777 17.3486C12.558 17.3371 12.8022 17.3276 13.0886 17.32C13.6617 17.3048 14.4057 17.2972 15.1495 17.2972C15.8932 17.2972 16.6372 17.3048 17.2103 17.32C17.4967 17.3276 17.7409 17.3371 17.9212 17.3486C18.0112 17.3543 18.0859 17.3606 18.1423 17.3674C18.1704 17.3708 18.1946 17.3744 18.2141 17.3783C18.2322 17.382 18.2509 17.3867 18.265 17.3939M27.2108 17.7207L26.3299 15.9679H15.1495H3.96897L3.08812 17.7207L3.08807 17.7208C2.66676 18.555 2.30893 19.2701 2.203 19.482M27.2108 17.7207L2.203 19.482M18.265 17.3939L18.2422 17.4384L18.265 17.3939C18.265 17.3939 18.265 17.3939 18.265 17.3939ZM2.203 19.482C2.20776 19.4823 2.21278 19.4825 2.21806 19.4828C2.27688 19.4859 2.36478 19.4888 2.47897 19.4915C2.7072 19.4969 3.03879 19.5016 3.44914 19.5054C4.26976 19.513 5.40453 19.5171 6.65536 19.5171H11.1625L11.3954 18.6638L11.3955 18.6636C11.5222 18.2057 11.609 17.9258 11.6991 17.7432C11.7446 17.6509 11.7919 17.5817 11.8469 17.526C11.902 17.4703 11.9631 17.4301 12.0339 17.3939L2.203 19.482ZM18.0284 19L18.0283 18.9997C17.9624 18.7576 17.8855 18.4773 17.8576 18.3766L17.8089 18.2348H15.1495H12.49L12.4413 18.3766C12.4134 18.4773 12.3366 18.7576 12.2706 18.9997L12.2705 19C12.2374 19.1189 12.2042 19.2366 12.1772 19.3295C12.1601 19.3883 12.1449 19.4391 12.1337 19.4738C12.1483 19.4767 12.1683 19.4796 12.1949 19.4824C12.2828 19.4918 12.4296 19.4988 12.6577 19.504C13.1134 19.5144 13.8873 19.5171 15.1495 19.5171C16.4116 19.5171 17.1855 19.5144 17.6412 19.504C17.8694 19.4988 18.0161 19.4918 18.104 19.4824C18.1306 19.4796 18.1506 19.4767 18.1652 19.4738C18.154 19.4391 18.1388 19.3883 18.1217 19.3295C18.0947 19.2366 18.0615 19.1189 18.0284 19ZM15.1495 15.0385H26.1451V8.06638V1.09428H15.1495H4.15382V8.06638V15.0385H15.1495ZM28.3446 21.0895L28.357 21.0888C28.3682 21.0824 28.3811 21.0682 28.3914 21.0238C28.4038 20.9706 28.4094 20.8859 28.4094 20.7504V20.4465H15.1495H1.88947V20.7504C1.88947 20.8859 1.89513 20.9706 1.9075 21.0238C1.91781 21.0682 1.93067 21.0824 1.94192 21.0888L1.95428 21.0895C1.96799 21.0902 1.988 21.0908 2.01432 21.0915C2.06686 21.0928 2.14338 21.094 2.2424 21.0952C2.44039 21.0976 2.72766 21.0999 3.09153 21.102C3.81925 21.1061 4.85298 21.1096 6.09077 21.1123C8.56632 21.1179 11.8579 21.1206 15.1495 21.1206C18.441 21.1206 21.7326 21.1179 24.2081 21.1123C25.4459 21.1096 26.4797 21.1061 27.2074 21.102C27.5713 21.0999 27.8585 21.0976 28.0565 21.0952C28.1555 21.094 28.232 21.0928 28.2846 21.0915C28.3109 21.0908 28.3309 21.0902 28.3446 21.0895Z" fill="#333333" stroke="#333333" stroke-width="0.1"/>
<path d="M5.12568 2.20515C5.02074 2.32126 5.01522 2.41526 4.99865 4.66012L5.44049 1.94583C5.46467 1.94215 5.496 1.9388 5.53512 1.93569C5.61344 1.92946 5.72572 1.92399 5.88013 1.91914C6.1891 1.90945 6.66923 1.90219 7.38896 1.89666C8.82855 1.8856 11.2284 1.88145 15.1385 1.87869H15.1385C15.5203 1.87869 15.8872 1.87867 16.2398 1.87866C20.6333 1.87847 22.8104 1.87838 23.9143 1.90912C24.5087 1.92567 24.7975 1.95117 24.9541 1.99229C25.0344 2.01338 25.0838 2.03947 25.1222 2.07305C25.1408 2.0893 25.1558 2.10634 25.1694 2.12266C25.1733 2.12741 25.1771 2.132 25.1808 2.13653C25.1904 2.14818 25.1996 2.15941 25.2106 2.17164C25.2412 2.20552 25.2658 2.24016 25.2837 2.30955C25.3006 2.37506 25.3118 2.47225 25.3201 2.63176C25.3367 2.9518 25.3422 3.53802 25.3505 4.65975V4.6599C25.3533 5.29863 25.3533 5.89459 25.3505 6.33924C25.3491 6.56153 25.3471 6.74617 25.3443 6.87949C25.3429 6.94612 25.3414 7.00019 25.3396 7.03985C25.3387 7.05965 25.3378 7.0762 25.3368 7.08907C25.3359 7.10022 25.3347 7.11217 25.3326 7.12094C25.3215 7.16908 25.2887 7.21817 25.2502 7.25967C25.2108 7.30217 25.1608 7.34167 25.1085 7.36938L25.1086 7.36939L25.1075 7.36991C24.8744 7.48661 24.611 7.40691 24.4987 7.16965L24.4986 7.16968L24.4977 7.16728C24.4901 7.14901 24.4849 7.12191 24.4807 7.09081C24.4761 7.05812 24.472 7.01589 24.4682 6.96419C24.4606 6.8607 24.4542 6.71694 24.449 6.53108C24.4387 6.15923 24.4331 5.61682 24.4331 4.88682V2.80807H15.1496H5.86603V4.88682C5.86603 5.61682 5.86051 6.15923 5.85013 6.53108C5.84495 6.71694 5.83854 6.8607 5.83095 6.96419C5.82716 7.01589 5.82303 7.05812 5.81852 7.09081C5.81423 7.12191 5.80904 7.14901 5.80152 7.16728L5.80158 7.16731L5.80048 7.16965C5.68822 7.40691 5.4248 7.48661 5.19166 7.36991L5.19166 7.36992L5.19063 7.36938C5.13835 7.34167 5.08839 7.30217 5.04898 7.25967C5.01044 7.21812 4.97761 7.16898 4.9665 7.12079L5.01522 7.10956L4.96671 7.12167C4.96451 7.11285 4.9633 7.10053 4.9624 7.08907C4.96138 7.0762 4.96045 7.05965 4.95957 7.03985C4.95782 7.00019 4.95626 6.94612 4.95488 6.87949C4.95211 6.74617 4.95004 6.56153 4.94865 6.33924C4.94589 5.89459 4.94589 5.29863 4.94865 4.6599L4.94865 4.65975C4.95693 3.53802 4.96245 2.9518 4.9791 2.63176C4.98739 2.47225 4.99858 2.37506 5.01548 2.30955C5.03327 2.24056 5.05767 2.20592 5.08804 2.17222M5.12568 2.20515L5.08749 2.17287C5.08767 2.17266 5.08786 2.17244 5.08804 2.17222M5.12568 2.20515C5.18643 2.13327 5.31345 2.0448 5.40182 2.0061L5.12568 2.20515ZM5.08804 2.17222C5.15479 2.09361 5.28797 2.0014 5.38166 1.96034L5.08804 2.17222Z" fill="#333333" stroke="#333333" stroke-width="0.1"/>
<path d="M25.345 8.98632L25.3613 9.00119V9.02323V11.34C25.3613 12.6097 25.36 13.2676 25.3181 13.6272C25.2972 13.807 25.2655 13.9203 25.2132 13.9995C25.1598 14.0804 25.0886 14.1199 25.0081 14.1602C24.9811 14.1741 24.9414 14.1835 24.8821 14.1912C24.821 14.1992 24.7336 14.2061 24.6073 14.2121C24.3545 14.224 23.9417 14.2327 23.2635 14.2389C21.9066 14.2513 19.4846 14.2541 15.1493 14.2541C10.814 14.2541 8.39195 14.2513 7.03512 14.2389C6.35686 14.2327 5.94403 14.224 5.69126 14.2121C5.56497 14.2061 5.47755 14.1992 5.41649 14.1912C5.35688 14.1834 5.31711 14.174 5.29011 14.16L5.31315 14.1156L5.29046 14.1602C5.21118 14.1198 5.14075 14.0803 5.08765 13.9995C5.03573 13.9205 5.0038 13.8075 4.98253 13.628C4.93997 13.269 4.9373 12.6125 4.9373 11.3455V11.3414C4.9373 10.2005 4.9373 9.62329 4.95255 9.31587C4.96015 9.16266 4.97168 9.07153 4.9908 9.00974C5.01123 8.94373 5.04023 8.91206 5.07223 8.87855C5.2586 8.67386 5.57067 8.68604 5.73892 8.89816L5.73893 8.89816L5.7394 8.89877C5.76907 8.93739 5.79426 8.97404 5.81269 9.04129C5.83026 9.10542 5.84147 9.1964 5.84909 9.34411C5.86436 9.64019 5.86573 10.1796 5.86573 11.2239V13.3247H15.1493H24.4328V11.2239C24.4328 10.1796 24.4342 9.64019 24.4495 9.34411C24.4571 9.1964 24.4683 9.10542 24.4859 9.04129C24.5043 8.97404 24.5295 8.93739 24.5592 8.89877L24.5595 8.89831C24.7233 8.69019 25.0172 8.68162 25.2182 8.8704C25.2183 8.8705 25.2184 8.8706 25.2185 8.87069L25.345 8.98632Z" fill="#333333" stroke="#333333" stroke-width="0.1"/>
</svg>
