<svg width="18" height="23" viewBox="0 0 18 23" fill="none" xmlns="http://www.w3.org/2000/svg">
<path d="M1.94323 8.52415L1.94314 8.52424C1.70892 8.75873 1.48844 8.9848 1.32214 9.16036C1.23902 9.24811 1.16922 9.32347 1.11795 9.38105C1.09233 9.40982 1.07107 9.43445 1.05498 9.45413C1.03992 9.47256 1.0266 9.48996 1.01969 9.50294L1.01931 9.50365L1.01931 9.50365C1.00435 9.53287 0.994269 9.58155 0.986404 9.63636C0.978173 9.69372 0.971423 9.76563 0.966063 9.84673C0.955334 10.0091 0.95 10.2109 0.95 10.4124C0.95 10.6138 0.955334 10.8157 0.966063 10.9781C0.971423 11.0592 0.978173 11.1311 0.986404 11.1884C0.994269 11.2432 1.00435 11.2919 1.01932 11.3211L1.01968 11.3219L1.01969 11.3219C1.03075 11.3426 1.05254 11.3718 1.07924 11.4047C1.10681 11.4387 1.14224 11.4797 1.18297 11.525C1.26448 11.6158 1.36827 11.725 1.47516 11.832L1.47535 11.8322L1.84769 12.2009V12.8999V13.6034L1.45795 13.9977L1.4578 13.9979C1.34639 14.1116 1.24024 14.2285 1.15855 14.3254C1.11773 14.3738 1.0827 14.4175 1.05606 14.4536C1.03064 14.4879 1.00948 14.5197 1.00037 14.5425L1.00002 14.5433L1.00003 14.5433C0.995631 14.555 0.993354 14.5713 0.991725 14.5853C0.989843 14.6014 0.988092 14.6222 0.98644 14.647C0.983128 14.6966 0.980082 14.7643 0.977283 14.8472C0.971683 15.013 0.967024 15.2414 0.9633 15.5116C0.95585 16.0522 0.952127 16.7614 0.952127 17.4755C0.952127 18.1896 0.95585 18.9089 0.9633 19.4697C0.967024 19.75 0.971682 19.991 0.977279 20.172C0.982801 20.3505 0.989313 20.4758 0.997646 20.5205L0.99767 20.5206H0.99767C1.13764 21.2607 1.74058 21.8643 2.48405 22.0044L2.49331 21.9553L2.48375 22.0044C2.49745 22.007 2.52295 22.0089 2.55508 22.0106C2.58875 22.0124 2.63369 22.0141 2.68897 22.0157C2.7996 22.019 2.95266 22.022 3.14197 22.0248C3.52063 22.0304 4.04503 22.0351 4.66649 22.0388C5.90946 22.0463 7.54114 22.05 9.17278 22.05C10.8044 22.05 12.4361 22.0463 13.6791 22.0388C14.3005 22.0351 14.8249 22.0304 15.2036 22.0248C15.3929 22.022 15.546 22.019 15.6566 22.0157C15.7119 22.0141 15.7568 22.0124 15.7905 22.0106L1.94323 8.52415ZM1.94323 8.52415L2.78366 7.68693M1.94323 8.52415L2.78366 7.68693M17.2988 20.5114L17.3479 20.5206C17.3506 20.5063 17.3524 20.4745 17.3541 20.4325C17.3559 20.3883 17.3576 20.3279 17.3592 20.2524C17.3625 20.1014 17.3655 19.8893 17.3683 19.625C17.3739 19.0963 17.3785 18.358 17.3823 17.48C17.3897 15.7239 17.3934 13.4089 17.3934 11.0939C17.3934 8.77889 17.3897 6.46385 17.3823 4.70783C17.3785 3.82983 17.3739 3.09151 17.3683 2.56279C17.3655 2.29845 17.3625 2.08636 17.3592 1.93536C17.3576 1.85989 17.3559 1.79946 17.3541 1.75531C17.3524 1.71328 17.3506 1.6815 17.3479 1.66715L17.2988 1.67644L17.3479 1.66714C17.2079 0.927078 16.605 0.323483 15.8615 0.183374L15.8609 0.18327C15.8387 0.179337 15.7863 0.176235 15.7099 0.173386C15.6317 0.170465 15.5242 0.167713 15.3883 0.165148C15.1163 0.160019 14.73 0.155624 14.2359 0.152163C13.2476 0.145241 11.8276 0.142046 10.0279 0.144176C7.76458 0.146305 6.35292 0.1495 5.48369 0.15802C5.04913 0.162281 4.74969 0.167875 4.54702 0.175356C4.3468 0.182747 4.23603 0.192045 4.18307 0.205273M17.2988 20.5114L2.9145 1.45921M17.2988 20.5114L17.3479 20.5206C17.2079 21.2607 16.605 21.8642 15.8617 22.0044L17.2988 20.5114ZM4.18307 0.205273C4.18302 0.205282 4.18298 0.205294 4.18294 0.205303L4.19508 0.253807L4.18319 0.205242C4.18315 0.205252 4.18311 0.205263 4.18307 0.205273ZM4.18307 0.205273C3.57417 0.354429 3.08081 0.818888 2.86719 1.44302M2.86719 1.44302C2.86721 1.44297 2.86723 1.44292 2.86724 1.44287L2.9145 1.45921M2.86719 1.44302C2.82621 1.56159 2.80602 1.66852 2.79538 2.09634C2.78472 2.52466 2.78366 3.28045 2.78366 4.70058V7.68693M2.86719 1.44302L2.9145 1.45921M2.9145 1.45921L2.78366 7.68693M5.48547 1.15478L5.06641 1.14715C4.68425 1.14078 4.43439 1.16787 4.25428 1.24824C4.0779 1.32694 3.96274 1.45948 3.85734 1.68089L3.85692 1.68174C3.82215 1.75135 3.80051 1.81497 3.78931 2.23946C3.77816 2.66189 3.77709 3.43302 3.77709 4.90929C3.77709 6.20399 3.77497 6.97864 3.76645 7.44187C3.76219 7.67335 3.75633 7.82808 3.74822 7.93143C3.74418 7.98308 3.7395 8.0229 3.73395 8.05355C3.72853 8.08353 3.72173 8.10801 3.71187 8.12693L3.71166 8.12733C3.70475 8.1403 3.69143 8.1577 3.67637 8.17613C3.66028 8.19582 3.63902 8.22045 3.6134 8.24921C3.56213 8.3068 3.49233 8.38215 3.40921 8.4699C3.24291 8.64546 3.02243 8.87154 2.7882 9.10603L2.78812 9.10612L1.94769 9.94333V10.4124V10.8815L2.35851 11.2928C2.50576 11.4402 2.61669 11.5598 2.69484 11.656C2.77178 11.7507 2.8212 11.8277 2.83912 11.8892L2.83924 11.8896C2.84667 11.916 2.85221 11.9645 2.85687 12.0241C2.86168 12.0856 2.86586 12.164 2.8694 12.2536C2.87647 12.4329 2.881 12.6582 2.8826 12.8851C2.8842 13.112 2.88287 13.3409 2.8782 13.527C2.8736 13.7102 2.86571 13.8579 2.85291 13.9191C2.85287 13.9193 2.85284 13.9195 2.8528 13.9197L5.48547 1.15478ZM15.0652 1.13438H14.6683L2.37173 14.5405L1.94769 14.9774V17.5596C1.94769 18.4391 1.95194 19.1075 1.95991 19.5745C1.9639 19.8081 1.96881 19.991 1.97456 20.1247C1.98037 20.2595 1.98693 20.3405 1.99344 20.3734C2.05754 20.6693 2.33177 20.9437 2.62726 21.0077C2.63265 21.0088 2.6503 21.0108 2.68414 21.0128C2.71636 21.0148 2.75986 21.0167 2.81408 21.0186C2.92245 21.0223 3.0725 21.0257 3.25844 21.0289C3.63025 21.0353 4.1447 21.0406 4.75436 21.0449C5.97363 21.0534 7.57317 21.0577 9.17278 21.0577C10.7724 21.0577 12.3719 21.0534 13.5912 21.0449C14.2009 21.0406 14.7153 21.0353 15.0871 21.0289C15.2731 21.0257 15.4231 21.0223 15.5315 21.0186C15.5857 21.0167 15.6292 21.0148 15.6614 21.0128C15.6952 21.0108 15.7129 21.0088 15.7183 21.0077C16.0139 20.9437 16.2883 20.6691 16.3522 20.373L16.3522 20.373C16.3522 20.373 16.3523 20.3726 16.3524 20.3717L16.353 20.3673L16.3544 20.3522C16.3553 20.3395 16.3563 20.3225 16.3573 20.3011C16.3593 20.2584 16.3612 20.1995 16.363 20.1252C16.3668 19.9767 16.3702 19.7678 16.3734 19.5071C16.3798 18.9857 16.3851 18.2576 16.3894 17.3917C16.3979 15.6598 16.4021 13.3769 16.4021 11.0939C16.4021 8.81092 16.3979 6.52799 16.3894 4.79613C16.3851 3.93019 16.3798 3.20212 16.3734 2.68073C16.3702 2.42001 16.3668 2.21113 16.363 2.0626C16.3612 1.9883 16.3593 1.92935 16.3573 1.88666C16.3563 1.86528 16.3553 1.84828 16.3544 1.83561L16.353 1.82047L16.3524 1.8161C16.3523 1.81513 16.3522 1.81472 16.3522 1.81474C16.3337 1.7305 16.3129 1.6701 16.2788 1.61243C16.2443 1.55412 16.1948 1.49596 16.1151 1.41835L16.1144 1.41756C15.9975 1.29851 15.8964 1.22977 15.7476 1.18905C15.5953 1.14737 15.3909 1.13438 15.0652 1.13438Z" fill="#333333" stroke="#333333" stroke-width="0.1"/>
</svg>
