<svg width="28" height="24" viewBox="0 0 28 24" fill="none" xmlns="http://www.w3.org/2000/svg">
<path d="M1.97443 1.05837L1.97396 1.05851C1.78964 1.11822 1.6282 1.2266 1.42625 1.42346L1.42591 1.42378C1.39645 1.45361 1.36891 1.47878 1.34292 1.50214C1.33883 1.50582 1.33477 1.50946 1.33074 1.51307C1.3093 1.53228 1.2887 1.55075 1.26939 1.56963C1.22288 1.61511 1.18285 1.66392 1.14924 1.73785C1.08296 1.88363 1.04259 2.12541 1.01723 2.63148C0.973729 3.49977 0.974253 5.15857 0.975302 8.47664C0.975478 9.03339 0.975669 9.63686 0.975669 10.2911C0.975669 10.9514 0.975474 11.5599 0.975295 12.1208C0.974238 15.4245 0.973708 17.0801 1.01657 17.9475C1.0416 18.4539 1.08147 18.6958 1.14699 18.8407C1.18025 18.9142 1.21988 18.9623 1.26598 19.0068C1.28559 19.0257 1.30653 19.0441 1.32831 19.0632C1.33178 19.0662 1.33527 19.0693 1.33877 19.0724C1.36449 19.095 1.39171 19.1193 1.42084 19.1481L1.43843 19.1304M1.97443 1.05837L10.9812 19.7224L11.0021 19.6095H6.6546C6.39204 19.6095 6.14396 19.6095 5.90951 19.6096C3.90315 19.6102 2.89465 19.6105 2.34145 19.5625C2.0324 19.5357 1.86182 19.4936 1.73787 19.426C1.63842 19.3717 1.56985 19.301 1.48524 19.2138C1.46489 19.1929 1.4436 19.1709 1.42074 19.148L1.43843 19.1304M1.97443 1.05837C2.00553 1.04895 2.05614 1.04114 2.13927 1.03427C2.22291 1.02736 2.34114 1.0213 2.50854 1.01597C2.84338 1.00532 3.37619 0.997564 4.22501 0.991955C5.92275 0.980734 8.88562 0.978094 14.0596 0.978094C15.1599 0.977659 16.1616 0.976974 17.0736 0.976351C21.7089 0.973186 24.0297 0.971601 25.2239 1.01243C25.5813 1.02465 25.8384 1.04068 26.0267 1.06168C26.2147 1.08265 26.3356 1.10872 26.4199 1.14168C26.5054 1.17512 26.5527 1.21548 26.5938 1.26294C26.6077 1.27909 26.6212 1.2964 26.635 1.31406C26.6408 1.32147 26.6467 1.32895 26.6526 1.33643C26.673 1.36213 26.6957 1.38931 26.7248 1.41841C26.7552 1.44888 26.7837 1.47453 26.8105 1.49826C26.8155 1.5027 26.8205 1.50709 26.8254 1.51143C26.8467 1.53017 26.8672 1.54819 26.8864 1.56653C26.9343 1.61234 26.9757 1.66128 27.0103 1.73556C27.0787 1.88204 27.1201 2.1251 27.1454 2.63611C27.1889 3.51269 27.1855 5.19054 27.1786 8.55393C27.1775 9.11921 27.1763 9.7321 27.1751 10.3968L27.1593 18.5021L27.1626 18.5021L27.1564 18.5138L27.0299 18.7512C27.0298 18.7512 27.0298 18.7512 27.0298 18.7512C26.8589 19.0775 26.6708 19.2714 26.3549 19.4376C26.3549 19.4376 26.3548 19.4376 26.3548 19.4376L26.0913 19.5801L26.0929 19.583L26.0795 19.5831L21.6017 19.5989L17.159 19.6094M1.97443 1.05837L17.159 19.6094M1.43843 19.1304C1.36917 19.0618 1.31081 19.0188 1.26163 18.967C0.973737 18.6639 1.00067 18.0617 1.00067 10.2911C1.00067 2.52711 0.973844 1.92203 1.26317 1.6117C1.31327 1.55796 1.37286 1.51307 1.4437 1.44136L6.6546 19.5845C2.53409 19.5845 1.98689 19.6023 1.65789 19.3431C1.58599 19.2864 1.52451 19.2165 1.43843 19.1304ZM17.159 19.6094L17.18 19.7274C17.1801 19.7275 17.1801 19.7276 17.1801 19.7277C17.1857 19.756 17.196 19.8099 17.2091 19.8792C17.2146 19.9079 17.2205 19.9393 17.2269 19.9725C17.2486 20.0867 17.275 20.2239 17.3013 20.3558L17.3014 20.3559L17.3924 20.8267H18.3369H18.3413C18.8173 20.8267 19.061 20.8267 19.2009 20.8434C19.2716 20.8519 19.3184 20.8648 19.3562 20.8855C19.3937 20.9061 19.4204 20.9335 19.4517 20.9661C19.4831 20.9963 19.5094 21.0228 19.5296 21.0577C19.5501 21.0931 19.5633 21.1354 19.5721 21.1967C19.5896 21.3177 19.5908 21.5208 19.5908 21.9078C19.5908 22.2949 19.5896 22.4979 19.5721 22.6189C19.5633 22.6802 19.5501 22.7225 19.5296 22.7579C19.5094 22.7928 19.4831 22.8194 19.4517 22.8495C19.4515 22.8496 19.4514 22.8498 19.4513 22.8499L19.3254 22.9812L19.3181 22.9889H19.3074H14.0807H8.85394H8.84328L8.8359 22.9812L8.70968 22.8495C8.67824 22.8194 8.65189 22.7928 8.63171 22.7579C8.61128 22.7225 8.59806 22.6802 8.58922 22.6189C8.57175 22.4979 8.5705 22.2949 8.5705 21.9078C8.5705 21.5208 8.57175 21.3177 8.58922 21.1967C8.59806 21.1354 8.61128 21.0931 8.63171 21.0577C8.65189 21.0228 8.67824 20.9962 8.70968 20.9661C8.74092 20.9335 8.76769 20.9061 8.80515 20.8855C8.84292 20.8648 8.88969 20.8519 8.96042 20.8434C9.10034 20.8267 9.344 20.8267 9.82004 20.8267H9.82439H10.7689L10.86 20.3559L10.86 20.3558C10.9066 20.1227 10.9531 19.873 10.9743 19.7598C10.977 19.7449 10.9794 19.7323 10.9812 19.7225L17.159 19.6094ZM26.0989 2.06126L26.0984 2.06071L25.937 1.89405L14.1439 1.8835C10.9003 1.88086 7.9389 1.8835 5.78114 1.8901C4.70225 1.8934 3.82432 1.89769 3.21249 1.90281C2.90657 1.90536 2.66725 1.90813 2.50262 1.91108C2.42029 1.91255 2.35676 1.91407 2.31297 1.91562C2.29104 1.9164 2.27426 1.91719 2.26261 1.91796C2.25675 1.91836 2.25247 1.91873 2.2496 1.91906L2.24762 1.91934C2.22254 1.92875 2.18474 1.95281 2.14281 1.98575C2.10092 2.01865 2.05705 2.05871 2.02105 2.09732L1.89589 2.23265L1.88009 9.214L1.88009 9.21402L1.86958 16.1801H14.0807H26.2918L26.2812 9.20874L26.2654 2.22288L26.0989 2.06126ZM26.2812 17.7094L26.2813 17.7092L26.3015 17.0749H14.0807H1.8598L1.88008 17.7092L1.88008 17.7094L1.89566 18.3592L2.06237 18.521L2.06238 18.521L2.06292 18.5216L2.22432 18.6882H14.0807H25.937L26.0984 18.5216L26.099 18.521L26.2657 18.3592L26.2812 17.7094ZM16.3451 20.0751L16.3451 20.0751L16.2541 19.6095H14.0807H11.9072L11.8162 20.0751L11.8162 20.0751C11.785 20.2344 11.7536 20.4001 11.73 20.5249C11.7139 20.6101 11.7014 20.6763 11.6949 20.7085C11.6949 20.7086 11.6949 20.7087 11.6949 20.7088L11.6738 20.8267H14.0807H16.4917L16.4665 20.7091L16.4665 20.7088C16.46 20.6767 16.4475 20.6104 16.4313 20.5249C16.4077 20.4001 16.3763 20.2344 16.3451 20.0751ZM9.46438 22.094H14.0807H18.697V21.9078V21.7216H14.0807H9.46438V21.9078V22.094Z" fill="#015699" stroke="#015699" stroke-width="0.05"/>
</svg>
