<svg width="16" height="23" viewBox="0 0 16 23" fill="none" xmlns="http://www.w3.org/2000/svg">
<path d="M1.04149 18.9751C1.09681 19.3543 1.33086 19.8187 1.58619 20.0445M1.04149 18.9751L0.992064 18.9827C0.992056 18.9826 0.992047 18.9826 0.992039 18.9825C1.02065 19.1785 1.09502 19.3945 1.19425 19.59C1.29337 19.7852 1.41918 19.9635 1.55306 20.0819L1.55317 20.082C1.64422 20.1621 1.78811 20.2567 1.93628 20.3395C2.08409 20.4221 2.2405 20.4952 2.35817 20.5309C2.36162 20.5321 2.36252 20.5329 2.36265 20.533L2.36266 20.533C2.36269 20.533 2.36422 20.5342 2.3666 20.5392C2.37229 20.551 2.3788 20.5756 2.38378 20.6276C2.3936 20.7301 2.39578 20.9147 2.39578 21.2544V22V22.05H2.44578H3.5522H4.65861H4.70861V22V21.2757V20.6015H8.27573H11.8428V21.2757V22V22.05H11.8928H12.9993H14.1057H14.1557V22V21.2544C14.1557 20.9146 14.1579 20.7302 14.1682 20.6279C14.1734 20.576 14.1803 20.5517 14.1861 20.5402C14.1885 20.5355 14.1901 20.5342 14.1905 20.534L14.1905 20.534C14.1909 20.5336 14.1924 20.5325 14.1972 20.531L14.1823 20.4833M1.04149 18.9751C0.98617 18.613 0.98617 2.13392 1.04149 1.77179M1.04149 18.9751L0.992014 18.9824L1.04149 1.77179M1.58619 20.0445L2.49985 0.178831C2.52948 0.177168 2.56886 0.175573 2.61716 0.174038C2.71382 0.170965 2.84725 0.168102 3.01206 0.165445C3.34175 0.160133 3.79776 0.15564 4.33792 0.151978C5.41828 0.144653 6.83572 0.140659 8.25337 0.140127C9.67102 0.139595 11.089 0.142523 12.1704 0.149048C12.7111 0.152311 13.1678 0.156471 13.4983 0.161552C13.6635 0.164091 13.7973 0.166862 13.8945 0.169872C13.943 0.171375 13.9826 0.172947 14.0125 0.174593C14.0408 0.176157 14.0638 0.177929 14.0768 0.180424M1.58619 20.0445C1.76066 20.1979 2.1479 20.4151 2.37344 20.4833L1.58619 20.0445ZM14.1823 20.4833L14.197 20.5311C14.3125 20.4955 14.4682 20.4222 14.6158 20.3395C14.7634 20.2567 14.9072 20.1621 14.9983 20.082L14.9984 20.0819C15.1323 19.9635 15.2581 19.7852 15.3572 19.59C15.4565 19.3945 15.5308 19.1784 15.5594 18.9824C15.5617 18.9675 15.5634 18.9375 15.565 18.8969C15.5666 18.8547 15.5682 18.7978 15.5697 18.7273C15.5727 18.5864 15.5755 18.3904 15.5781 18.1473C15.5833 17.6612 15.5876 16.9863 15.5911 16.1855C15.598 14.5839 15.6015 12.4787 15.6015 10.3735C15.6015 8.26827 15.598 6.16304 15.5911 4.56145C15.5876 3.76066 15.5833 3.0857 15.5781 2.59958C15.5755 2.35654 15.5727 2.16056 15.5697 2.01961C15.5682 1.94916 15.5666 1.89227 15.565 1.85003C15.5634 1.80947 15.5617 1.77941 15.5594 1.76457M14.1823 20.4833C14.4036 20.4151 14.7908 20.1979 14.9653 20.0445C15.2206 19.8187 15.4546 19.3543 15.51 18.9751L11.8928 20.6015V21.2757V21.95V22H11.9429H12.9993H14.0557H14.1057V21.95V21.2544C14.1057 20.577 14.1142 20.5046 14.1823 20.4833ZM15.5594 1.76457C15.4501 0.977156 14.8344 0.325111 14.0768 0.180424M15.5594 1.76457C15.5595 1.76469 15.5595 1.7648 15.5595 1.76492L15.51 1.77179L15.5594 1.76424C15.5594 1.76435 15.5594 1.76446 15.5594 1.76457ZM14.0768 0.180424L14.0674 0.229536L14.0769 0.180454C14.0769 0.180445 14.0768 0.180433 14.0768 0.180424ZM1.04149 1.77179L0.991992 1.76472C1.10115 0.999737 1.7158 0.32551 2.43608 0.184746L0.986504 18.8969C0.984867 18.8547 0.983293 18.7978 0.981778 18.7273C0.978747 18.5864 0.975935 18.3904 0.973341 18.1473C0.968153 17.6612 0.963831 16.9863 0.960373 16.1855C0.953458 14.5839 0.95 12.4787 0.95 10.3735C0.95 8.26827 0.953458 6.16304 0.960373 4.56145C0.963831 3.76066 0.968153 3.0857 0.973341 2.59958C0.975935 2.35654 0.978747 2.16056 0.981778 2.01961C0.983293 1.94916 0.984867 1.89227 0.986504 1.85003C0.988088 1.80916 0.989816 1.77895 0.992064 1.76424L1.04149 1.77179ZM14.0323 1.02315L14.0315 1.02291L14.0314 1.02288C14.0312 1.02284 14.0309 1.02275 14.0304 1.02264L14.0274 1.02199L14.0169 1.02027C14.0082 1.01902 13.9966 1.01772 13.9822 1.01639C13.9535 1.01374 13.9147 1.01114 13.8665 1.0086C13.77 1.00354 13.637 0.998838 13.4724 0.994503C13.1434 0.985834 12.6895 0.978664 12.1523 0.972973C11.0779 0.961594 9.67089 0.956135 8.26404 0.9564C6.85719 0.956667 5.45069 0.962658 4.37736 0.974173C3.84066 0.979929 3.38745 0.987066 3.05921 0.995552C2.89505 0.999796 2.76245 1.00437 2.6664 1.00926C2.61834 1.01171 2.57983 1.01422 2.55128 1.01676C2.53698 1.01804 2.52557 1.01929 2.5169 1.02049L2.50661 1.02214L2.50367 1.02275C2.50329 1.02284 2.50303 1.0229 2.50288 1.02294C2.24946 1.10371 2.00915 1.32319 1.89124 1.57956C1.89122 1.57959 1.89121 1.57963 1.8912 1.57966L1.79364 1.79535V10.3479C1.79364 13.8095 1.79577 15.9576 1.80374 17.2563C1.80773 17.9057 1.81318 18.3424 1.82055 18.6246C1.82423 18.7657 1.82839 18.8677 1.83303 18.9381C1.83536 18.9734 1.83777 19.0001 1.84023 19.0197C1.84146 19.0295 1.84265 19.037 1.84376 19.0427L1.84521 19.0492L1.84571 19.0511C1.8458 19.0513 1.84586 19.0515 1.84589 19.0516L1.84591 19.0517L1.84591 19.0517L1.84616 19.0524C1.93125 19.2958 2.10994 19.5036 2.34655 19.6343L2.34668 19.6344L2.56514 19.7559H8.27573H13.9863L14.2048 19.6344L14.2049 19.6343C14.4415 19.5036 14.6202 19.2958 14.7053 19.0524L14.7056 19.0517L14.7056 19.0516C14.7056 19.0515 14.7057 19.0513 14.7058 19.0511L14.7063 19.0492L14.7077 19.0427C14.7088 19.037 14.71 19.0295 14.7112 19.0197C14.7137 19.0001 14.7161 18.9734 14.7184 18.9381C14.7231 18.8677 14.7272 18.7657 14.7309 18.6246C14.7383 18.3424 14.7437 17.9057 14.7477 17.2563C14.7557 15.9576 14.7578 13.8095 14.7578 10.3479V1.79535L14.6601 1.57937L14.66 1.57912C14.5424 1.31511 14.2984 1.09984 14.0323 1.02315ZM3.57347 21.2257H3.88519V20.9136V20.6015H3.57347H3.26176V20.9136V21.2257H3.57347ZM12.978 21.2257H13.2897V20.9136V20.6015H12.978H12.6663V20.9136V21.2257H12.978Z" fill="#333333" stroke="#333333" stroke-width="0.1"/>
<path d="M7.72026 1.65016L7.72056 1.65009C8.52774 1.47631 9.391 1.70644 10.003 2.26264C10.3416 2.56686 10.5631 2.90645 10.7231 3.36536L10.7231 3.36544C10.7766 3.51982 10.8086 3.62955 10.8273 3.74726C10.8461 3.86457 10.8514 3.98806 10.8535 4.1694H10.8535V4.16999C10.8535 4.8944 10.6017 5.51217 10.0984 6.01598C9.09586 7.01972 7.45993 7.01961 6.45319 6.01605L6.45312 6.01598C5.94566 5.50793 5.69805 4.90294 5.69804 4.16999L5.69805 4.1694C5.70018 3.98806 5.7055 3.86457 5.7242 3.74726C5.74297 3.62955 5.77493 3.51982 5.82847 3.36544L5.82847 3.36543L5.82868 3.36483C5.90161 3.16297 6.03087 2.88178 6.12356 2.74472C6.47119 2.22278 7.11197 1.78501 7.72026 1.65016ZM8.53998 2.45127L8.53998 2.45127L8.53917 2.45113C8.40266 2.42628 8.26805 2.41405 8.23498 2.4136C7.15257 2.49772 6.40179 3.40148 6.54229 4.44014C6.63325 5.09808 7.12588 5.67429 7.76261 5.86889C7.88996 5.90733 8.08122 5.92745 8.27578 5.92745C8.47034 5.92745 8.6616 5.90733 8.78895 5.86889C9.60315 5.62057 10.1294 4.78786 10.0135 3.92973C9.91024 3.19809 9.29361 2.57564 8.53998 2.45127Z" fill="#333333" stroke="#333333" stroke-width="0.1"/>
<path d="M7.99426 3.09545C8.6991 2.90341 9.39786 3.44375 9.39786 4.18322C9.39786 4.49818 9.30381 4.74077 9.08606 4.96767L9.08602 4.96771C8.97184 5.08642 8.85573 5.17191 8.72356 5.22733C8.59147 5.28271 8.44625 5.30684 8.27549 5.30684C8.10474 5.30684 7.95952 5.28271 7.82743 5.22733C7.69525 5.17191 7.57915 5.08642 7.46497 4.96771L7.46493 4.96767C7.24711 4.74069 7.15312 4.49807 7.15312 4.17896C7.15312 3.66587 7.48796 3.23329 7.99426 3.09545ZM7.99426 3.09545L8.0074 3.14369M7.99426 3.09545C7.99426 3.09545 7.99426 3.09545 7.99427 3.09545L8.0074 3.14369M8.0074 3.14369C7.52228 3.27577 7.20312 3.68902 7.20312 4.17896C7.20312 4.48571 7.29249 4.71577 7.50101 4.93305H9.04998C9.2585 4.71577 9.34786 4.48571 9.34786 4.18322C9.34786 3.476 8.67976 2.9605 8.0074 3.14369ZM8.06687 4.40213L8.06687 4.40212L8.06727 4.4025C8.26052 4.58502 8.56593 4.45092 8.56593 4.18748C8.56593 4.12958 8.5396 4.05467 8.50077 3.99317C8.48166 3.96288 8.46098 3.93824 8.44167 3.92179C8.42124 3.90437 8.40809 3.90092 8.40316 3.90092C8.38941 3.90092 8.37026 3.89788 8.35351 3.89473C8.33538 3.89133 8.31525 3.88685 8.2974 3.88238L8.29736 3.88252L8.29371 3.8813C8.2855 3.87856 8.26943 3.87718 8.24506 3.88116C8.22163 3.88498 8.19454 3.89311 8.16692 3.90489C8.11025 3.92907 8.05988 3.96485 8.03534 3.99925L8.03538 3.99928L8.03397 4.00107C7.99768 4.04731 7.98018 4.12464 7.98702 4.20677C7.99385 4.2889 8.02392 4.36243 8.06687 4.40213Z" fill="#333333" stroke="#333333" stroke-width="0.1"/>
<path d="M7.64521 8.27144C7.64559 8.27137 7.64597 8.2713 7.64634 8.27123L7.63722 8.22207C7.69679 8.21355 8.04149 8.20929 8.4032 8.21781L7.64521 8.27144ZM7.64521 8.27144C7.67217 8.26782 7.7685 8.26461 7.90729 8.26355C8.04561 8.26248 8.22169 8.26355 8.40202 8.26779L8.40233 8.2678C8.88966 8.27629 9.14952 8.30593 9.41265 8.36863C10.8758 8.73598 12.0383 9.63453 12.7336 10.9466L12.7336 10.9466C13.4706 12.3336 13.4791 14.144 12.7503 15.5611C11.878 17.2572 10.1844 18.2947 8.27553 18.2947C5.80658 18.2947 3.78834 16.5956 3.32029 14.1263C3.27018 13.8544 3.25416 13.4709 3.26898 13.0851C3.2838 12.6993 3.3293 12.3155 3.40037 12.0435C3.7713 10.6256 4.70258 9.46143 5.98331 8.80767L5.98336 8.80764C6.54376 8.52079 6.89205 8.41128 7.64521 8.27144ZM7.3013 7.4911L7.30132 7.49109C7.7919 7.40923 8.70366 7.40926 9.20682 7.49103C10.9627 7.7704 12.4734 8.8278 13.3786 10.4083L13.3787 10.4084C14.3061 12.0333 14.3705 14.1769 13.5289 15.8535C12.5892 17.7349 10.8463 18.9255 8.75653 19.106C6.36522 19.3166 4.08195 18.01 3.01345 15.8232L3.01341 15.8231C2.60992 14.9937 2.43389 14.2023 2.43389 13.2493L2.43389 13.2491C2.43818 12.2057 2.68278 11.2684 3.17237 10.4085L3.17243 10.4084C4.06476 8.84927 5.57959 7.7791 7.3013 7.4911Z" fill="#333333" stroke="#333333" stroke-width="0.1"/>
<path d="M10.1138 17.2737L10.1136 17.2738C9.41596 17.5971 8.64965 17.7263 7.85819 17.6531C6.0539 17.4936 4.55634 16.2347 4.03589 14.452C3.96421 14.2084 3.91599 13.8719 3.89619 13.5334C3.87639 13.1947 3.88478 12.8499 3.92814 12.5893C4.22087 10.7667 5.58546 9.34044 7.40549 8.95702C8.15104 8.79741 9.12699 8.87477 9.81722 9.14685C11.1203 9.65921 12.0376 10.629 12.4635 11.9343C12.6317 12.4439 12.6789 12.8591 12.6532 13.4941L12.6532 13.4941C12.6059 14.6532 12.162 15.6325 11.3187 16.4423L11.3185 16.4425C10.9063 16.8336 10.5998 17.0455 10.1138 17.2737ZM9.1776 9.79983L9.17732 9.79976C9.00251 9.7524 8.69683 9.72264 8.3859 9.71467C8.07509 9.70671 7.76702 9.72072 7.58773 9.75785C6.2697 10.031 5.20341 11.0187 4.82981 12.3088C4.63715 12.9797 4.68333 13.9142 4.93897 14.5688C5.5853 16.2201 7.37771 17.1654 9.09368 16.758C10.4578 16.4302 11.507 15.3462 11.784 13.9637L11.7841 13.9634C11.8297 13.7431 11.8447 13.4377 11.832 13.1304C11.8193 12.8232 11.7792 12.5186 11.7169 12.3001C11.5238 11.628 11.0614 10.9213 10.5293 10.4934L10.5293 10.4934C10.3799 10.3729 10.1334 10.2235 9.8766 10.0915C9.61972 9.95949 9.35751 9.84745 9.1776 9.79983Z" fill="#333333" stroke="#333333" stroke-width="0.1"/>
<path d="M9.60045 14.5708L9.60054 14.5708C10.4148 13.7555 10.2529 12.3246 9.27266 11.7068L9.2726 11.7068C8.82639 11.4265 8.1594 11.343 7.68022 11.5146M9.60045 14.5708L7.69702 11.5617M9.60045 14.5708C8.68337 15.4846 7.14785 15.237 6.60913 14.0751M9.60045 14.5708L6.65444 14.054M7.68022 11.5146C7.6802 11.5146 7.68018 11.5146 7.68016 11.5146L7.69702 11.5617M7.68022 11.5146C7.68024 11.5146 7.68025 11.5146 7.68026 11.5146L7.69702 11.5617M7.68022 11.5146C6.62277 11.8908 6.13278 13.0599 6.60913 14.0751M7.69702 11.5617C6.66721 11.9281 6.1906 13.0656 6.65444 14.054M6.60913 14.0751C6.60911 14.0751 6.6091 14.0751 6.60908 14.075L6.65444 14.054M6.60913 14.0751C6.60915 14.0752 6.60916 14.0752 6.60918 14.0752L6.65444 14.054M7.92428 12.2955L7.92429 12.2955L7.92314 12.2958C7.88083 12.3075 7.8268 12.3355 7.76658 12.3767C7.70701 12.4175 7.64406 12.4696 7.58418 12.5266C7.46318 12.642 7.36086 12.7723 7.32219 12.8668C7.28042 12.9746 7.25762 13.1192 7.25658 13.2646C7.25555 13.4103 7.27642 13.551 7.31766 13.6514C7.56205 14.2343 8.21934 14.4725 8.75816 14.1806C9.11234 13.9848 9.29813 13.6693 9.29813 13.2658C9.29813 13.1439 9.26518 12.9629 9.22919 12.8665C9.18839 12.7658 9.0852 12.6357 8.9625 12.5218C8.83925 12.4073 8.70604 12.3181 8.61137 12.2915C8.52378 12.2677 8.39585 12.255 8.26586 12.2555C8.13562 12.2561 8.00916 12.2698 7.92428 12.2955Z" fill="#333333" stroke="#333333" stroke-width="0.1"/>
</svg>
