<svg width="17" height="16" viewBox="0 0 17 16" fill="none" xmlns="http://www.w3.org/2000/svg">
<path d="M10.3816 1.15653L11.7916 3.99563C11.9816 4.38827 12.4916 4.76078 12.9216 4.84132L15.4716 5.26416C17.1016 5.53599 17.4816 6.72398 16.3116 7.91198L14.3216 9.91545C13.9916 10.2477 13.8016 10.9021 13.9116 11.3753L14.4816 13.8519C14.9316 15.8051 13.8916 16.5702 12.1816 15.5433L9.79164 14.1137C9.36164 13.8519 8.64164 13.8519 8.21164 14.1137L5.82164 15.5433C4.11164 16.5602 3.07164 15.8051 3.52164 13.8519L4.09164 11.3753C4.18164 10.892 3.99164 10.2376 3.66164 9.90539L1.67164 7.90191C0.501641 6.72398 0.881641 5.53599 2.51164 5.2541L5.06164 4.83125C5.49164 4.76078 6.00164 4.37821 6.19164 3.98556L7.60164 1.14647C8.37164 -0.383829 9.61164 -0.383829 10.3816 1.15653Z" fill="#80AACC"/>
</svg>
