<svg width="20" height="20" viewBox="0 0 20 20" fill="none" xmlns="http://www.w3.org/2000/svg">
<path d="M9.9987 7.50008V1.66675L8.33203 3.33341" stroke="white" stroke-width="1.5" stroke-linecap="round" stroke-linejoin="round"/>
<path d="M10 1.66675L11.6667 3.33341" stroke="white" stroke-width="1.5" stroke-linecap="round" stroke-linejoin="round"/>
<path d="M1.64844 10.8333H5.32344C5.6401 10.8333 5.92344 11.0083 6.0651 11.2916L7.0401 13.2416C7.32344 13.8083 7.89844 14.1666 8.53177 14.1666H11.4734C12.1068 14.1666 12.6818 13.8083 12.9651 13.2416L13.9401 11.2916C14.0818 11.0083 14.3734 10.8333 14.6818 10.8333H18.3151" stroke="white" stroke-width="1.5" stroke-linecap="round" stroke-linejoin="round"/>
<path d="M5.83464 4.2749C2.88464 4.70824 1.66797 6.44157 1.66797 9.9999V12.4999C1.66797 16.6666 3.33464 18.3332 7.5013 18.3332H12.5013C16.668 18.3332 18.3346 16.6666 18.3346 12.4999V9.9999C18.3346 6.44157 17.118 4.70824 14.168 4.2749" stroke="white" stroke-width="1.5" stroke-linecap="round" stroke-linejoin="round"/>
</svg>
