<svg width="20" height="20" viewBox="0 0 20 20" fill="none" xmlns="http://www.w3.org/2000/svg">
<path d="M8.74375 1.8583L4.58542 3.42497C3.62708 3.7833 2.84375 4.91663 2.84375 5.9333V12.125C2.84375 13.1083 3.49375 14.4 4.28542 14.9916L7.86875 17.6666C9.04375 18.55 10.9771 18.55 12.1521 17.6666L15.7354 14.9916C16.5271 14.4 17.1771 13.1083 17.1771 12.125V5.9333C17.1771 4.9083 16.3938 3.77497 15.4354 3.41663L11.2771 1.8583C10.5687 1.59997 9.43542 1.59997 8.74375 1.8583Z" stroke="white" stroke-width="1.5" stroke-linecap="round" stroke-linejoin="round"/>
<path d="M9.9987 10.4166C10.9192 10.4166 11.6654 9.67039 11.6654 8.74992C11.6654 7.82944 10.9192 7.08325 9.9987 7.08325C9.07822 7.08325 8.33203 7.82944 8.33203 8.74992C8.33203 9.67039 9.07822 10.4166 9.9987 10.4166Z" stroke="white" stroke-width="1.5" stroke-miterlimit="10" stroke-linecap="round" stroke-linejoin="round"/>
<path d="M10 10.4167V12.9167" stroke="white" stroke-width="1.5" stroke-miterlimit="10" stroke-linecap="round" stroke-linejoin="round"/>
</svg>
