<svg width="80" height="131" viewBox="0 0 80 131" fill="none" xmlns="http://www.w3.org/2000/svg">
<path d="M11.9251 0.338654C7.88357 1.20929 3.84207 4.02603 1.89297 7.32931C-0.113446 10.7606 0.00120607 6.63792 0.00120607 65.4824C0.00120607 124.301 -0.113446 120.204 1.89297 123.61C3.98538 127.195 8.45683 130.114 12.8136 130.754C14.1895 130.959 22.3298 131.036 41.1328 130.985L67.5029 130.908L69.366 130.319C74.4967 128.706 78.5955 124.609 79.656 120.076C80.1147 118.156 80.1147 12.8092 79.656 10.8886C78.5955 6.35624 74.6687 2.38719 69.5666 0.722748L67.5029 0.0569763L40.5595 0.00575256C18.0303 -0.0198517 13.3296 0.0313721 11.9251 0.338654ZM66.6143 6.20261C68.6207 6.66353 70.5412 7.81583 71.6877 9.22421C73.4935 11.452 73.3788 7.71341 73.3788 65.4824C73.3788 123.251 73.4935 119.513 71.6877 121.741C71.2004 122.33 70.2545 123.149 69.538 123.584C66.9296 125.197 67.4742 125.172 39.241 125.095L13.6162 125.018L12.0111 124.352C9.97598 123.507 8.42817 122.125 7.48228 120.307L6.73704 118.873V65.4824V12.0922L7.48228 10.6582C8.7148 8.32797 10.9505 6.66353 13.6735 6.10018C14.2754 5.97215 26.056 5.86972 39.843 5.84412C61.369 5.81851 65.1812 5.86972 66.6143 6.20261Z" fill="#CCCCCC"/>
<path d="M30.2604 17.5146C28.8676 18.6669 28.7699 20.7155 30.0893 22.0214L30.8223 22.764L40.1073 22.8408C50.3451 22.9176 50.6872 22.8664 51.4446 21.33C52.0799 20.0753 51.9089 18.8462 50.9804 17.8731L50.1496 17.0025H40.4982C31.2866 17.0025 30.8468 17.0281 30.2604 17.5146Z" fill="#CCCCCC"/>
<path d="M38.2529 102.695C35.5407 104.053 34.2701 106.844 35.052 109.66C35.8095 112.349 37.8131 113.962 40.4031 113.962C43.4329 113.962 45.6808 111.914 46.0962 108.764C46.6826 104.411 42.0157 100.8 38.2529 102.695Z" fill="#CCCCCC"/>
</svg>
