<svg width="141" height="141" viewBox="0 0 141 141" fill="none" xmlns="http://www.w3.org/2000/svg">
<path d="M70.5 0C31.56 0 0 31.5601 0 70.5C0 109.44 31.56 141 70.5 141C109.44 141 141 109.44 141 70.5C141 31.5771 109.423 0 70.5 0ZM70.5 134.895C34.9949 134.895 6.10455 106.005 6.10455 70.5C6.10455 34.9949 34.9949 6.10455 70.5 6.10455C106.005 6.10455 134.895 34.9949 134.895 70.5C134.878 106.005 106.005 134.895 70.5 134.895Z" fill="#CCCCCC"/>
<path d="M92.3534 21.1705L92.4044 72.9317C92.4214 74.9382 91.4352 76.8427 89.7858 77.982L70.5028 91.2454L51.4069 77.982C49.7575 76.8257 48.7713 74.9382 48.7883 72.9317L48.8393 21.1024C55.471 18.1777 62.7999 16.5453 70.5198 16.5453C78.2738 16.5283 85.6537 18.1947 92.3534 21.1705Z" fill="#CCCCCC"/>
<path d="M70.5001 124.471C40.7425 124.471 16.5283 100.257 16.5283 70.499C16.5283 53.5457 24.4013 38.3948 36.6615 28.4983V77.9299C36.6615 80.6846 38.0048 83.2523 40.2664 84.8337L66.368 102.858C68.8507 104.576 72.1325 104.576 74.6151 102.875L100.887 84.8507C103.148 83.2863 104.492 80.7016 104.492 77.9469V28.6513C116.667 38.5479 124.455 53.6477 124.455 70.533C124.455 100.257 100.258 124.471 70.5001 124.471Z" fill="#CCCCCC"/>
</svg>
