<svg width="131" height="131" viewBox="0 0 131 131" fill="none" xmlns="http://www.w3.org/2000/svg">
<path d="M87.3334 10.9167H43.6667C21.8334 10.9167 10.9167 21.8334 10.9167 43.6667V114.625C10.9167 117.627 13.373 120.083 16.3751 120.083H87.3334C109.167 120.083 120.083 109.167 120.083 87.3334V43.6667C120.083 21.8334 109.167 10.9167 87.3334 10.9167Z" stroke="#CCCCCC" stroke-width="7.5" stroke-linecap="round" stroke-linejoin="round"/>
<path d="M70.466 42.7934L42.1372 71.1222C41.0456 72.2138 40.0085 74.3426 39.7902 75.8709L38.2619 86.6784C37.716 90.6084 40.4452 93.3376 44.3752 92.7918L55.1826 91.2634C56.7109 91.0451 58.8398 90.008 59.9315 88.9164L88.2602 60.5876C93.1181 55.7297 95.4652 50.053 88.2602 42.848C81.0552 35.5884 75.3785 37.8809 70.466 42.7934Z" stroke="#CCCCCC" stroke-width="7.5" stroke-miterlimit="10" stroke-linecap="round" stroke-linejoin="round"/>
<path d="M66.4275 46.8328C68.8292 55.4023 75.5429 62.1707 84.1671 64.5723" stroke="#CCCCCC" stroke-width="7.5" stroke-miterlimit="10" stroke-linecap="round" stroke-linejoin="round"/>
</svg>
