<svg width="120" height="120" viewBox="0 0 120 120" fill="none" xmlns="http://www.w3.org/2000/svg">
<path d="M49.9507 113.9C46.9507 113.9 44.1007 112.4 42.1507 109.75L36.1508 101.75C36.1508 101.8 35.9008 101.65 35.8008 101.65H33.9508C16.8508 101.65 6.25073 97 6.25073 73.95V53.95C6.25073 32.9 19.1008 27.4 29.9008 26.45C31.1008 26.3 32.5008 26.25 33.9508 26.25H65.9507C84.0507 26.25 93.6508 35.85 93.6508 53.95V73.95C93.6508 75.4 93.6007 76.8 93.4007 78.15C92.5007 88.8 87.0007 101.65 65.9507 101.65H63.9508L57.7507 109.75C55.8007 112.4 52.9507 113.9 49.9507 113.9ZM33.9508 33.75C32.8008 33.75 31.7008 33.8 30.6508 33.9C19.0508 34.9 13.7507 41.25 13.7507 53.95V73.95C13.7507 91.1 19.0508 94.1499 33.9508 94.1499H35.9507C38.2007 94.1499 40.7507 95.4 42.1507 97.2L48.1508 105.25C49.2508 106.75 50.6508 106.75 51.7508 105.25L57.7507 97.2501C59.2007 95.3001 61.5008 94.1499 63.9508 94.1499H65.9507C78.6507 94.1499 85.0007 88.8001 85.9507 77.4001C86.1007 76.2001 86.1508 75.1 86.1508 73.95V53.95C86.1508 40 79.9007 33.75 65.9507 33.75H33.9508Z" fill="#CCCCCC"/>
<path d="M49.9511 70.95C47.1511 70.95 44.951 68.7 44.951 65.95C44.951 63.2 47.2011 60.95 49.9511 60.95C52.7011 60.95 54.9511 63.2 54.9511 65.95C54.9511 68.7 52.7511 70.95 49.9511 70.95Z" fill="#CCCCCC"/>
<path d="M65.9467 70.95C63.1467 70.95 60.9467 68.7 60.9467 65.95C60.9467 63.2 63.1967 60.95 65.9467 60.95C68.6967 60.95 70.9467 63.2 70.9467 65.95C70.9467 68.7 68.6967 70.95 65.9467 70.95Z" fill="#CCCCCC"/>
<path d="M33.9993 70.95C31.1993 70.95 28.9993 68.7 28.9993 65.95C28.9993 63.2 31.2493 60.95 33.9993 60.95C36.7493 60.95 38.9993 63.2 38.9993 65.95C38.9993 68.7 36.7493 70.95 33.9993 70.95Z" fill="#CCCCCC"/>
<path d="M89.6982 81.45C88.6982 81.45 87.6982 81.05 86.9982 80.3C86.1982 79.5 85.8483 78.3501 85.9983 77.2501C86.1483 76.2001 86.1982 75.1 86.1982 73.95V53.95C86.1982 40 79.9483 33.75 65.9983 33.75H33.9982C32.8482 33.75 31.7483 33.8 30.6983 33.9C29.5983 34.05 28.4482 33.6499 27.6482 32.8999C26.8482 32.0999 26.3982 31.0001 26.4982 29.9001C27.3982 19.1001 32.9482 6.25 53.9982 6.25H85.9983C104.098 6.25 113.698 15.85 113.698 33.95V53.95C113.698 75 100.848 80.5 90.0483 81.45C89.8983 81.45 89.7982 81.45 89.6982 81.45ZM34.5983 26.25H65.9482C84.0482 26.25 93.6483 35.85 93.6483 53.95V73.3C102.148 71.2 106.148 64.95 106.148 53.95V33.95C106.148 20 99.8982 13.75 85.9482 13.75H53.9483C42.9483 13.75 36.7483 17.75 34.5983 26.25Z" fill="#CCCCCC"/>
</svg>
