<svg width="131" height="131" viewBox="0 0 131 131" fill="none" xmlns="http://www.w3.org/2000/svg">
<path d="M57.2588 12.1721L30.0217 22.4338C23.7446 24.7809 18.6138 32.2042 18.6138 38.8634V79.4188C18.6138 85.8596 22.8713 94.3201 28.0567 98.1955L51.5275 115.717C59.2238 121.503 71.8871 121.503 79.5833 115.717L103.054 98.1955C108.24 94.3201 112.497 85.8596 112.497 79.4188V38.8634C112.497 32.1496 107.366 24.7263 101.089 22.3792L73.8521 12.1721C69.2125 10.4801 61.7892 10.4801 57.2588 12.1721Z" stroke="#CCCCCC" stroke-width="7.5" stroke-linecap="round" stroke-linejoin="round"/>
<path d="M65.5 68.2291C71.5291 68.2291 76.4166 63.3415 76.4166 57.3124C76.4166 51.2833 71.5291 46.3958 65.5 46.3958C59.4709 46.3958 54.5833 51.2833 54.5833 57.3124C54.5833 63.3415 59.4709 68.2291 65.5 68.2291Z" stroke="#CCCCCC" stroke-width="7.5" stroke-miterlimit="10" stroke-linecap="round" stroke-linejoin="round"/>
<path d="M65.5 68.2292V84.6042" stroke="#CCCCCC" stroke-width="7.5" stroke-miterlimit="10" stroke-linecap="round" stroke-linejoin="round"/>
</svg>
