<svg width="24" height="24" viewBox="0 0 24 24" fill="none" xmlns="http://www.w3.org/2000/svg">
<path d="M12.0147 2.90991C8.70472 2.90991 6.01472 5.59991 6.01472 8.90991V11.7999C6.01472 12.4099 5.75472 13.3399 5.44472 13.8599L4.29472 15.7699C3.58472 16.9499 4.07472 18.2599 5.37472 18.6999C9.68472 20.1399 14.3347 20.1399 18.6447 18.6999C19.8547 18.2999 20.3847 16.8699 19.7247 15.7699L18.5747 13.8599C18.2747 13.3399 18.0147 12.4099 18.0147 11.7999V8.90991C18.0147 5.60991 15.3147 2.90991 12.0147 2.90991Z" stroke="#7F7F7F" stroke-width="1.8" stroke-miterlimit="10" stroke-linecap="round"/>
<path d="M13.8719 3.19994C13.5619 3.10994 13.2419 3.03994 12.9119 2.99994C11.9519 2.87994 11.0319 2.94994 10.1719 3.19994C10.4619 2.45994 11.1819 1.93994 12.0219 1.93994C12.8619 1.93994 13.5819 2.45994 13.8719 3.19994Z" stroke="#7F7F7F" stroke-width="1.8" stroke-miterlimit="10" stroke-linecap="round" stroke-linejoin="round"/>
<path d="M15.0156 19.0601C15.0156 20.7101 13.6656 22.0601 12.0156 22.0601C11.1956 22.0601 10.4356 21.7201 9.89562 21.1801C9.35562 20.6401 9.01562 19.8801 9.01562 19.0601" stroke="#7F7F7F" stroke-width="1.8" stroke-miterlimit="10"/>
</svg>
