<svg width="26" height="26" viewBox="0 0 26 26" fill="none" xmlns="http://www.w3.org/2000/svg">
<path d="M11.3821 24.9641L11.3819 24.964C10.1007 24.7756 8.90404 24.4082 7.7545 23.8475C6.6096 23.2916 5.62942 22.6082 4.68738 21.7086C3.03824 20.1443 1.83681 18.0713 1.30902 15.8847C1.12086 15.1086 1.0594 14.7589 0.993466 14.0242C0.833226 12.2568 1.12059 10.283 1.78037 8.62878C3.23141 4.97295 6.36906 2.22608 10.134 1.31194C10.863 1.13321 11.2878 1.05764 11.9241 1.00107C16.8435 0.539284 21.6302 3.24381 23.8211 7.70559L23.8212 7.70576C24.4005 8.89738 24.768 10.08 24.9611 11.3848L24.9612 11.385C25.0745 12.1686 25.0745 13.8531 24.9612 14.6368L24.9611 14.6369C24.8528 15.3765 24.5893 16.4402 24.3534 17.0865C24.1177 17.7371 23.6047 18.7961 23.2554 19.3484C22.0447 21.2751 20.3111 22.8439 18.3085 23.824C17.1263 24.4033 16.0611 24.738 14.7753 24.9405L14.7752 24.9405C13.8976 25.0773 12.2363 25.0868 11.3821 24.9641ZM22.4644 8.36416L22.4644 8.36412C21.4465 6.2677 19.7375 4.56783 17.6078 3.52629C16.5988 3.03581 15.6605 2.74174 14.5489 2.57359C14.3149 2.53886 13.8214 2.50726 13.3363 2.48907C12.8506 2.47087 12.3803 2.46639 12.1918 2.48475C11.7145 2.53625 10.9475 2.65791 10.6264 2.73237C7.48314 3.48909 4.91503 5.54384 3.52816 8.40622C2.78073 9.95714 2.48211 11.2682 2.48211 13.0109C2.48211 14.7536 2.78075 16.0693 3.52811 17.6107L3.52813 17.6107C4.51348 19.6468 6.10114 21.2859 8.10462 22.3413C9.68315 23.1726 11.1766 23.5367 13.008 23.5367C14.746 23.5367 16.0664 23.2381 17.6078 22.4907L17.6078 22.4907C20.7598 20.9638 22.9081 18.0267 23.4546 14.5049C23.5665 13.7638 23.5665 12.258 23.4546 11.5169C23.2724 10.3583 22.9783 9.42001 22.4644 8.36416Z" fill="#AD3434" stroke="#AD3434" stroke-width="0.1"/>
<path d="M13.6185 11.4625C13.7076 11.2889 13.7123 11.1904 13.7123 9.25258C13.7123 7.24438 13.7123 7.22562 13.6091 7.04263L12.6157 6.75839C12.5376 6.8054 12.469 6.84672 12.4168 6.91187C12.3589 6.98408 12.3241 7.08074 12.3015 7.23542C12.2582 7.53337 12.2571 8.07614 12.2549 9.15223C12.2548 9.18362 12.2548 9.21547 12.2547 9.24778L12.2547 9.24788C12.2547 10.2185 12.2558 10.729 12.2682 11.0189C12.2744 11.1638 12.2835 11.2561 12.2972 11.3243C12.3114 11.3942 12.3303 11.4378 12.3538 11.4849L12.354 11.4853L12.354 11.4853C12.4129 11.6006 12.5139 11.7007 12.6298 11.772C12.7457 11.8432 12.8801 11.8879 13.0085 11.8879C13.1369 11.8879 13.2713 11.8432 13.3872 11.772C13.503 11.7007 13.6041 11.6006 13.663 11.4853L13.6185 11.4625ZM13.6185 11.4625L13.6629 11.4854C13.6866 11.4393 13.7056 11.3962 13.7197 11.3264C13.7335 11.2585 13.7426 11.1661 13.7488 11.0213C13.7611 10.7313 13.7623 10.2209 13.7623 9.25258V9.24893C13.7623 8.24809 13.7623 7.74058 13.7493 7.46084C13.7429 7.32089 13.733 7.23459 13.7173 7.17076C13.7011 7.10501 13.6789 7.06467 13.6526 7.01806L13.6526 7.01795C13.442 6.64703 12.998 6.52496 12.6353 6.74651M13.6185 11.4625C13.5105 11.6737 13.2431 11.8379 13.0085 11.8379L12.6353 6.74651M12.6353 6.74651C12.6353 6.74654 12.6353 6.74657 12.6352 6.74659L12.6613 6.78926L12.6354 6.74648C12.6354 6.74649 12.6354 6.7465 12.6353 6.74651Z" fill="#AD3434" stroke="#AD3434" stroke-width="0.1"/>
<path d="M9.67102 8.97206L9.67104 8.97208C9.59144 9.02682 9.37251 9.22721 9.18967 9.41474L9.18933 9.41509C7.84829 10.8177 7.40804 12.8738 8.04739 14.7397L8.04739 14.7397C8.56393 16.2467 9.85672 17.5158 11.3733 17.9993L11.3733 17.9993C11.9981 18.198 12.2894 18.2409 13.0073 18.2409C13.7011 18.2409 14.0111 18.1982 14.5702 18.0276L14.5706 18.0275C16.1435 17.5348 17.427 16.2891 17.9718 14.7164L17.9718 14.7164C18.1898 14.086 18.242 13.7236 18.2373 12.9402L18.2373 12.9401C18.2326 12.3468 18.2136 12.1591 18.1089 11.7733C17.8488 10.7898 17.4412 10.0547 16.7777 9.3817L16.7777 9.38167C16.5952 9.19686 16.4788 9.08493 16.386 9.01598C16.2903 8.9448 16.2183 8.91831 16.1263 8.90297L16.1257 8.90287C15.6702 8.8328 15.2564 9.17321 15.2564 9.62325C15.2564 9.7586 15.2673 9.8531 15.3339 9.96949C15.3977 10.081 15.5124 10.2121 15.7107 10.4267L15.7107 10.4267C16.6979 11.4927 16.9985 12.8438 16.5445 14.2151L16.5444 14.2153C16.0354 15.7748 14.4423 16.8539 12.8041 16.7475C12.243 16.7104 11.8692 16.6089 11.3634 16.363L11.3634 16.363C9.53472 15.4741 8.76135 13.3028 9.60405 11.4505C9.80304 11.0202 9.97323 10.7759 10.3927 10.3284L10.3928 10.3284C10.5939 10.1132 10.7161 9.95964 10.7681 9.8143C10.8221 9.66362 10.7989 9.52799 10.7313 9.35655M9.67102 8.97206L10.6847 9.37457M9.67102 8.97206L9.67253 8.9711C9.78804 8.8976 9.89862 8.87852 10.0829 8.89302M9.67102 8.97206L10.0794 8.94291M10.7313 9.35655C10.7313 9.35644 10.7313 9.35634 10.7312 9.35623L10.6847 9.37457M10.7313 9.35655C10.7314 9.35665 10.7314 9.35674 10.7314 9.35684L10.6847 9.37457M10.7313 9.35655C10.677 9.21347 10.5979 9.10149 10.4886 9.0231C10.3796 8.94484 10.2445 8.90288 10.0829 8.89302M10.6847 9.37457C10.5815 9.10244 10.3891 8.96167 10.0794 8.94291M10.0829 8.89302C10.083 8.89304 10.0832 8.89305 10.0834 8.89306L10.0794 8.94291M10.0829 8.89302C10.0827 8.89302 10.0826 8.89301 10.0824 8.893L10.0794 8.94291" fill="#AD3434" stroke="#AD3434" stroke-width="0.1"/>
</svg>
